<svg id="Layer_1" data-name="Layer 1" xmlns="http://www.w3.org/2000/svg" viewBox="0 0 387 123"><defs><style>.cls-1{fill:#fff;}</style></defs><path class="cls-1" d="M144.9,62.34V42.09h2.48v18h11.88v2.24Z"/><path class="cls-1" d="M186.41,62.34h-2.58L182,57.64H171.26l-1.88,4.7h-2.61l8.38-20.25H178ZM172,55.54h9.1L176.6,44.66Z"/><path class="cls-1" d="M215.12,62.34h-2.58L198.78,45.8V62.34H196.3V42.09h2.58l13.78,16.59V42.09h2.46Z"/><path class="cls-1" d="M236,42.09c6.76,0,10.21,4.16,10.21,10.14,0,6.2-3.47,10.11-10.24,10.11h-8.26V42.09Zm-5.83,2.25V60.08h5.68c5.24,0,7.86-2.83,7.86-7.85s-2.62-7.89-7.86-7.89Z"/><path class="cls-1" d="M261.26,52.63c-2.72-.85-5-2.18-5-5.05,0-3.55,2.68-5.79,7.21-5.79a16.13,16.13,0,0,1,6,1.11l-.26,2.28a14,14,0,0,0-5.5-1.15c-3,0-4.81,1.16-4.81,3.32s1.77,2.6,3.54,3.18l3.18,1c3.31,1.09,4.86,2.54,4.86,5.29,0,3.48-2.85,5.8-7.29,5.8a18,18,0,0,1-6.95-1.38l.24-2.33A17,17,0,0,0,263,60.38c3,0,4.92-1.26,4.92-3.47,0-1.63-.9-2.48-3.21-3.21Z"/><path class="cls-1" d="M291.49,62.63c-6.83,0-11.5-4.24-11.5-10.43s4.59-10.41,11.33-10.41a14.67,14.67,0,0,1,6.14,1.27l-.25,2.31a14.66,14.66,0,0,0-5.9-1.22c-5.19,0-8.71,3.26-8.71,8.05s3.68,8.09,9,8.09A12.25,12.25,0,0,0,297.42,59l.4,2.34A14.54,14.54,0,0,1,291.49,62.63Z"/><path class="cls-1" d="M325.49,62.34h-2.58L321,57.64H310.34l-1.87,4.7h-2.61l8.38-20.25h2.89Zm-14.37-6.8h9.11l-4.55-10.88Z"/><path class="cls-1" d="M337.85,56v6.35h-2.46V42.09h8.94c3.8,0,7.07,2.21,7.07,7A6.74,6.74,0,0,1,344.33,56Zm0-2.23h6.2a4.58,4.58,0,0,0,4.83-4.66,4.48,4.48,0,0,0-4.83-4.76h-6.2Z"/><path class="cls-1" d="M362.13,62.34V42.09h14.52v2.24H364.59v6.48h10.5v2.24h-10.5v7.06H377v2.23Z"/><path class="cls-1" d="M180.88,81.86v3.3h-2.23V74h5.19a3.81,3.81,0,0,1,4.07,4,3.86,3.86,0,0,1-4.07,3.93Zm0-6v4h2.7a1.94,1.94,0,0,0,2-2,1.91,1.91,0,0,0-2-2Z"/><path class="cls-1" d="M201.1,83h-5.19l-.83,2.19h-2.37L197.22,74h2.56l4.52,11.19h-2.37Zm-4.56-1.77h3.92l-2-4.91Z"/><path class="cls-1" d="M215.47,81.86h-2.59v3.3h-2.22V74h5.19a3.94,3.94,0,0,1,1.9,7.47l3,3.71H218Zm-2.59-6v4h2.71a1.94,1.94,0,0,0,2-2,1.92,1.92,0,0,0-2-2Z"/><path class="cls-1" d="M229.52,76H226V74h9.21v2h-3.49v9.21h-2.22Z"/><path class="cls-1" d="M243.92,85.16h-2.23V74h2l6.44,7.68V74h2.22V85.16h-2.05l-6.4-7.6Z"/><path class="cls-1" d="M268.24,85.16h-8.41V74h8.29V75.9h-6.07v2.58h5.31V80.4h-5.31v2.84h6.19Z"/><path class="cls-1" d="M280.26,81.86h-2.59v3.3h-2.23V74h5.2a3.94,3.94,0,0,1,1.9,7.47l3,3.71h-2.69Zm-2.59-6v4h2.71a1.94,1.94,0,0,0,2.05-2,1.92,1.92,0,0,0-2.05-2Z"/><path class="cls-1" d="M299.38,74.5l-.18,2a7.89,7.89,0,0,0-3.24-.72c-1.21,0-2.08.38-2.08,1.3s.79,1.09,1.56,1.32l1.61.48c1.85.55,2.9,1.34,2.9,3,0,2-1.69,3.41-4.24,3.41a10.2,10.2,0,0,1-4.14-.82l.18-2a9.33,9.33,0,0,0,3.76.84c1.18,0,2.12-.42,2.12-1.33,0-.71-.42-1-1.37-1.28l-1.77-.48c-1.42-.38-2.92-1.16-2.92-3,0-2.07,1.62-3.44,4.23-3.44A8.58,8.58,0,0,1,299.38,74.5Z"/><path class="cls-1" d="M316.64,85.16h-2.22V80.41H309v4.75h-2.22V74H309v4.52h5.46V74h2.22Z"/><path class="cls-1" d="M326.31,85.16h-2.22V74h2.22Z"/><path class="cls-1" d="M336,81.86v3.3h-2.23V74H339a3.81,3.81,0,0,1,4.08,4A3.86,3.86,0,0,1,339,81.86Zm0-6v4h2.7a2,2,0,0,0,2.05-2,1.92,1.92,0,0,0-2.05-2Z"/><polyline class="cls-1" points="34 31 60.39 4.82 86.45 30.88 86.36 30.98 86.45 31.07 29.89 88 29.89 77.41 75.71 30.98 60.58 15.85 39.94 36.49 34.07 31.07"/><polygon class="cls-1" points="91.23 87.54 117.01 61.77 116.91 61.67 117.01 61.58 91.05 35.62 85.63 41.04 106.27 61.67 91.14 76.8 45.49 31.31 34.12 30.86 91.04 87.54 91.14 87.44 91.23 87.54"/><polyline class="cls-1" points="60.13 118.47 86.21 92.39 80.79 86.98 60.04 107.73 44.91 92.6 91.1 46.4 90.95 35.41 34.17 92.5 34.26 92.6 34.17 92.69 59.94 118.47"/><polygon class="cls-1" points="29.77 36.15 4 61.92 4.09 62.02 4 62.11 29.89 88 29.89 77.41 14.74 62.02 29.87 46.89 75.22 92.24 86.31 92.13 29.96 36.15 29.87 36.24 29.77 36.15"/><path class="cls-1" d="M60,26.07,24.4,61.67,60,97.27l35.6-35.6ZM35.37,61.67,60.22,36.83,85.06,61.67,60.22,86.51Z"/><rect class="cls-1" x="40.19" y="79.26" width="17.47" height="7.73" transform="translate(-44.45 58.94) rotate(-45)"/><rect class="cls-1" x="32.8" y="49.37" width="17.47" height="7.67" transform="translate(49.79 -13.79) rotate(45)"/><rect class="cls-1" x="69.08" y="70.79" width="28.93" height="7.69" transform="translate(77.25 -37.22) rotate(45)"/><rect class="cls-1" x="63.11" y="36.52" width="17.47" height="7.59" transform="translate(151.15 18.02) rotate(135)"/></svg>