<?xml version="1.0" encoding="UTF-8"?><svg id="a" xmlns="http://www.w3.org/2000/svg" viewBox="0 0 424.95 113.65"><g><path d="M125.94,51.65V26.45h3.08v22.41h14.79v2.78h-17.87Z" fill="#fff"/><path d="M177.59,51.65h-3.21l-2.34-5.84h-13.3l-2.34,5.84h-3.25l10.43-25.2h3.6l10.41,25.2Zm-17.89-8.46h11.34l-5.66-13.54-5.68,13.54Z" fill="#fff"/><path d="M213.32,51.65h-3.21l-17.13-20.58v20.58h-3.08V26.45h3.21l17.15,20.65V26.45h3.06v25.2Z" fill="#fff"/><path d="M239.34,26.45c8.41,0,12.71,5.18,12.71,12.62s-4.32,12.58-12.75,12.58h-10.28V26.45h10.32Zm-7.25,2.8v19.59h7.07c6.51,0,9.78-3.53,9.78-9.78s-3.27-9.82-9.78-9.82h-7.07Z" fill="#fff"/><path d="M270.73,39.57c-3.38-1.06-6.23-2.71-6.23-6.29,0-4.42,3.34-7.2,8.98-7.2,2.89,0,5.38,.58,7.42,1.37l-.32,2.84c-1.97-.91-4.62-1.43-6.85-1.43-3.69,0-5.99,1.45-5.99,4.14s2.21,3.23,4.42,3.95l3.95,1.26c4.12,1.35,6.05,3.15,6.05,6.59,0,4.32-3.54,7.22-9.07,7.22-2.97,0-6.46-.69-8.65-1.73l.3-2.89c2.15,1.02,5.47,1.82,8.11,1.82,3.67,0,6.12-1.58,6.12-4.32,0-2.02-1.11-3.08-3.99-3.99l-4.25-1.34Z" fill="#fff"/><path d="M308.35,52.02c-8.5,0-14.31-5.29-14.31-12.99s5.71-12.95,14.1-12.95c3.25,0,6.05,.8,7.64,1.58l-.32,2.88c-1.56-.72-4.25-1.52-7.35-1.52-6.46,0-10.84,4.06-10.84,10.02s4.58,10.08,11.26,10.08c3.88,0,6.44-1.22,7.18-1.63l.5,2.91c-.69,.3-3.38,1.63-7.89,1.63Z" fill="#fff"/><path d="M350.67,51.65h-3.21l-2.34-5.84h-13.3l-2.34,5.84h-3.25l10.43-25.2h3.6l10.41,25.2Zm-17.89-8.46h11.34l-5.66-13.54-5.68,13.54Z" fill="#fff"/><path d="M366.04,43.75v7.9h-3.06V26.45h11.13c4.73,0,8.79,2.75,8.79,8.7,0,5.38-4.06,8.59-8.79,8.59h-8.07Zm0-2.76h7.72c3.27,0,6.01-2.19,6.01-5.81,0-4.01-2.75-5.92-6.01-5.92h-7.72v11.73Z" fill="#fff"/><path d="M396.26,51.65V26.45h18.07v2.78h-15.01v8.07h13.06v2.78h-13.06v8.79h15.4v2.76h-18.46Z" fill="#fff"/><path d="M166.01,75.35v4.3h-2.9v-14.59h6.76c2.94,0,5.32,1.86,5.32,5.17,0,3.13-2.37,5.12-5.32,5.12h-3.86Zm0-7.78v5.27h3.52c1.54,0,2.66-1.06,2.66-2.62,0-1.7-1.15-2.65-2.66-2.65h-3.52Z" fill="#fff"/><path d="M192.37,76.79h-6.77l-1.08,2.86h-3.09l5.89-14.59h3.33l5.9,14.59h-3.09l-1.07-2.86Zm-5.95-2.31h5.11l-2.55-6.39-2.57,6.39Z" fill="#fff"/><path d="M211.1,75.35h-3.37v4.3h-2.9v-14.59h6.77c2.94,0,5.33,1.87,5.33,5.16,0,2.12-1.18,3.78-2.85,4.59l3.87,4.83h-3.5l-3.34-4.29Zm-3.37-7.78v5.27h3.53c1.55,0,2.67-1.06,2.67-2.62,0-1.7-1.15-2.65-2.67-2.65h-3.53Z" fill="#fff"/><path d="M229.42,67.64h-4.57v-2.58h12.01v2.58h-4.55v12.01h-2.89v-12.01Z" fill="#fff"/><path d="M248.19,79.65h-2.9v-14.59h2.63l8.39,10.01v-10.01h2.9v14.59h-2.67l-8.35-9.9v9.9Z" fill="#fff"/><path d="M279.9,79.65h-10.97v-14.59h10.81v2.51h-7.91v3.36h6.92v2.51h-6.92v3.7h8.07v2.5Z" fill="#fff"/><path d="M295.56,75.35h-3.37v4.3h-2.9v-14.59h6.77c2.94,0,5.33,1.87,5.33,5.16,0,2.12-1.18,3.78-2.85,4.59l3.87,4.83h-3.5l-3.34-4.29Zm-3.37-7.78v5.27h3.53c1.55,0,2.67-1.06,2.67-2.62,0-1.7-1.15-2.65-2.67-2.65h-3.53Z" fill="#fff"/><path d="M320.5,65.76l-.25,2.58c-.76-.45-2.65-.93-4.22-.93s-2.71,.48-2.71,1.69,1.03,1.43,2.03,1.73l2.11,.62c2.41,.71,3.78,1.74,3.78,3.97,0,2.59-2.2,4.45-5.53,4.45-2.06,0-4.39-.52-5.4-1.07l.24-2.59c.72,.45,3.09,1.08,4.91,1.08,1.54,0,2.76-.54,2.76-1.73,0-.92-.55-1.33-1.78-1.67l-2.31-.62c-1.86-.5-3.81-1.51-3.81-3.94,0-2.7,2.12-4.48,5.52-4.48,2.04,0,3.51,.4,4.67,.91Z" fill="#fff"/><path d="M342.99,79.65h-2.89v-6.19h-7.11v6.19h-2.9v-14.59h2.9v5.9h7.11v-5.9h2.89v14.59Z" fill="#fff"/><path d="M355.6,79.65h-2.9v-14.59h2.9v14.59Z" fill="#fff"/><path d="M368.22,75.35v4.3h-2.9v-14.59h6.76c2.94,0,5.32,1.86,5.32,5.17,0,3.13-2.37,5.12-5.32,5.12h-3.86Zm0-7.78v5.27h3.52c1.54,0,2.66-1.06,2.66-2.62,0-1.7-1.15-2.65-2.66-2.65h-3.52Z" fill="#fff"/></g><g><polyline points="30 26.18 56.39 0 82.45 26.07 82.36 26.16 82.45 26.26 25.89 83.18 25.89 72.59 71.71 26.16 56.58 11.03 35.94 31.68 30.07 26.26" fill="#fff"/><polygon points="87.23 82.72 113.01 56.95 112.91 56.85 113.01 56.76 87.05 30.8 81.63 36.22 102.27 56.85 87.14 71.98 41.49 26.5 30.12 26.04 87.04 82.72 87.14 82.63 87.23 82.72" fill="#fff"/><polyline points="56.13 113.65 82.21 87.58 76.79 82.16 56.04 102.91 40.91 87.78 87.1 41.59 86.95 30.59 30.17 87.69 30.26 87.78 30.17 87.88 55.94 113.65" fill="#fff"/><polygon points="25.77 31.33 0 57.11 .1 57.2 0 57.3 25.89 83.18 25.89 72.59 10.74 57.2 25.87 42.07 71.22 87.42 82.31 87.32 25.96 31.33 25.87 31.43 25.77 31.33" fill="#fff"/><path d="M56,21.25L20.4,56.85l35.6,35.6,35.6-35.6L56,21.25ZM31.37,56.85l24.84-24.84,24.84,24.84-24.84,24.84-24.84-24.84Z" fill="#fff"/><rect x="36.19" y="74.44" width="17.47" height="7.73" transform="translate(-42.21 54.7) rotate(-45)" fill="#fff"/><rect x="28.8" y="44.55" width="17.47" height="7.67" transform="translate(45.21 -12.37) rotate(45)" fill="#fff"/><rect x="65.08" y="65.98" width="28.93" height="7.69" transform="translate(72.67 -35.8) rotate(45)" fill="#fff"/><rect x="59.11" y="31.71" width="17.47" height="7.59" transform="translate(140.91 12.63) rotate(135)" fill="#fff"/></g></svg>