<svg id="Layer_1" data-name="Layer 1" xmlns="http://www.w3.org/2000/svg" viewBox="0 0 180.74 63.44"><polygon points="0 30.44 0 0 30.83 0 30.83 24.77 45.74 24.77 45.74 30.44 24.85 30.44 24.85 5.2 6.13 5.2 6.13 30.44 0 30.44" fill="#b0b0b0"/><rect x="12.19" y="12.12" width="6.21" height="6.21" fill="#f60"/><path d="M.34,38.16H13v3.12H4v4.08h7.86v3.08H4v7.44H.34Z" fill="#fff"/><path d="M23.67,43A5.42,5.42,0,0,1,25.94,45a6.59,6.59,0,0,1,1,2.71,16.91,16.91,0,0,1,.11,2.61H17.54a3.15,3.15,0,0,0,1.37,2.77,3.5,3.5,0,0,0,1.89.49,2.93,2.93,0,0,0,1.91-.6,3,3,0,0,0,.7-.9h3.51a4.37,4.37,0,0,1-1.28,2.37,6.38,6.38,0,0,1-4.93,1.91,7.16,7.16,0,0,1-4.62-1.61q-2-1.62-2-5.26a7.1,7.1,0,0,1,1.81-5.22,6.31,6.31,0,0,1,4.69-1.82A7.48,7.48,0,0,1,23.67,43Zm-5.13,3a3.55,3.55,0,0,0-.92,2h5.91a2.87,2.87,0,0,0-.91-2.08,3,3,0,0,0-2-.7A2.7,2.7,0,0,0,18.54,46Z" fill="#fff"/><path d="M36.12,42.45l.29,0V46l-.58,0h-.4a2.86,2.86,0,0,0-2.79,1.35,5.32,5.32,0,0,0-.39,2.33v6.28H28.79V42.76h3.28V45a7.39,7.39,0,0,1,1.38-1.79,3.76,3.76,0,0,1,2.5-.81Z" fill="#fff"/><path d="M44.24,42.74a4.13,4.13,0,0,1,2,1.91V42.76h3.35V55.2A7,7,0,0,1,48.75,59c-1,1.48-2.85,2.21-5.63,2.21a7.7,7.7,0,0,1-4.1-1,3.64,3.64,0,0,1-1.76-2.95H41a1.51,1.51,0,0,0,.47.86,2.85,2.85,0,0,0,1.86.47A2.49,2.49,0,0,0,45.8,57.4a6.16,6.16,0,0,0,.41-2.67v-.84a4.15,4.15,0,0,1-1.06,1.26,4.25,4.25,0,0,1-2.66.79,5,5,0,0,1-4-1.78A7.16,7.16,0,0,1,37,49.35a8.07,8.07,0,0,1,1.45-4.91,4.8,4.8,0,0,1,4.12-2A4.52,4.52,0,0,1,44.24,42.74Zm1.17,9.41a4.23,4.23,0,0,0,.83-2.89,4.39,4.39,0,0,0-.79-2.84,2.55,2.55,0,0,0-2.1-1,2.48,2.48,0,0,0-2.48,1.7,6,6,0,0,0-.36,2.22,5.23,5.23,0,0,0,.38,2,2.5,2.5,0,0,0,2.49,1.66A2.63,2.63,0,0,0,45.41,52.15Z" fill="#fff"/><path d="M55.56,42.76v7.9a4.29,4.29,0,0,0,.26,1.69,1.83,1.83,0,0,0,1.83,1,2.41,2.41,0,0,0,2.4-1.42,5.27,5.27,0,0,0,.33-2V42.76h3.48V55.88H60.53V54l-.24.36a2.34,2.34,0,0,1-.46.53,4.78,4.78,0,0,1-1.55,1,5.22,5.22,0,0,1-1.76.26c-1.94,0-3.24-.69-3.91-2.09A8,8,0,0,1,52,50.66v-7.9Z" fill="#fff"/><path d="M69.19,51.69a2.29,2.29,0,0,0,.47,1.3,3.21,3.21,0,0,0,2.37.68,3.61,3.61,0,0,0,1.61-.3,1,1,0,0,0,.12-1.78,20,20,0,0,0-3.59-1A7.38,7.38,0,0,1,67,49.17a3,3,0,0,1-.92-2.36,4.09,4.09,0,0,1,1.43-3.12,5.78,5.78,0,0,1,4-1.31,7.44,7.44,0,0,1,4,1,4.25,4.25,0,0,1,1.78,3.39H73.92a2,2,0,0,0-.38-1,2.34,2.34,0,0,0-1.93-.7,2.73,2.73,0,0,0-1.6.35,1,1,0,0,0-.48.81A.9.9,0,0,0,70,47a22.66,22.66,0,0,0,3.58.95,6.61,6.61,0,0,1,3.08,1.46,3.3,3.3,0,0,1,1,2.46,4,4,0,0,1-1.46,3.19,6.84,6.84,0,0,1-4.49,1.23A6.75,6.75,0,0,1,67.18,55a4.23,4.23,0,0,1-1.47-3.32Z" fill="#fff"/><path d="M90.51,54.27a6.11,6.11,0,0,1-5.05,2,6.1,6.1,0,0,1-5-2,8.14,8.14,0,0,1,0-9.85,6.06,6.06,0,0,1,5-2.09,6.07,6.07,0,0,1,5.05,2.09,8.14,8.14,0,0,1,0,9.85Zm-2.75-1.89a5,5,0,0,0,.81-3.05,4.92,4.92,0,0,0-.81-3,3.06,3.06,0,0,0-4.63,0,4.92,4.92,0,0,0-.81,3,5,5,0,0,0,.81,3.05,3.06,3.06,0,0,0,4.63,0Z" fill="#fff"/><path d="M103.86,43.51A4.34,4.34,0,0,1,105.15,47v8.84h-3.52v-8a3.73,3.73,0,0,0-.27-1.59,1.92,1.92,0,0,0-1.91-1,2.36,2.36,0,0,0-2.38,1.48,5.13,5.13,0,0,0-.33,2v7.11H93.31V42.78h3.32v1.91a5.75,5.75,0,0,1,1.24-1.45,4.35,4.35,0,0,1,2.68-.8A5,5,0,0,1,103.86,43.51Z" fill="#fff"/><path d="M112.64,38.13h3.7V52.69h8.86v3.19H112.64Z" fill="#f90" stroke="#f90" stroke-miterlimit="10" stroke-width="0.5"/><path d="M125.69,58.39l.44,0a6.07,6.07,0,0,0,1,0,1.69,1.69,0,0,0,.77-.28,1.8,1.8,0,0,0,.56-.85,2,2,0,0,0,.22-.8l-4.82-13.69h3.82l2.86,9.67,2.71-9.67h3.65l-4.5,12.9a18.45,18.45,0,0,1-2.06,4.63c-.51.59-1.52.89-3,.89h-.74l-.83,0Z" fill="#f90" stroke="#f90" stroke-miterlimit="10" stroke-width="0.5"/><path d="M148.79,43.51A4.34,4.34,0,0,1,150.08,47v8.84h-3.51v-8a3.71,3.71,0,0,0-.28-1.59,1.91,1.91,0,0,0-1.91-1A2.37,2.37,0,0,0,142,46.78a5.13,5.13,0,0,0-.33,2v7.11h-3.43V42.78h3.32v1.91a5.57,5.57,0,0,1,1.25-1.45,4.3,4.3,0,0,1,2.67-.8A5,5,0,0,1,148.79,43.51Z" fill="#f90" stroke="#f90" stroke-miterlimit="10" stroke-width="0.5"/><path d="M160.45,47.46a3,3,0,0,0-.5-1.32,2.06,2.06,0,0,0-1.79-.8,2.38,2.38,0,0,0-2.38,1.73,7,7,0,0,0-.34,2.42,6.5,6.5,0,0,0,.34,2.32,2.29,2.29,0,0,0,2.32,1.63,2,2,0,0,0,1.71-.65,3.16,3.16,0,0,0,.61-1.68h3.51a5.7,5.7,0,0,1-1.14,3A5.5,5.5,0,0,1,158,56.32a5.57,5.57,0,0,1-4.66-1.88,7.55,7.55,0,0,1-1.5-4.87,7.64,7.64,0,0,1,1.66-5.25,5.73,5.73,0,0,1,4.55-1.88,6.84,6.84,0,0,1,4,1.11A5.13,5.13,0,0,1,164,47.46Z" fill="#f90" stroke="#f90" stroke-miterlimit="10" stroke-width="0.5"/><path d="M175.07,42.83a3.79,3.79,0,0,1,1.62,1.29,3.42,3.42,0,0,1,.66,1.51,18.7,18.7,0,0,1,.12,2.54v7.71H174v-8a3.5,3.5,0,0,0-.36-1.71,1.78,1.78,0,0,0-1.77-.92,2.42,2.42,0,0,0-2.05.91,4.23,4.23,0,0,0-.7,2.6v7.11h-3.43V38.19h3.43v6.26a4.23,4.23,0,0,1,1.72-1.59,4.9,4.9,0,0,1,2.06-.45A5.57,5.57,0,0,1,175.07,42.83Z" fill="#f90" stroke="#f90" stroke-miterlimit="10" stroke-width="0.5"/></svg>