<svg xmlns="http://www.w3.org/2000/svg" viewBox="0 0 88 24"><rect x="0.5" y="0.5" width="87" height="23" fill="#91a64b"/><path d="M87,1.08v22H1v-22H87m1-1H0v24H88V.08Z" transform="translate(0.04 -0.08)" fill="#5f5f5f"/><path d="M28.46,16.63H22.21V8h1.34v7.4h4.91Z" transform="translate(0.04 -0.08)" fill="#fff"/><path d="M33.22,7.88a4.39,4.39,0,0,1,4.57,4.48,4.33,4.33,0,0,1-4.57,4.39,4.32,4.32,0,0,1-4.52-4.39A4.38,4.38,0,0,1,33.22,7.88Zm0,7.61a3,3,0,0,0,3.17-3.14,3.14,3.14,0,1,0-6.28,0A3,3,0,0,0,33.22,15.49Z" transform="translate(0.04 -0.08)" fill="#fff"/><path d="M45.81,13.06H43.18v-1.2h3.94v4.21a6.61,6.61,0,0,1-3,.68c-3.13,0-5.14-1.8-5.14-4.43s2-4.43,5.19-4.43a6.19,6.19,0,0,1,2.67.57l-.13,1.26a5.85,5.85,0,0,0-2.54-.57c-2.34,0-3.77,1.29-3.77,3.17s1.41,3.17,3.69,3.17a4.52,4.52,0,0,0,1.76-.3Z" transform="translate(0.04 -0.08)" fill="#fff"/><path d="M53.38,16.63H52.05V8h1.33Z" transform="translate(0.04 -0.08)" fill="#fff"/><path d="M57,16.63H55.62V8H57l5.5,6.56V8h1.34v8.62H62.44L57,10.12Z" transform="translate(0.04 -0.08)" fill="#fff"/></svg>