<svg xmlns="http://www.w3.org/2000/svg" viewBox="0 0 88 24"><rect width="88" height="24" fill="#e9680a" stroke="#e9680a" stroke-miterlimit="10"/><path d="M22.07,16.88H15.82V8.26h1.34v7.41h4.91Z" fill="#fff"/><path d="M26.83,8.13a4.39,4.39,0,0,1,4.57,4.49A4.32,4.32,0,0,1,26.83,17a4.32,4.32,0,0,1-4.52-4.39A4.38,4.38,0,0,1,26.83,8.13Zm0,7.61A3,3,0,0,0,30,12.6a3.14,3.14,0,1,0-6.28,0A3,3,0,0,0,26.83,15.74Z" fill="#fff"/><path d="M39.42,13.31H36.79v-1.2h4v4.22a6.69,6.69,0,0,1-3.05.68c-3.13,0-5.14-1.8-5.14-4.43s2-4.44,5.19-4.44a6.05,6.05,0,0,1,2.67.58L40.28,10a5.93,5.93,0,0,0-2.54-.56C35.4,9.41,34,10.7,34,12.58s1.41,3.16,3.69,3.16a4.53,4.53,0,0,0,1.76-.29Z" fill="#fff"/><path d="M49.64,8.13a4.39,4.39,0,0,1,4.57,4.49,4.55,4.55,0,0,1-9.09,0A4.37,4.37,0,0,1,49.64,8.13Zm0,7.61a3,3,0,0,0,3.17-3.14,3.14,3.14,0,1,0-6.28,0A3,3,0,0,0,49.64,15.74Z" fill="#fff"/><path d="M55.82,8.26h1.33v5.49c0,1.39,1,2,2.39,2s2.41-.66,2.41-2V8.26h1.33v5.61c0,2.21-1.78,3.14-3.74,3.14s-3.72-1-3.72-3.14Z" fill="#fff"/><path d="M67.36,9.51H64.51V8.26h7V9.51H68.68v7.37H67.36Z" fill="#fff"/></svg>