<svg xmlns="http://www.w3.org/2000/svg" viewBox="0 0 298.46 28.31"><defs><style>.cls-1{fill:#fff;}</style></defs><g id="Layer_2" data-name="Layer 2"><g id="Layer_1-2" data-name="Layer 1"><path class="cls-1" d="M51.93,1.65h1.29l3.55,6.18,1.07,2h.06c0-.5-.06-1-.1-1.56s0-1.06,0-1.58V1.65h1.18v9.84H57.64l-3.57-6.2L53,3.27H53c0,.5.07,1,.11,1.52s0,1,0,1.55v5.15H51.93Z"/><path class="cls-1" d="M61,9.6A2,2,0,0,1,62,7.76a8.74,8.74,0,0,1,3.41-.89,3.08,3.08,0,0,0-.07-.68,1.43,1.43,0,0,0-.24-.58,1.3,1.3,0,0,0-.45-.42A1.6,1.6,0,0,0,63.94,5a2.91,2.91,0,0,0-1.19.24,5.67,5.67,0,0,0-1,.54L61.27,5a8.48,8.48,0,0,1,1.25-.64A4.25,4.25,0,0,1,64.14,4a2.24,2.24,0,0,1,1.93.81A3.64,3.64,0,0,1,66.67,7v4.47h-1l-.1-.87h0a6.19,6.19,0,0,1-1.14.74,2.84,2.84,0,0,1-1.28.31,2.24,2.24,0,0,1-1.54-.54A2,2,0,0,1,61,9.6Zm1.21-.09a1,1,0,0,0,.37.9,1.49,1.49,0,0,0,.91.27,2.14,2.14,0,0,0,1-.25,4.94,4.94,0,0,0,1-.73v-2A12.77,12.77,0,0,0,63.9,8a4.19,4.19,0,0,0-1,.39,1.43,1.43,0,0,0-.54.52A1.28,1.28,0,0,0,62.17,9.51Z"/><path class="cls-1" d="M69,5.2H68V4.27l1.14-.07.15-2h1v2h2v1h-2V9.25a1.8,1.8,0,0,0,.25,1,1,1,0,0,0,.88.37,1.64,1.64,0,0,0,.42-.06,3.14,3.14,0,0,0,.4-.13l.24.93a5.56,5.56,0,0,1-.65.18,2.86,2.86,0,0,1-.7.09,2.35,2.35,0,0,1-1-.18,1.72,1.72,0,0,1-.65-.5,2,2,0,0,1-.35-.76,4.37,4.37,0,0,1-.1-1Z"/><path class="cls-1" d="M73.68,4.2h1.24V8.65a2.68,2.68,0,0,0,.32,1.49,1.2,1.2,0,0,0,1.05.46,1.78,1.78,0,0,0,1-.29,4.88,4.88,0,0,0,1-.94V4.2h1.23v7.29h-1l-.1-1.14h0a5,5,0,0,1-1.07,1,2.43,2.43,0,0,1-1.33.36,2,2,0,0,1-1.7-.72,3.52,3.52,0,0,1-.53-2.13Z"/><path class="cls-1" d="M81.74,4.2h1l.1,1.32h0a3.33,3.33,0,0,1,.91-1.1A1.86,1.86,0,0,1,85,4a1.94,1.94,0,0,1,.78.15l-.24,1.08-.33-.09a2,2,0,0,0-.37,0,1.6,1.6,0,0,0-1,.37A3,3,0,0,0,83,6.81v4.68H81.74Z"/><path class="cls-1" d="M86.62,9.6a2,2,0,0,1,1.07-1.84,8.85,8.85,0,0,1,3.42-.89A3.82,3.82,0,0,0,91,6.19a1.77,1.77,0,0,0-.24-.58,1.43,1.43,0,0,0-.46-.42A1.55,1.55,0,0,0,89.61,5a3,3,0,0,0-1.2.24,6.07,6.07,0,0,0-1,.54L86.94,5a8.33,8.33,0,0,1,1.24-.64A4.25,4.25,0,0,1,89.8,4a2.26,2.26,0,0,1,1.94.81A3.64,3.64,0,0,1,92.34,7v4.47h-1l-.11-.87h0a6.47,6.47,0,0,1-1.13.74,2.88,2.88,0,0,1-1.28.31,2.23,2.23,0,0,1-1.54-.54A1.92,1.92,0,0,1,86.62,9.6Zm1.22-.09a1.05,1.05,0,0,0,.36.9,1.51,1.51,0,0,0,.91.27,2.21,2.21,0,0,0,1-.25,5.23,5.23,0,0,0,1-.73v-2A13,13,0,0,0,89.56,8a3.94,3.94,0,0,0-1,.39,1.39,1.39,0,0,0-.55.52A1.27,1.27,0,0,0,87.84,9.51Z"/><path class="cls-1" d="M94.5.81h1.23v9.3a.64.64,0,0,0,.11.42.31.31,0,0,0,.24.12h.11l.16,0,.16.93a1,1,0,0,1-.28.09,2.42,2.42,0,0,1-.42,0,1.16,1.16,0,0,1-1-.42A2.11,2.11,0,0,1,94.5,10Z"/><path class="cls-1" d="M106.88,11.49l-2.37-4.16h-1.79v4.16h-1.24V1.65h3.07a6.12,6.12,0,0,1,1.39.14,3,3,0,0,1,1.1.47,2.3,2.3,0,0,1,.71.86A2.94,2.94,0,0,1,108,4.41a2.7,2.7,0,0,1-.6,1.84,3.05,3.05,0,0,1-1.6,1l2.49,4.29Zm-4.16-5.18h1.65a2.89,2.89,0,0,0,1.77-.47,1.7,1.7,0,0,0,.62-1.43A1.5,1.5,0,0,0,106.14,3a3.32,3.32,0,0,0-1.77-.39h-1.65Z"/><path class="cls-1" d="M109.31,7.86a4.37,4.37,0,0,1,.28-1.62,3.78,3.78,0,0,1,.73-1.2,3.2,3.2,0,0,1,1.05-.76A2.84,2.84,0,0,1,112.58,4a3.08,3.08,0,0,1,1.24.24,2.4,2.4,0,0,1,.91.69A3.09,3.09,0,0,1,115.3,6a4.76,4.76,0,0,1,.19,1.41,4.22,4.22,0,0,1,0,.67h-4.92a2.93,2.93,0,0,0,.72,1.88,2.26,2.26,0,0,0,1.71.69,2.93,2.93,0,0,0,1-.16,4.44,4.44,0,0,0,.85-.41l.44.81a6.25,6.25,0,0,1-1.07.52,3.67,3.67,0,0,1-1.33.23,3.54,3.54,0,0,1-1.38-.27,3.21,3.21,0,0,1-1.11-.75,3.48,3.48,0,0,1-.74-1.19A4.44,4.44,0,0,1,109.31,7.86Zm5.1-.56a2.75,2.75,0,0,0-.47-1.72A1.63,1.63,0,0,0,112.61,5a1.7,1.7,0,0,0-.74.16,1.87,1.87,0,0,0-.64.45,2.19,2.19,0,0,0-.47.72,3.13,3.13,0,0,0-.25,1Z"/><path class="cls-1" d="M117.12,9.84a5.07,5.07,0,0,0,1,.63,2.67,2.67,0,0,0,1.16.24,1.55,1.55,0,0,0,1.08-.33,1.06,1.06,0,0,0,.36-.81.84.84,0,0,0-.15-.5,1.49,1.49,0,0,0-.38-.37,2.91,2.91,0,0,0-.53-.27l-.6-.24c-.26-.09-.52-.2-.78-.31a3.71,3.71,0,0,1-.7-.42,2.3,2.3,0,0,1-.5-.58,1.52,1.52,0,0,1-.2-.79,1.89,1.89,0,0,1,.18-.82,1.78,1.78,0,0,1,.49-.66,2.42,2.42,0,0,1,.79-.44A3.41,3.41,0,0,1,119.37,4a3.3,3.3,0,0,1,1.27.24,4,4,0,0,1,1,.58l-.58.78a3.89,3.89,0,0,0-.78-.46,2.18,2.18,0,0,0-.89-.18,1.4,1.4,0,0,0-1,.31,1,1,0,0,0-.32.74.74.74,0,0,0,.13.44,1.45,1.45,0,0,0,.36.33,3.14,3.14,0,0,0,.52.25l.61.24.79.31a3.29,3.29,0,0,1,.71.41,2.19,2.19,0,0,1,.52.61,1.8,1.8,0,0,1,.2.87,2,2,0,0,1-.68,1.53,2.45,2.45,0,0,1-.84.47,3.43,3.43,0,0,1-1.15.18,4,4,0,0,1-1.49-.29,4.63,4.63,0,0,1-1.23-.72Z"/><path class="cls-1" d="M123.09,7.86a4.35,4.35,0,0,1,.28-1.63A3.58,3.58,0,0,1,124.11,5a3.15,3.15,0,0,1,1.07-.75A3.28,3.28,0,0,1,126.46,4a3.33,3.33,0,0,1,1.29.25,3.15,3.15,0,0,1,1.07.75,3.58,3.58,0,0,1,.74,1.21,4.35,4.35,0,0,1,.28,1.63,4.32,4.32,0,0,1-.28,1.61,3.63,3.63,0,0,1-.74,1.2,3.26,3.26,0,0,1-1.07.74,3.34,3.34,0,0,1-1.29.26,3.24,3.24,0,0,1-2.35-1,3.63,3.63,0,0,1-.74-1.2A4.32,4.32,0,0,1,123.09,7.86Zm1.27,0A4,4,0,0,0,124.51,9a2.72,2.72,0,0,0,.43.87,1.91,1.91,0,0,0,.67.57,1.76,1.76,0,0,0,.85.21,1.79,1.79,0,0,0,.86-.21,1.91,1.91,0,0,0,.67-.57,2.71,2.71,0,0,0,.42-.87,4,4,0,0,0,.15-1.14,4.11,4.11,0,0,0-.15-1.15,2.82,2.82,0,0,0-.42-.89,1.94,1.94,0,0,0-.67-.58,1.79,1.79,0,0,0-.86-.2,1.75,1.75,0,0,0-.85.2,1.94,1.94,0,0,0-.67.58,2.84,2.84,0,0,0-.43.89A4.11,4.11,0,0,0,124.36,7.86Z"/><path class="cls-1" d="M131.57,4.2h1.24V8.65a2.58,2.58,0,0,0,.33,1.49,1.17,1.17,0,0,0,1,.46,1.78,1.78,0,0,0,1-.29,4.88,4.88,0,0,0,1-.94V4.2h1.23v7.29h-1l-.1-1.14h-.05a4.74,4.74,0,0,1-1.07,1,2.41,2.41,0,0,1-1.33.36,2,2,0,0,1-1.7-.72,3.6,3.6,0,0,1-.53-2.13Z"/><path class="cls-1" d="M139.63,4.2h1l.11,1.32h0a3.33,3.33,0,0,1,.91-1.1,1.86,1.86,0,0,1,1.16-.4,1.94,1.94,0,0,1,.78.15l-.24,1.08-.33-.09a1.9,1.9,0,0,0-.37,0,1.62,1.62,0,0,0-1,.37,3,3,0,0,0-.88,1.31v4.68h-1.23Z"/><path class="cls-1" d="M144.2,7.86a4.35,4.35,0,0,1,.28-1.63A3.64,3.64,0,0,1,145.25,5a3.16,3.16,0,0,1,1.12-.75A3.55,3.55,0,0,1,147.71,4a2.67,2.67,0,0,1,1.24.26,3.88,3.88,0,0,1,.89.61l-.62.79a3.26,3.26,0,0,0-.68-.46,1.7,1.7,0,0,0-.79-.18,2,2,0,0,0-.91.2,2,2,0,0,0-.72.58,2.69,2.69,0,0,0-.47.89,3.47,3.47,0,0,0-.18,1.15A3.69,3.69,0,0,0,145.64,9a2.58,2.58,0,0,0,.46.87,1.87,1.87,0,0,0,.71.57,2,2,0,0,0,.91.21,2.18,2.18,0,0,0,1-.22,3.7,3.7,0,0,0,.75-.52l.56.81a4.07,4.07,0,0,1-1.1.69,3.28,3.28,0,0,1-1.27.26,3.57,3.57,0,0,1-1.35-.26,3.15,3.15,0,0,1-1.09-.74,3.76,3.76,0,0,1-.72-1.2A4.77,4.77,0,0,1,144.2,7.86Z"/><path class="cls-1" d="M150.78,7.86a4.58,4.58,0,0,1,.28-1.62A3.8,3.8,0,0,1,151.8,5a3.07,3.07,0,0,1,1-.76A2.84,2.84,0,0,1,154.05,4a3,3,0,0,1,1.24.24,2.43,2.43,0,0,1,.92.69A3.25,3.25,0,0,1,156.77,6,4.76,4.76,0,0,1,157,7.44a4.22,4.22,0,0,1,0,.67H152a2.89,2.89,0,0,0,.73,1.88,2.22,2.22,0,0,0,1.7.69,3,3,0,0,0,1-.16,4.66,4.66,0,0,0,.84-.41l.44.81a6.25,6.25,0,0,1-1.07.52,3.67,3.67,0,0,1-1.33.23,3.45,3.45,0,0,1-1.37-.27,3,3,0,0,1-1.11-.75,3.36,3.36,0,0,1-.75-1.19A4.44,4.44,0,0,1,150.78,7.86Zm5.1-.56a2.69,2.69,0,0,0-.47-1.72A1.61,1.61,0,0,0,154.08,5a1.73,1.73,0,0,0-.74.16,2,2,0,0,0-.64.45,2.36,2.36,0,0,0-.47.72,3.43,3.43,0,0,0-.25,1Z"/><path class="cls-1" d="M158.59,9.84a5.07,5.07,0,0,0,1,.63,2.72,2.72,0,0,0,1.17.24,1.55,1.55,0,0,0,1.08-.33,1.06,1.06,0,0,0,.36-.81.84.84,0,0,0-.15-.5,1.54,1.54,0,0,0-.39-.37,2.91,2.91,0,0,0-.53-.27l-.6-.24c-.26-.09-.52-.2-.78-.31a3.71,3.71,0,0,1-.7-.42,2.3,2.3,0,0,1-.5-.58,1.52,1.52,0,0,1-.19-.79,1.88,1.88,0,0,1,.17-.82,1.78,1.78,0,0,1,.49-.66,2.42,2.42,0,0,1,.79-.44A3.41,3.41,0,0,1,160.84,4a3.3,3.3,0,0,1,1.27.24,4,4,0,0,1,1,.58l-.59.78a3.89,3.89,0,0,0-.78-.46,2.13,2.13,0,0,0-.88-.18,1.43,1.43,0,0,0-1,.31,1,1,0,0,0-.32.74.74.74,0,0,0,.14.44,1.45,1.45,0,0,0,.36.33,3,3,0,0,0,.51.25l.61.24.79.31a3.29,3.29,0,0,1,.71.41,2.19,2.19,0,0,1,.52.61,1.8,1.8,0,0,1,.2.87,2,2,0,0,1-.68,1.53,2.45,2.45,0,0,1-.84.47,3.43,3.43,0,0,1-1.15.18,3.9,3.9,0,0,1-1.48-.29,4.63,4.63,0,0,1-1.23-.72Z"/><path class="cls-1" d="M167.65,6.57A6.44,6.44,0,0,1,168,4.44a4.76,4.76,0,0,1,.91-1.61,4,4,0,0,1,1.39-1A4.24,4.24,0,0,1,172,1.47a3.25,3.25,0,0,1,1.57.36,4.28,4.28,0,0,1,1.11.85l-.7.8a3.18,3.18,0,0,0-.86-.67,2.32,2.32,0,0,0-1.1-.25,2.83,2.83,0,0,0-1.28.28,2.65,2.65,0,0,0-1,.79,3.55,3.55,0,0,0-.63,1.26,5.31,5.31,0,0,0-.23,1.65,5.77,5.77,0,0,0,.22,1.67,3.93,3.93,0,0,0,.6,1.27,2.67,2.67,0,0,0,1,.81,2.73,2.73,0,0,0,1.27.28,2.65,2.65,0,0,0,1.25-.28,3.91,3.91,0,0,0,1-.81l.71.76a4.41,4.41,0,0,1-1.33,1,3.6,3.6,0,0,1-1.67.38,4.23,4.23,0,0,1-1.72-.35,3.85,3.85,0,0,1-1.37-1,4.77,4.77,0,0,1-.9-1.6A6.84,6.84,0,0,1,167.65,6.57Z"/><path class="cls-1" d="M176,7.86a4.35,4.35,0,0,1,.28-1.63A3.58,3.58,0,0,1,177,5a3.15,3.15,0,0,1,1.07-.75A3.33,3.33,0,0,1,179.38,4a3.28,3.28,0,0,1,1.28.25,3.15,3.15,0,0,1,1.07.75,3.58,3.58,0,0,1,.74,1.21,4.35,4.35,0,0,1,.28,1.63,4.32,4.32,0,0,1-.28,1.61,3.63,3.63,0,0,1-.74,1.2,3.24,3.24,0,0,1-2.35,1,3.34,3.34,0,0,1-1.29-.26,3.26,3.26,0,0,1-1.07-.74,3.63,3.63,0,0,1-.74-1.2A4.32,4.32,0,0,1,176,7.86Zm1.28,0A4,4,0,0,0,177.43,9a2.71,2.71,0,0,0,.42.87,1.91,1.91,0,0,0,.67.57,1.79,1.79,0,0,0,.86.21,1.76,1.76,0,0,0,.85-.21,1.91,1.91,0,0,0,.67-.57,2.72,2.72,0,0,0,.43-.87,4.43,4.43,0,0,0,.15-1.14,4.51,4.51,0,0,0-.15-1.15,2.84,2.84,0,0,0-.43-.89,1.94,1.94,0,0,0-.67-.58,1.75,1.75,0,0,0-.85-.2,1.79,1.79,0,0,0-.86.2,1.94,1.94,0,0,0-.67.58,2.82,2.82,0,0,0-.42.89A4.11,4.11,0,0,0,177.28,7.86Z"/><path class="cls-1" d="M184.56,4.2h1l.1,1h0a5.59,5.59,0,0,1,1.1-.88A2.46,2.46,0,0,1,188.17,4a2,2,0,0,1,1.69.72,3.6,3.6,0,0,1,.53,2.13v4.62h-1.23V7a2.58,2.58,0,0,0-.33-1.49,1.2,1.2,0,0,0-1.05-.46,1.78,1.78,0,0,0-1,.29,6.52,6.52,0,0,0-1,.84v5.28h-1.23Z"/><path class="cls-1" d="M192.46,9.84a5.07,5.07,0,0,0,1,.63,2.72,2.72,0,0,0,1.17.24,1.55,1.55,0,0,0,1.08-.33,1.06,1.06,0,0,0,.36-.81.84.84,0,0,0-.15-.5,1.54,1.54,0,0,0-.39-.37,2.91,2.91,0,0,0-.53-.27l-.6-.24c-.26-.09-.52-.2-.78-.31a3.71,3.71,0,0,1-.7-.42,2.3,2.3,0,0,1-.5-.58,1.52,1.52,0,0,1-.19-.79,1.88,1.88,0,0,1,.17-.82,1.78,1.78,0,0,1,.49-.66,2.42,2.42,0,0,1,.79-.44A3.41,3.41,0,0,1,194.71,4a3.3,3.3,0,0,1,1.27.24,4,4,0,0,1,1,.58l-.59.78a3.89,3.89,0,0,0-.78-.46,2.13,2.13,0,0,0-.88-.18,1.43,1.43,0,0,0-1,.31,1,1,0,0,0-.32.74.74.74,0,0,0,.14.44,1.45,1.45,0,0,0,.36.33,3,3,0,0,0,.51.25l.61.24.79.31a3.29,3.29,0,0,1,.71.41,2.19,2.19,0,0,1,.52.61,1.8,1.8,0,0,1,.2.87,2,2,0,0,1-.68,1.53,2.45,2.45,0,0,1-.84.47,3.43,3.43,0,0,1-1.15.18,3.9,3.9,0,0,1-1.48-.29,4.63,4.63,0,0,1-1.23-.72Z"/><path class="cls-1" d="M198.43,7.86a4.58,4.58,0,0,1,.28-1.62,3.8,3.8,0,0,1,.74-1.2,3.07,3.07,0,0,1,1-.76A2.84,2.84,0,0,1,201.7,4a3,3,0,0,1,1.24.24,2.43,2.43,0,0,1,.92.69A3.25,3.25,0,0,1,204.42,6a4.76,4.76,0,0,1,.19,1.41,4.22,4.22,0,0,1,0,.67h-4.92a2.89,2.89,0,0,0,.73,1.88,2.22,2.22,0,0,0,1.7.69,3,3,0,0,0,1-.16,4.66,4.66,0,0,0,.84-.41l.44.81a6.25,6.25,0,0,1-1.07.52,3.67,3.67,0,0,1-1.33.23,3.45,3.45,0,0,1-1.37-.27,3,3,0,0,1-1.11-.75,3.36,3.36,0,0,1-.75-1.19A4.44,4.44,0,0,1,198.43,7.86Zm5.1-.56a2.69,2.69,0,0,0-.47-1.72A1.61,1.61,0,0,0,201.73,5a1.73,1.73,0,0,0-.74.16,1.87,1.87,0,0,0-.64.45,2.19,2.19,0,0,0-.47.72,3.13,3.13,0,0,0-.25,1Z"/><path class="cls-1" d="M206.36,4.2h1l.11,1.32h0a3.33,3.33,0,0,1,.91-1.1A1.86,1.86,0,0,1,209.6,4a1.94,1.94,0,0,1,.78.15l-.24,1.08-.33-.09a1.9,1.9,0,0,0-.37,0,1.62,1.62,0,0,0-1,.37,3,3,0,0,0-.88,1.31v4.68h-1.23Z"/><path class="cls-1" d="M211.13,4.2h1.27l1.38,4.14c.11.36.22.72.34,1.08s.22.71.34,1.06h0c.12-.35.23-.7.33-1.06s.22-.72.33-1.08l1.38-4.14h1.22l-2.58,7.29h-1.44Z"/><path class="cls-1" d="M218.71,9.6a2,2,0,0,1,1.08-1.84,8.74,8.74,0,0,1,3.41-.89,3.08,3.08,0,0,0-.07-.68,1.43,1.43,0,0,0-.24-.58,1.25,1.25,0,0,0-.46-.42A1.52,1.52,0,0,0,221.7,5a2.91,2.91,0,0,0-1.19.24,5.32,5.32,0,0,0-1,.54L219,5a8.48,8.48,0,0,1,1.25-.64,4.16,4.16,0,0,1,1.61-.3,2.25,2.25,0,0,1,1.94.81,3.64,3.64,0,0,1,.6,2.19v4.47h-1l-.11-.87h0a6.55,6.55,0,0,1-1.14.74,2.84,2.84,0,0,1-1.28.31,2.24,2.24,0,0,1-1.54-.54A2,2,0,0,1,218.71,9.6Zm1.22-.09a1,1,0,0,0,.37.9,1.47,1.47,0,0,0,.91.27,2.17,2.17,0,0,0,1-.25,4.94,4.94,0,0,0,1-.73v-2a12.77,12.77,0,0,0-1.54.28,4.19,4.19,0,0,0-1,.39,1.54,1.54,0,0,0-.55.52A1.27,1.27,0,0,0,219.93,9.51Z"/><path class="cls-1" d="M226.79,5.2h-1.08V4.27l1.13-.07.16-2h1v2h2v1h-2V9.25a1.8,1.8,0,0,0,.25,1,1,1,0,0,0,.88.37,1.7,1.7,0,0,0,.42-.06,3.76,3.76,0,0,0,.4-.13l.24.93a5.56,5.56,0,0,1-.65.18,2.86,2.86,0,0,1-.7.09,2.35,2.35,0,0,1-1-.18,1.72,1.72,0,0,1-.65-.5,2,2,0,0,1-.35-.76,4.37,4.37,0,0,1-.1-1Z"/><path class="cls-1" d="M232.24,2.7a.89.89,0,0,1-.61-.23.76.76,0,0,1-.25-.57.76.76,0,0,1,.25-.58,1,1,0,0,1,1.22,0,.75.75,0,0,1,.24.58.75.75,0,0,1-.24.57A.89.89,0,0,1,232.24,2.7Zm-.63,1.5h1.23v7.29h-1.23Z"/><path class="cls-1" d="M234.63,7.86a4.56,4.56,0,0,1,.28-1.63A3.74,3.74,0,0,1,235.65,5a3.09,3.09,0,0,1,1.08-.75,3.4,3.4,0,0,1,2.56,0,3.06,3.06,0,0,1,1.07.75,3.76,3.76,0,0,1,.75,1.21,4.57,4.57,0,0,1,.27,1.63,4.53,4.53,0,0,1-.27,1.61,3.82,3.82,0,0,1-.75,1.2,3.16,3.16,0,0,1-1.07.74,3.28,3.28,0,0,1-2.56,0,3.2,3.2,0,0,1-1.08-.74,3.8,3.8,0,0,1-.74-1.2A4.53,4.53,0,0,1,234.63,7.86Zm1.28,0A4,4,0,0,0,236.06,9a2.53,2.53,0,0,0,.43.87,1.88,1.88,0,0,0,1.52.78,1.76,1.76,0,0,0,.85-.21,1.83,1.83,0,0,0,.67-.57A2.53,2.53,0,0,0,240,9a4,4,0,0,0,.15-1.14A4.11,4.11,0,0,0,240,6.71a2.63,2.63,0,0,0-.43-.89,1.86,1.86,0,0,0-.67-.58A1.75,1.75,0,0,0,238,5a1.79,1.79,0,0,0-.86.2,1.83,1.83,0,0,0-.66.58,2.63,2.63,0,0,0-.43.89A4.11,4.11,0,0,0,235.91,7.86Z"/><path class="cls-1" d="M243.19,4.2h1l.11,1h0a5.9,5.9,0,0,1,1.1-.88A2.52,2.52,0,0,1,246.81,4a1.94,1.94,0,0,1,1.68.72A3.52,3.52,0,0,1,249,6.87v4.62H247.8V7a2.58,2.58,0,0,0-.34-1.49,1.17,1.17,0,0,0-1-.46,1.81,1.81,0,0,0-1,.29,6.52,6.52,0,0,0-1,.84v5.28h-1.23Z"/><path class="cls-1" d="M254.58,9.34a3.92,3.92,0,0,0,1.23.89,3.37,3.37,0,0,0,1.48.34,2.32,2.32,0,0,0,1.51-.44A1.4,1.4,0,0,0,259.34,9a1.52,1.52,0,0,0-.12-.64,1.3,1.3,0,0,0-.35-.45,2.38,2.38,0,0,0-.51-.34l-.65-.31-1.41-.62a7.93,7.93,0,0,1-.71-.36,3.12,3.12,0,0,1-.64-.51,2.48,2.48,0,0,1-.46-.71,2.37,2.37,0,0,1-.19-1,2.3,2.3,0,0,1,.24-1,2.47,2.47,0,0,1,.64-.83,2.93,2.93,0,0,1,1-.55,3.75,3.75,0,0,1,1.24-.19A4,4,0,0,1,259,1.8a4.05,4.05,0,0,1,1.27.88l-.67.81a3.35,3.35,0,0,0-1-.68,2.88,2.88,0,0,0-1.23-.25,2.14,2.14,0,0,0-1.33.38,1.25,1.25,0,0,0-.5,1.06,1.17,1.17,0,0,0,.14.61,1.4,1.4,0,0,0,.38.43,2.37,2.37,0,0,0,.53.33,5.14,5.14,0,0,0,.58.27l1.39.6a5,5,0,0,1,.8.41,2.64,2.64,0,0,1,.65.54,2.32,2.32,0,0,1,.42.72,2.52,2.52,0,0,1,.16.95,2.71,2.71,0,0,1-.23,1.1,2.75,2.75,0,0,1-.67.89,3.35,3.35,0,0,1-1.05.6,4.27,4.27,0,0,1-1.39.22,4.71,4.71,0,0,1-1.92-.39,4.54,4.54,0,0,1-1.53-1.07Z"/><path class="cls-1" d="M262,7.86a4.37,4.37,0,0,1,.28-1.62A3.78,3.78,0,0,1,263,5a3.17,3.17,0,0,1,1-.76A2.88,2.88,0,0,1,265.23,4a3.08,3.08,0,0,1,1.24.24,2.4,2.4,0,0,1,.91.69A3.08,3.08,0,0,1,267.94,6a4.75,4.75,0,0,1,.2,1.41,4.08,4.08,0,0,1-.05.67h-4.92A2.94,2.94,0,0,0,263.9,10a2.24,2.24,0,0,0,1.7.69,3,3,0,0,0,1-.16,4.44,4.44,0,0,0,.85-.41l.43.81a6.15,6.15,0,0,1-1.06.52,3.73,3.73,0,0,1-1.34.23,3.49,3.49,0,0,1-1.37-.27,3.21,3.21,0,0,1-1.11-.75,3.48,3.48,0,0,1-.74-1.19A4.44,4.44,0,0,1,262,7.86Zm5.1-.56a2.75,2.75,0,0,0-.47-1.72A1.63,1.63,0,0,0,265.26,5a1.7,1.7,0,0,0-.74.16,1.87,1.87,0,0,0-.64.45,2.19,2.19,0,0,0-.47.72,3.13,3.13,0,0,0-.25,1Z"/><path class="cls-1" d="M269.89,4.2h1l.1,1.32h.05a3.44,3.44,0,0,1,.9-1.1,1.9,1.9,0,0,1,1.17-.4,1.94,1.94,0,0,1,.78.15l-.24,1.08-.33-.09a2,2,0,0,0-.38,0,1.64,1.64,0,0,0-1,.37,3,3,0,0,0-.87,1.31v4.68h-1.23Z"/><path class="cls-1" d="M274.65,4.2h1.28l1.38,4.14.33,1.08c.12.36.23.71.34,1.06H278l.33-1.06.33-1.08,1.38-4.14h1.22l-2.58,7.29h-1.44Z"/><path class="cls-1" d="M283.3,2.7a.89.89,0,0,1-.61-.23.76.76,0,0,1-.25-.57.76.76,0,0,1,.25-.58,1,1,0,0,1,1.22,0,.75.75,0,0,1,.24.58.75.75,0,0,1-.24.57A.89.89,0,0,1,283.3,2.7Zm-.63,1.5h1.23v7.29h-1.23Z"/><path class="cls-1" d="M285.7,7.86A4.35,4.35,0,0,1,286,6.23,3.49,3.49,0,0,1,286.75,5a3.21,3.21,0,0,1,1.11-.75A3.63,3.63,0,0,1,289.21,4a2.6,2.6,0,0,1,1.23.26,3.74,3.74,0,0,1,.9.61l-.62.79a3.54,3.54,0,0,0-.68-.46,1.73,1.73,0,0,0-.79-.18,2,2,0,0,0-.91.2,1.93,1.93,0,0,0-.72.58,2.91,2.91,0,0,0-.48.89A3.75,3.75,0,0,0,287,7.86,4,4,0,0,0,287.13,9a3,3,0,0,0,.46.87,2,2,0,0,0,.71.57,2.07,2.07,0,0,0,.92.21,2.11,2.11,0,0,0,.95-.22,3.51,3.51,0,0,0,.76-.52l.56.81a4,4,0,0,1-1.11.69,3.23,3.23,0,0,1-1.26.26,3.62,3.62,0,0,1-1.36-.26,3,3,0,0,1-1.08-.74,3.43,3.43,0,0,1-.72-1.2A4.53,4.53,0,0,1,285.7,7.86Z"/><path class="cls-1" d="M292.28,7.86a4.37,4.37,0,0,1,.28-1.62,3.78,3.78,0,0,1,.73-1.2,3.1,3.1,0,0,1,1-.76A2.8,2.8,0,0,1,295.55,4a3.08,3.08,0,0,1,1.24.24,2.4,2.4,0,0,1,.91.69A3.08,3.08,0,0,1,298.26,6a4.75,4.75,0,0,1,.2,1.41,5.88,5.88,0,0,1,0,.67h-4.93a3,3,0,0,0,.73,1.88,2.24,2.24,0,0,0,1.7.69,3,3,0,0,0,1-.16,4.44,4.44,0,0,0,.85-.41l.43.81a6.15,6.15,0,0,1-1.06.52,3.73,3.73,0,0,1-1.34.23,3.49,3.49,0,0,1-1.37-.27,3.21,3.21,0,0,1-1.11-.75,3.48,3.48,0,0,1-.74-1.19A4.44,4.44,0,0,1,292.28,7.86Zm5.1-.56a2.75,2.75,0,0,0-.47-1.72A1.63,1.63,0,0,0,295.58,5a1.7,1.7,0,0,0-.74.16,1.87,1.87,0,0,0-.64.45,2.19,2.19,0,0,0-.47.72,3.13,3.13,0,0,0-.25,1Z"/><path class="cls-1" d="M51.36,18.89h.75v3.49a2.88,2.88,0,0,0,.11.89,1.52,1.52,0,0,0,.29.57,1,1,0,0,0,.43.31,1.4,1.4,0,0,0,.54.1,1.38,1.38,0,0,0,.55-.1,1,1,0,0,0,.44-.31,1.4,1.4,0,0,0,.3-.57,3.22,3.22,0,0,0,.11-.89V18.89h.72v3.47a3.83,3.83,0,0,1-.16,1.2,2.11,2.11,0,0,1-.45.78,1.67,1.67,0,0,1-.67.44,2.78,2.78,0,0,1-1.68,0,1.67,1.67,0,0,1-.67-.44,2.11,2.11,0,0,1-.45-.78,3.83,3.83,0,0,1-.16-1.2Z"/><path class="cls-1" d="M56.83,24.35a.57.57,0,0,1,.16-.42.49.49,0,0,1,.38-.16.51.51,0,0,1,.38.16.64.64,0,0,1,0,.82.55.55,0,0,1-.38.16.53.53,0,0,1-.38-.16A.58.58,0,0,1,56.83,24.35Z"/><path class="cls-1" d="M59.32,23.51a2.52,2.52,0,0,0,.74.54,2.1,2.1,0,0,0,.89.2,1.34,1.34,0,0,0,.9-.27.84.84,0,0,0,.33-.69.93.93,0,0,0-.08-.39,1.05,1.05,0,0,0-.2-.27,2,2,0,0,0-.32-.2l-.38-.19-.85-.37-.42-.21a2,2,0,0,1-.39-.31,1.45,1.45,0,0,1-.28-.43,1.41,1.41,0,0,1-.11-.57,1.44,1.44,0,0,1,.14-.62,1.73,1.73,0,0,1,.39-.5,1.88,1.88,0,0,1,.59-.33,2.45,2.45,0,0,1,.74-.11,2.29,2.29,0,0,1,1,.2,2.44,2.44,0,0,1,.76.52l-.4.49a2.21,2.21,0,0,0-.6-.41,1.78,1.78,0,0,0-.74-.15,1.31,1.31,0,0,0-.8.23.77.77,0,0,0-.3.64.69.69,0,0,0,.09.36.71.71,0,0,0,.23.26,1.65,1.65,0,0,0,.31.2l.35.16.84.36a2.73,2.73,0,0,1,.48.25,1.7,1.7,0,0,1,.38.32,1.34,1.34,0,0,1,.26.43,1.7,1.7,0,0,1,.09.57,1.45,1.45,0,0,1-.14.66,1.58,1.58,0,0,1-.4.54,1.93,1.93,0,0,1-.63.36,2.63,2.63,0,0,1-.83.13,2.8,2.8,0,0,1-1.16-.24,2.68,2.68,0,0,1-.91-.64Z"/><path class="cls-1" d="M63.88,24.35a.54.54,0,0,1,.16-.42.49.49,0,0,1,.38-.16.49.49,0,0,1,.37.16.61.61,0,0,1,0,.82.52.52,0,0,1-.37.16.53.53,0,0,1-.38-.16A.54.54,0,0,1,63.88,24.35Z"/><path class="cls-1" d="M68.16,18.89h1.48a2.75,2.75,0,0,1,2.08.76,3.07,3.07,0,0,1,.71,2.17,4,4,0,0,1-.18,1.25,2.53,2.53,0,0,1-.53.94,2.32,2.32,0,0,1-.87.59,3.26,3.26,0,0,1-1.17.2H68.16Zm1.43,5.3a1.89,1.89,0,0,0,1.55-.63,2.66,2.66,0,0,0,.52-1.74,2.58,2.58,0,0,0-.52-1.72,1.94,1.94,0,0,0-1.55-.59h-.68v4.68Z"/><path class="cls-1" d="M73.7,18.89h3.4v.63H74.45v1.86h2.24V22H74.45v2.14h2.74v.64H73.7Z"/><path class="cls-1" d="M78.44,18.89h1.81a4.13,4.13,0,0,1,.89.09,1.81,1.81,0,0,1,.69.3,1.27,1.27,0,0,1,.44.53,2.16,2.16,0,0,1,0,1.63,1.46,1.46,0,0,1-.44.57,2.22,2.22,0,0,1-.69.34,3.56,3.56,0,0,1-.89.11H79.19V24.8h-.75Zm1.72,3a1.82,1.82,0,0,0,1.15-.3,1.08,1.08,0,0,0,.37-.92,1,1,0,0,0-.38-.89,2.15,2.15,0,0,0-1.14-.24h-1v2.35Z"/><path class="cls-1" d="M85.88,23H83.73l-.56,1.8H82.4l2-5.91h.85l2,5.91h-.8Zm-.19-.61-.27-.89c-.11-.33-.21-.66-.31-1s-.19-.66-.29-1h0c-.09.34-.19.67-.28,1s-.2.66-.31,1l-.28.89Z"/><path class="cls-1" d="M91.32,24.8,89.9,22.3H88.83v2.5h-.75V18.89h1.84a3.67,3.67,0,0,1,.84.09,1.83,1.83,0,0,1,.65.28,1.28,1.28,0,0,1,.43.52,1.76,1.76,0,0,1,.16.77,1.65,1.65,0,0,1-.36,1.11,1.88,1.88,0,0,1-1,.56l1.5,2.58Zm-2.49-3.11h1a1.71,1.71,0,0,0,1.06-.28,1,1,0,0,0,.37-.86.89.89,0,0,0-.37-.82,2.06,2.06,0,0,0-1.06-.23h-1Z"/><path class="cls-1" d="M94.35,19.52H92.57v-.63h4.32v.63H95.11V24.8h-.76Z"/><path class="cls-1" d="M98,18.89h.89L100,22.06l.43,1.21h0l.41-1.21L102,18.89h.89V24.8h-.71V21.55c0-.26,0-.56,0-.87s0-.61.06-.88h0l-.48,1.32-1.13,3.08h-.43l-1.14-3.08-.47-1.32h0c0,.27,0,.56.06.88s0,.61,0,.87V24.8H98Z"/><path class="cls-1" d="M104.5,18.89h3.4v.63h-2.66v1.86h2.24V22h-2.24v2.14H108v.64H104.5Z"/><path class="cls-1" d="M109.24,18.89H110l2.14,3.71.63,1.23h0c0-.3,0-.61-.06-.94s0-.63,0-.94V18.89h.71V24.8h-.77l-2.14-3.72-.64-1.21h0c0,.3.05.6.07.91s0,.62,0,.93V24.8h-.71Z"/><path class="cls-1" d="M116.29,19.52H114.5v-.63h4.32v.63H117V24.8h-.75Z"/><path class="cls-1" d="M123.88,24.91a2.45,2.45,0,0,1-1-.22,2.28,2.28,0,0,1-.8-.62,2.8,2.8,0,0,1-.51-1,4,4,0,0,1-.19-1.28,3.91,3.91,0,0,1,.19-1.28,2.79,2.79,0,0,1,.51-.95,2.34,2.34,0,0,1,.8-.6,2.64,2.64,0,0,1,2,0,2.25,2.25,0,0,1,.8.6,2.82,2.82,0,0,1,.53.95,4.19,4.19,0,0,1,.18,1.27,4.26,4.26,0,0,1-.18,1.28,2.83,2.83,0,0,1-.53,1,2.19,2.19,0,0,1-.8.62A2.45,2.45,0,0,1,123.88,24.91Zm0-.66a1.56,1.56,0,0,0,.72-.17,1.82,1.82,0,0,0,.55-.49,2.48,2.48,0,0,0,.35-.77,3.41,3.41,0,0,0,.13-1,3.35,3.35,0,0,0-.13-1,2.36,2.36,0,0,0-.35-.75,1.75,1.75,0,0,0-.55-.47,1.56,1.56,0,0,0-.72-.17,1.52,1.52,0,0,0-.71.17,1.55,1.55,0,0,0-.55.47,2.38,2.38,0,0,0-.36.75,3.73,3.73,0,0,0-.12,1,3.81,3.81,0,0,0,.12,1,2.49,2.49,0,0,0,.36.77,1.61,1.61,0,0,0,.55.49A1.52,1.52,0,0,0,123.88,24.25Z"/><path class="cls-1" d="M127.68,18.89h3.4v.63h-2.65v2h2.25v.63h-2.25V24.8h-.75Z"/><path class="cls-1" d="M136.64,23h-2.15l-.57,1.8h-.76l2-5.91H136l2,5.91h-.8Zm-.19-.61-.28-.89c-.1-.33-.21-.66-.3-1s-.19-.66-.29-1h0c-.09.34-.19.67-.28,1s-.2.66-.31,1l-.28.89Z"/><path class="cls-1" d="M138.41,21.85a3.66,3.66,0,0,1,.2-1.28,2.83,2.83,0,0,1,.57-1A2.47,2.47,0,0,1,140,19a2.75,2.75,0,0,1,1.09-.21,2,2,0,0,1,1,.23,3,3,0,0,1,.67.49l-.43.48a2.46,2.46,0,0,0-.51-.39,1.67,1.67,0,0,0-.75-.16,1.92,1.92,0,0,0-.81.17,1.67,1.67,0,0,0-.61.48,2.05,2.05,0,0,0-.39.75,3.33,3.33,0,0,0-.14,1,3.46,3.46,0,0,0,.13,1,2.17,2.17,0,0,0,.38.76,1.72,1.72,0,0,0,.61.49,2.07,2.07,0,0,0,.84.17,1.72,1.72,0,0,0,.6-.1,1.24,1.24,0,0,0,.47-.25V22.36H141v-.62h1.94v2.48a2.22,2.22,0,0,1-.76.49,2.79,2.79,0,0,1-1.07.2A2.69,2.69,0,0,1,140,24.7a2.49,2.49,0,0,1-.84-.6,2.79,2.79,0,0,1-.54-1A3.72,3.72,0,0,1,138.41,21.85Z"/><path class="cls-1" d="M147.54,24.8l-1.42-2.5h-1.07v2.5h-.75V18.89h1.85A3.64,3.64,0,0,1,147,19a2,2,0,0,1,.66.28,1.34,1.34,0,0,1,.42.52,1.63,1.63,0,0,1,.16.77,1.65,1.65,0,0,1-.36,1.11,1.84,1.84,0,0,1-1,.56l1.5,2.58Zm-2.49-3.11h1a1.71,1.71,0,0,0,1.06-.28,1,1,0,0,0,.37-.86.89.89,0,0,0-.37-.82A2.06,2.06,0,0,0,146,19.5h-1Z"/><path class="cls-1" d="M149.53,18.89h.75V24.8h-.75Z"/><path class="cls-1" d="M151.56,21.85a3.91,3.91,0,0,1,.19-1.28,3.15,3.15,0,0,1,.55-1,2.45,2.45,0,0,1,.83-.6,2.66,2.66,0,0,1,1.05-.21,1.93,1.93,0,0,1,.95.22,2.5,2.5,0,0,1,.67.5l-.43.48a1.81,1.81,0,0,0-.52-.4,1.37,1.37,0,0,0-.66-.15,1.73,1.73,0,0,0-.76.17,1.61,1.61,0,0,0-.59.48,2.2,2.2,0,0,0-.38.75,3.71,3.71,0,0,0-.13,1,3.46,3.46,0,0,0,.13,1,2.55,2.55,0,0,0,.36.76,1.61,1.61,0,0,0,1.34.66,1.63,1.63,0,0,0,.75-.17,2.68,2.68,0,0,0,.61-.49l.42.46a2.62,2.62,0,0,1-.79.63,2.21,2.21,0,0,1-1,.23,2.5,2.5,0,0,1-1-.21,2.32,2.32,0,0,1-.82-.6,2.79,2.79,0,0,1-.54-1A4,4,0,0,1,151.56,21.85Z"/><path class="cls-1" d="M156.88,18.89h.75v3.49a3.22,3.22,0,0,0,.11.89,1.52,1.52,0,0,0,.29.57,1,1,0,0,0,.44.31,1.4,1.4,0,0,0,.54.1,1.42,1.42,0,0,0,.55-.1,1.08,1.08,0,0,0,.44-.31,1.69,1.69,0,0,0,.3-.57,3.26,3.26,0,0,0,.1-.89V18.89h.72v3.47a3.83,3.83,0,0,1-.16,1.2,2.24,2.24,0,0,1-.44.78,1.7,1.7,0,0,1-.68.44,2.72,2.72,0,0,1-.83.13,2.84,2.84,0,0,1-.84-.13,1.7,1.7,0,0,1-.68-.44,2,2,0,0,1-.44-.78,3.81,3.81,0,0,1-.17-1.2Z"/><path class="cls-1" d="M162.72,18.89h.74v5.27h2.59v.64h-3.33Z"/><path class="cls-1" d="M167.23,19.52h-1.78v-.63h4.32v.63H168V24.8h-.76Z"/><path class="cls-1" d="M170.81,18.89h.74v3.49a3.22,3.22,0,0,0,.11.89,1.52,1.52,0,0,0,.29.57,1,1,0,0,0,.44.31,1.4,1.4,0,0,0,.54.1,1.42,1.42,0,0,0,.55-.1,1,1,0,0,0,.44-.31,1.4,1.4,0,0,0,.3-.57,3.22,3.22,0,0,0,.11-.89V18.89h.72v3.47a3.81,3.81,0,0,1-.17,1.2,2,2,0,0,1-.44.78,1.67,1.67,0,0,1-.67.44,2.78,2.78,0,0,1-1.68,0,1.7,1.7,0,0,1-.68-.44,2.24,2.24,0,0,1-.44-.78,3.83,3.83,0,0,1-.16-1.2Z"/><path class="cls-1" d="M179.88,24.8l-1.42-2.5h-1.07v2.5h-.75V18.89h1.84a3.73,3.73,0,0,1,.84.09,1.83,1.83,0,0,1,.65.28,1.28,1.28,0,0,1,.43.52,1.76,1.76,0,0,1,.15.77,1.65,1.65,0,0,1-.36,1.11,1.85,1.85,0,0,1-1,.56l1.49,2.58Zm-2.49-3.11h1a1.71,1.71,0,0,0,1.06-.28,1,1,0,0,0,.37-.86.91.91,0,0,0-.37-.82,2.06,2.06,0,0,0-1.06-.23h-1Z"/><path class="cls-1" d="M181.87,18.89h3.4v.63h-2.66v1.86h2.25V22h-2.25v2.14h2.75v.64h-3.49Z"/><path class="cls-1" d="M9.39,1.15,9.34,8.29c0,3-1.77,4.12-4.14,4.12-2,0-4.64-.91-4.64-4V1.15A.88.88,0,0,0,0,.37H3.35a.86.86,0,0,0-.54.78V8.47c0,1.22.42,2.94,2.69,2.94,2.07,0,2.82-1.36,2.82-3.08l0-7.18A.84.84,0,0,0,7.82.37h2a.82.82,0,0,0-.45.78"/><path class="cls-1" d="M14.12,12.41a7.35,7.35,0,0,1-3.35-.84l-.09-3c.33,1.24,1.38,2.88,3.19,2.88a2.05,2.05,0,0,0,2.25-2.09c0-1.68-1.51-1.9-3.1-2.76s-2.31-1.83-2.31-3.16c0-2.37,2.22-3.31,3.81-3.31a5.63,5.63,0,0,1,2.63.64l.09,2.58a3.14,3.14,0,0,0-2.91-2.32,1.69,1.69,0,0,0-1.85,1.68c0,1.06.75,1.46,2.39,2.21s3.31,1.35,3.31,3.77a3.84,3.84,0,0,1-4.06,3.67"/><path class="cls-1" d="M23.82,12.23H19.33a.85.85,0,0,0,.46-.78V1.15a.81.81,0,0,0-.46-.78H24c5.74,0,6.89,4.06,6.89,5.76,0,3-2.34,6.1-7,6.1m-.21-11c-.42,0-1.34,0-1.61,0V11.33h1.4c4,0,5-2.66,5-5.2a4.62,4.62,0,0,0-4.83-4.89"/><path class="cls-1" d="M37.65,12.23c.46-.24.55-.48.42-.85,0-.18-.5-1.24-1-2.43H32.8a24.88,24.88,0,0,0-1,2.41c-.16.42-.07.66.4.87H29.82a2.09,2.09,0,0,0,.82-.85C31,10.72,35.56,0,35.56,0s4.64,10.72,5,11.38a1.47,1.47,0,0,0,.87.85ZM34.9,3.77s-1.19,3-1.75,4.28h3.53c-.82-1.94-1.78-4.28-1.78-4.28"/><path class="cls-1" d="M40.87,13.91S15.47,13.28.43,21.3c0,0,15.94-6.31,40.44-5.68Z"/><path class="cls-1" d="M.43,13.91S9,14,14.3,16c0,0-10.9-.9-13.87-.45Z"/><path class="cls-1" d="M.43,16.7a90.6,90.6,0,0,1,9.81.09S1.33,17.87.43,18.32Z"/><path class="cls-1" d="M36.66,17h-.13c-7.39.14-22.88,1-36.1,5.7v5.63H40.87V17s-1.57-.05-4.21,0"/></g></g></svg>