<?xml version="1.0" encoding="UTF-8"?><svg id="Layer_1" xmlns="http://www.w3.org/2000/svg" viewBox="0 0 490 85"><g><path d="M83.05,14.12v-4.22h18.72v4.22h-6.85v18.62h-5.02V14.12h-6.85Z" fill="#fff"/><path d="M108.46,9.9v8.61h.1c.58-.96,1.31-1.66,2.21-2.1,.9-.44,1.77-.66,2.62-.66,1.22,0,2.21,.17,2.99,.5,.78,.33,1.39,.79,1.84,1.38,.45,.59,.76,1.3,.94,2.14,.18,.84,.27,1.78,.27,2.8v10.18h-4.54v-9.34c0-1.36-.21-2.38-.64-3.06s-1.18-1.01-2.27-1.01c-1.24,0-2.13,.37-2.69,1.1-.56,.74-.83,1.95-.83,3.63v8.67h-4.54V9.9h4.54Z" fill="#fff"/><path d="M127.75,28.78c.68,.66,1.66,.99,2.94,.99,.92,0,1.71-.23,2.37-.69,.66-.46,1.07-.94,1.22-1.46h4c-.64,1.98-1.62,3.4-2.94,4.26s-2.92,1.28-4.8,1.28c-1.3,0-2.48-.21-3.52-.62-1.05-.42-1.93-1.01-2.66-1.78-.73-.77-1.29-1.69-1.68-2.75-.4-1.07-.59-2.24-.59-3.52s.2-2.39,.61-3.46c.4-1.07,.98-1.99,1.73-2.77,.75-.78,1.64-1.39,2.67-1.84,1.03-.45,2.18-.67,3.44-.67,1.41,0,2.63,.27,3.68,.82,1.04,.54,1.9,1.27,2.58,2.19,.67,.92,1.16,1.96,1.46,3.14,.3,1.17,.41,2.4,.32,3.68h-11.94c.06,1.47,.44,2.54,1.12,3.2Zm5.14-8.7c-.54-.6-1.37-.9-2.48-.9-.73,0-1.33,.12-1.81,.37-.48,.25-.86,.55-1.15,.91-.29,.36-.49,.75-.61,1.15-.12,.41-.19,.77-.21,1.09h7.39c-.21-1.15-.59-2.03-1.14-2.62Z" fill="#fff"/><path d="M155.66,9.9V28.52h11.14v4.22h-16.16V9.9h5.02Z" fill="#fff"/><path d="M169.26,13.64v-3.74h4.54v3.74h-4.54Zm4.54,2.56v16.54h-4.54V16.2h4.54Z" fill="#fff"/><path d="M186.47,16.2v3.04h-3.33v8.19c0,.77,.13,1.28,.38,1.54,.26,.26,.77,.38,1.54,.38,.26,0,.5-.01,.74-.03,.23-.02,.46-.05,.67-.1v3.52c-.38,.06-.81,.11-1.28,.13-.47,.02-.93,.03-1.38,.03-.7,0-1.37-.05-2-.14-.63-.1-1.18-.28-1.66-.56-.48-.28-.86-.67-1.14-1.18s-.42-1.18-.42-2.02v-9.76h-2.75v-3.04h2.75v-4.96h4.54v4.96h3.33Z" fill="#fff"/><path d="M193.51,28.78c.68,.66,1.66,.99,2.94,.99,.92,0,1.71-.23,2.37-.69,.66-.46,1.07-.94,1.22-1.46h4c-.64,1.98-1.62,3.4-2.94,4.26s-2.92,1.28-4.8,1.28c-1.3,0-2.48-.21-3.52-.62-1.05-.42-1.93-1.01-2.66-1.78-.73-.77-1.29-1.69-1.68-2.75-.4-1.07-.59-2.24-.59-3.52s.2-2.39,.61-3.46c.4-1.07,.98-1.99,1.73-2.77,.75-.78,1.64-1.39,2.67-1.84,1.03-.45,2.18-.67,3.44-.67,1.41,0,2.63,.27,3.68,.82,1.04,.54,1.9,1.27,2.58,2.19,.67,.92,1.16,1.96,1.46,3.14,.3,1.17,.41,2.4,.32,3.68h-11.94c.06,1.47,.44,2.54,1.12,3.2Zm5.14-8.7c-.54-.6-1.37-.9-2.48-.9-.73,0-1.33,.12-1.81,.37-.48,.25-.86,.55-1.15,.91-.29,.36-.49,.75-.61,1.15-.12,.41-.19,.77-.21,1.09h7.39c-.21-1.15-.59-2.03-1.14-2.62Z" fill="#fff"/><path d="M211.34,16.2v3.07h.06c.21-.51,.5-.99,.86-1.42,.36-.44,.78-.81,1.25-1.12,.47-.31,.97-.55,1.5-.72,.53-.17,1.09-.26,1.66-.26,.3,0,.63,.05,.99,.16v4.22c-.21-.04-.47-.08-.77-.11-.3-.03-.59-.05-.86-.05-.83,0-1.54,.14-2.11,.42-.58,.28-1.04,.66-1.39,1.14s-.6,1.04-.75,1.68c-.15,.64-.22,1.33-.22,2.08v7.46h-4.54V16.2h4.32Z" fill="#fff"/><path d="M219.27,21.29c.06-1.07,.33-1.95,.8-2.66,.47-.7,1.07-1.27,1.79-1.7,.73-.43,1.54-.73,2.45-.91,.91-.18,1.82-.27,2.74-.27,.83,0,1.67,.06,2.53,.18,.85,.12,1.63,.35,2.34,.69,.7,.34,1.28,.82,1.73,1.42,.45,.61,.67,1.41,.67,2.42v8.61c0,.75,.04,1.46,.13,2.14,.08,.68,.23,1.2,.45,1.54h-4.61c-.09-.26-.15-.52-.21-.78-.05-.27-.09-.54-.11-.82-.73,.75-1.58,1.27-2.56,1.57-.98,.3-1.98,.45-3.01,.45-.79,0-1.53-.1-2.21-.29-.68-.19-1.28-.49-1.79-.9-.51-.4-.91-.92-1.2-1.54-.29-.62-.43-1.35-.43-2.21,0-.94,.17-1.71,.5-2.32,.33-.61,.76-1.09,1.28-1.46,.52-.36,1.12-.63,1.79-.82,.67-.18,1.35-.33,2.03-.43,.68-.11,1.35-.19,2.02-.26,.66-.06,1.25-.16,1.76-.29,.51-.13,.92-.31,1.22-.56,.3-.24,.44-.6,.42-1.07,0-.49-.08-.88-.24-1.17s-.37-.51-.64-.67c-.27-.16-.58-.27-.93-.32-.35-.05-.73-.08-1.14-.08-.9,0-1.6,.19-2.11,.58-.51,.38-.81,1.02-.9,1.92h-4.54Zm10.5,3.36c-.19,.17-.43,.3-.72,.4-.29,.1-.6,.18-.93,.24s-.68,.12-1.04,.16c-.36,.04-.73,.1-1.09,.16-.34,.06-.68,.15-1.01,.26-.33,.11-.62,.25-.86,.43-.25,.18-.44,.41-.59,.69-.15,.28-.22,.63-.22,1.06s.07,.75,.22,1.02c.15,.28,.35,.5,.61,.66s.55,.27,.9,.34,.69,.1,1.06,.1c.9,0,1.59-.15,2.08-.45,.49-.3,.85-.66,1.09-1.07,.23-.42,.38-.84,.43-1.26,.05-.43,.08-.77,.08-1.02v-1.7Z" fill="#fff"/><path d="M246.92,16.2v3.04h-3.33v8.19c0,.77,.13,1.28,.38,1.54,.26,.26,.77,.38,1.54,.38,.26,0,.5-.01,.74-.03,.23-.02,.46-.05,.67-.1v3.52c-.38,.06-.81,.11-1.28,.13-.47,.02-.93,.03-1.38,.03-.7,0-1.37-.05-2-.14-.63-.1-1.18-.28-1.66-.56-.48-.28-.86-.67-1.14-1.18s-.42-1.18-.42-2.02v-9.76h-2.75v-3.04h2.75v-4.96h4.54v4.96h3.33Z" fill="#fff"/><path d="M260.3,32.75v-2.3h-.1c-.58,.96-1.32,1.65-2.24,2.08-.92,.43-1.86,.64-2.82,.64-1.22,0-2.21-.16-2.99-.48-.78-.32-1.39-.77-1.84-1.36-.45-.59-.76-1.3-.94-2.14-.18-.84-.27-1.78-.27-2.8v-10.18h4.54v9.34c0,1.37,.21,2.38,.64,3.06,.43,.67,1.18,1.01,2.27,1.01,1.24,0,2.13-.37,2.69-1.1,.55-.74,.83-1.95,.83-3.63v-8.67h4.54v16.54h-4.32Z" fill="#fff"/><path d="M272.39,16.2v3.07h.06c.21-.51,.5-.99,.86-1.42,.36-.44,.78-.81,1.25-1.12,.47-.31,.97-.55,1.5-.72,.53-.17,1.09-.26,1.66-.26,.3,0,.63,.05,.99,.16v4.22c-.21-.04-.47-.08-.77-.11-.3-.03-.59-.05-.86-.05-.83,0-1.54,.14-2.11,.42-.58,.28-1.04,.66-1.39,1.14s-.6,1.04-.75,1.68c-.15,.64-.22,1.33-.22,2.08v7.46h-4.54V16.2h4.32Z" fill="#fff"/><path d="M284.81,28.78c.68,.66,1.66,.99,2.94,.99,.92,0,1.71-.23,2.37-.69,.66-.46,1.07-.94,1.22-1.46h4c-.64,1.98-1.62,3.4-2.94,4.26s-2.92,1.28-4.8,1.28c-1.3,0-2.48-.21-3.52-.62-1.05-.42-1.93-1.01-2.66-1.78-.73-.77-1.29-1.69-1.68-2.75-.4-1.07-.59-2.24-.59-3.52s.2-2.39,.61-3.46c.4-1.07,.98-1.99,1.73-2.77,.75-.78,1.64-1.39,2.67-1.84,1.03-.45,2.18-.67,3.44-.67,1.41,0,2.63,.27,3.68,.82,1.04,.54,1.9,1.27,2.58,2.19,.67,.92,1.16,1.96,1.46,3.14,.3,1.17,.41,2.4,.32,3.68h-11.94c.06,1.47,.44,2.54,1.12,3.2Zm5.14-8.7c-.54-.6-1.37-.9-2.48-.9-.73,0-1.33,.12-1.81,.37-.48,.25-.86,.55-1.15,.91-.29,.36-.49,.75-.61,1.15-.12,.41-.19,.77-.21,1.09h7.39c-.21-1.15-.59-2.03-1.14-2.62Z" fill="#fff"/><path d="M321.22,32.57c-1.09,.46-2.19,.69-3.3,.69-1.75,0-3.32-.3-4.72-.91-1.4-.61-2.58-1.45-3.54-2.51-.96-1.07-1.7-2.32-2.21-3.76-.51-1.44-.77-2.99-.77-4.66s.26-3.29,.77-4.75c.51-1.46,1.25-2.74,2.21-3.82,.96-1.09,2.14-1.94,3.54-2.56,1.4-.62,2.97-.93,4.72-.93,1.17,0,2.31,.18,3.41,.53,1.1,.35,2.09,.87,2.98,1.55,.88,.68,1.62,1.53,2.19,2.53,.58,1,.93,2.16,1.06,3.46h-4.8c-.3-1.28-.88-2.24-1.73-2.88s-1.89-.96-3.1-.96c-1.13,0-2.09,.22-2.88,.66-.79,.44-1.43,1.02-1.92,1.76s-.85,1.57-1.07,2.51c-.22,.94-.34,1.91-.34,2.91s.11,1.89,.34,2.8c.22,.91,.58,1.72,1.07,2.45,.49,.73,1.13,1.31,1.92,1.74,.79,.44,1.75,.66,2.88,.66,1.66,0,2.95-.42,3.86-1.26,.91-.84,1.43-2.06,1.58-3.66h-5.06v-3.74h9.6v12.35h-3.2l-.51-2.59c-.9,1.15-1.89,1.96-2.98,2.42Z" fill="#fff"/><path d="M331.3,21.29c.06-1.07,.33-1.95,.8-2.66,.47-.7,1.07-1.27,1.79-1.7,.73-.43,1.54-.73,2.45-.91,.91-.18,1.82-.27,2.74-.27,.83,0,1.67,.06,2.53,.18,.85,.12,1.63,.35,2.34,.69,.7,.34,1.28,.82,1.73,1.42,.45,.61,.67,1.41,.67,2.42v8.61c0,.75,.04,1.46,.13,2.14,.08,.68,.23,1.2,.45,1.54h-4.61c-.09-.26-.15-.52-.21-.78-.05-.27-.09-.54-.11-.82-.73,.75-1.58,1.27-2.56,1.57-.98,.3-1.98,.45-3.01,.45-.79,0-1.53-.1-2.21-.29-.68-.19-1.28-.49-1.79-.9-.51-.4-.91-.92-1.2-1.54-.29-.62-.43-1.35-.43-2.21,0-.94,.17-1.71,.5-2.32,.33-.61,.76-1.09,1.28-1.46,.52-.36,1.12-.63,1.79-.82,.67-.18,1.35-.33,2.03-.43,.68-.11,1.35-.19,2.02-.26,.66-.06,1.25-.16,1.76-.29,.51-.13,.92-.31,1.22-.56,.3-.24,.44-.6,.42-1.07,0-.49-.08-.88-.24-1.17s-.37-.51-.64-.67c-.27-.16-.58-.27-.93-.32-.35-.05-.73-.08-1.14-.08-.9,0-1.6,.19-2.11,.58-.51,.38-.81,1.02-.9,1.92h-4.54Zm10.5,3.36c-.19,.17-.43,.3-.72,.4-.29,.1-.6,.18-.93,.24s-.68,.12-1.04,.16c-.36,.04-.73,.1-1.09,.16-.34,.06-.68,.15-1.01,.26-.33,.11-.62,.25-.86,.43-.25,.18-.44,.41-.59,.69-.15,.28-.22,.63-.22,1.06s.07,.75,.22,1.02c.15,.28,.35,.5,.61,.66s.55,.27,.9,.34,.69,.1,1.06,.1c.9,0,1.59-.15,2.08-.45,.49-.3,.85-.66,1.09-1.07,.23-.42,.38-.84,.43-1.26,.05-.43,.08-.77,.08-1.02v-1.7Z" fill="#fff"/><path d="M358.95,16.2v3.04h-3.33v8.19c0,.77,.13,1.28,.38,1.54,.26,.26,.77,.38,1.54,.38,.26,0,.5-.01,.74-.03,.23-.02,.46-.05,.67-.1v3.52c-.38,.06-.81,.11-1.28,.13-.47,.02-.93,.03-1.38,.03-.7,0-1.37-.05-2-.14-.63-.1-1.18-.28-1.66-.56-.48-.28-.86-.67-1.14-1.18s-.42-1.18-.42-2.02v-9.76h-2.75v-3.04h2.75v-4.96h4.54v4.96h3.33Z" fill="#fff"/><path d="M365.99,28.78c.68,.66,1.66,.99,2.94,.99,.92,0,1.71-.23,2.37-.69,.66-.46,1.07-.94,1.22-1.46h4c-.64,1.98-1.62,3.4-2.94,4.26s-2.92,1.28-4.8,1.28c-1.3,0-2.48-.21-3.52-.62-1.05-.42-1.93-1.01-2.66-1.78-.73-.77-1.29-1.69-1.68-2.75-.4-1.07-.59-2.24-.59-3.52s.2-2.39,.61-3.46c.4-1.07,.98-1.99,1.73-2.77,.75-.78,1.64-1.39,2.67-1.84,1.03-.45,2.18-.67,3.44-.67,1.41,0,2.63,.27,3.68,.82,1.04,.54,1.9,1.27,2.58,2.19,.67,.92,1.16,1.96,1.46,3.14,.3,1.17,.41,2.4,.32,3.68h-11.94c.06,1.47,.44,2.54,1.12,3.2Zm5.14-8.7c-.54-.6-1.37-.9-2.48-.9-.73,0-1.33,.12-1.81,.37-.48,.25-.86,.55-1.15,.91-.29,.36-.49,.75-.61,1.15-.12,.41-.19,.77-.21,1.09h7.39c-.21-1.15-.59-2.03-1.14-2.62Z" fill="#fff"/><path d="M393.73,32.75l-2.94-11.1h-.06l-2.82,11.1h-4.7l-5.25-16.54h4.8l3.04,11.23h.06l2.75-11.23h4.42l2.82,11.2h.06l3.04-11.2h4.67l-5.22,16.54h-4.67Z" fill="#fff"/><path d="M405.35,21.29c.06-1.07,.33-1.95,.8-2.66,.47-.7,1.07-1.27,1.79-1.7,.73-.43,1.54-.73,2.45-.91,.91-.18,1.82-.27,2.74-.27,.83,0,1.67,.06,2.53,.18,.85,.12,1.63,.35,2.34,.69,.7,.34,1.28,.82,1.73,1.42,.45,.61,.67,1.41,.67,2.42v8.61c0,.75,.04,1.46,.13,2.14,.08,.68,.23,1.2,.45,1.54h-4.61c-.09-.26-.15-.52-.21-.78-.05-.27-.09-.54-.11-.82-.73,.75-1.58,1.27-2.56,1.57-.98,.3-1.98,.45-3.01,.45-.79,0-1.53-.1-2.21-.29-.68-.19-1.28-.49-1.79-.9-.51-.4-.91-.92-1.2-1.54-.29-.62-.43-1.35-.43-2.21,0-.94,.17-1.71,.5-2.32,.33-.61,.76-1.09,1.28-1.46,.52-.36,1.12-.63,1.79-.82,.67-.18,1.35-.33,2.03-.43,.68-.11,1.35-.19,2.02-.26,.66-.06,1.25-.16,1.76-.29,.51-.13,.92-.31,1.22-.56,.3-.24,.44-.6,.42-1.07,0-.49-.08-.88-.24-1.17s-.37-.51-.64-.67c-.27-.16-.58-.27-.93-.32-.35-.05-.73-.08-1.14-.08-.9,0-1.6,.19-2.11,.58-.51,.38-.81,1.02-.9,1.92h-4.54Zm10.5,3.36c-.19,.17-.43,.3-.72,.4-.29,.1-.6,.18-.93,.24s-.68,.12-1.04,.16c-.36,.04-.73,.1-1.09,.16-.34,.06-.68,.15-1.01,.26-.33,.11-.62,.25-.86,.43-.25,.18-.44,.41-.59,.69-.15,.28-.22,.63-.22,1.06s.07,.75,.22,1.02c.15,.28,.35,.5,.61,.66s.55,.27,.9,.34,.69,.1,1.06,.1c.9,0,1.59-.15,2.08-.45,.49-.3,.85-.66,1.09-1.07,.23-.42,.38-.84,.43-1.26,.05-.43,.08-.77,.08-1.02v-1.7Z" fill="#fff"/><path d="M430.02,37.68c-.88,.58-2.09,.86-3.65,.86-.47,0-.93-.02-1.39-.05-.46-.03-.92-.07-1.39-.11v-3.74c.43,.04,.86,.08,1.31,.13,.45,.04,.9,.05,1.34,.03,.6-.06,1.04-.3,1.33-.7,.29-.41,.43-.85,.43-1.34,0-.36-.06-.7-.19-1.02l-5.79-15.52h4.83l3.74,11.33h.06l3.62-11.33h4.7l-6.91,18.59c-.49,1.34-1.17,2.3-2.05,2.88Z" fill="#fff"/><path d="M440.74,21.42v-4.93h5.02v4.93h-5.02Zm5.02,6.4v4.93h-5.02v-4.93h5.02Z" fill="#fff"/></g><g><path d="M31.17,31.92c-4.5-4.51-9-9.01-13.5-13.52C12.98,13.71,8.28,9.02,3.58,4.32c-.1-.1-.19-.21-.23-.39,1.08,.68,2.15,1.36,3.23,2.03,7.4,4.56,15.16,8.41,23.35,11.34,4.78,1.71,9.64,3.21,14.44,4.84,.79,.27,1.56,.67,2.27,1.12,.58,.36,.64,.91,.1,1.35-.76,.62-1.58,1.24-2.47,1.65-3.56,1.63-7.16,3.17-10.75,4.74-.78,.34-1.58,.62-2.37,.92h.01Z" fill="#fff"/><path d="M3.29,65.94c1.31-1.29,2.63-2.58,3.94-3.88,7.87-7.86,15.74-15.72,23.6-23.58,.22-.22,.37-.44,.78-.26,4.06,1.78,8.15,3.51,12.2,5.31,.9,.4,1.76,.94,2.55,1.54,.98,.74,.92,1.47-.21,1.97-1.59,.7-3.22,1.34-4.88,1.84-8.96,2.74-17.76,5.9-26.04,10.32-3.82,2.04-7.5,4.33-11.25,6.51-.2,.11-.39,.24-.58,.36l-.11-.13Z" fill="#fff"/><path d="M10,40.82v-11.61c4.62,1.93,9.17,3.83,13.9,5.8-4.71,1.97-9.27,3.88-13.9,5.81Z" fill="#fff"/><path d="M60.21,35.05c-1.12,.47-2.19,.94-3.28,1.39-1.8,.75-3.59,1.5-5.4,2.22-.18,.07-.52,.07-.64-.05-1.2-1.17-2.38-2.36-3.78-3.76,.28-.17,.58-.3,.8-.51,.97-.94,1.9-1.91,2.88-2.84,.15-.14,.5-.24,.68-.17,2.86,1.17,5.7,2.36,8.55,3.56,.05,.02,.09,.08,.19,.16Z" fill="#fff"/><path d="M31.16,31.91l3.01,3.13c-.94,.94-1.86,1.86-2.79,2.76-.08,.08-.28,.12-.38,.08-2.26-.93-4.51-1.87-6.9-2.86,1.1-.46,2.06-.87,3.03-1.28,1.16-.49,2.33-.96,3.5-1.46,.2-.08,.37-.24,.55-.36h-.02Z" fill="#fff"/></g><g><path d="M88.35,48.05h2.24l2.11,12.14h-2.16l-.49-3.21h-4.83l-1.87,3.21h-2.28l7.28-12.14Zm.73,2.14h-.03l-2.92,5.17h3.71l-.75-5.17Z" fill="#fff"/><path d="M100.72,56.17c-.05,.94,.19,1.6,.7,1.99,.51,.39,1.21,.58,2.09,.58,.28,0,.59-.03,.91-.1,.32-.07,.61-.18,.88-.33,.26-.15,.48-.35,.65-.59,.18-.24,.26-.55,.26-.91,0-.34-.08-.62-.25-.85-.16-.23-.38-.42-.65-.57-.27-.15-.58-.28-.93-.39-.35-.11-.71-.21-1.09-.31-.27-.07-.6-.16-.97-.28-.37-.12-.74-.29-1.09-.53-.35-.23-.65-.54-.89-.91s-.37-.85-.37-1.43c0-.54,.1-1.05,.31-1.51s.5-.86,.88-1.2c.38-.33,.86-.6,1.42-.78,.56-.19,1.2-.28,1.91-.28,.63,0,1.23,.07,1.79,.2,.56,.14,1.04,.36,1.45,.66,.41,.31,.73,.71,.95,1.2s.33,1.1,.31,1.81h-2.04c-.01-.76-.22-1.31-.63-1.64-.41-.33-1.03-.5-1.85-.5-.15,0-.35,.02-.61,.05-.26,.03-.52,.11-.78,.24-.26,.12-.49,.3-.68,.54s-.29,.55-.29,.96c0,.29,.07,.54,.2,.73,.14,.19,.32,.36,.55,.49,.23,.14,.5,.25,.81,.34,.31,.09,.63,.18,.97,.25,.43,.11,.86,.24,1.3,.37,.44,.14,.83,.33,1.19,.57,.36,.24,.65,.56,.87,.96,.22,.4,.33,.91,.33,1.55,0,.48-.09,.95-.27,1.41-.18,.46-.47,.88-.88,1.26s-.92,.68-1.56,.91c-.64,.23-1.42,.35-2.34,.35-.71,0-1.36-.08-1.94-.25-.58-.17-1.07-.42-1.47-.77s-.71-.79-.92-1.33c-.21-.54-.3-1.2-.28-1.96h2.04Z" fill="#fff"/><path d="M109.97,51.4h2.04l.92,6.43h.03l3.31-6.43h2.07l-5.03,9.06c-.23,.42-.45,.82-.66,1.21-.22,.39-.46,.73-.74,1.03-.28,.3-.6,.54-.98,.71s-.83,.26-1.38,.26c-.33,0-.72-.05-1.17-.14l.36-1.61c.12,.03,.25,.06,.37,.09,.12,.03,.25,.04,.37,.04,.29,0,.55-.05,.76-.16,.21-.11,.38-.3,.5-.59l.77-1.41-1.55-8.5Z" fill="#fff"/><path d="M124,53.96c-.01-.44-.18-.77-.5-.97-.32-.2-.75-.31-1.27-.31-.19,0-.38,.02-.55,.05s-.33,.09-.48,.18c-.14,.08-.26,.2-.34,.34s-.13,.32-.13,.54c0,.2,.08,.37,.23,.49,.15,.12,.35,.24,.6,.33,.25,.1,.53,.19,.83,.27s.61,.18,.92,.3c.26,.1,.52,.22,.77,.34,.25,.12,.47,.28,.65,.46,.19,.18,.34,.4,.45,.65s.17,.55,.17,.9c0,.51-.11,.95-.34,1.31-.23,.36-.52,.66-.88,.9-.36,.24-.78,.41-1.25,.52s-.94,.16-1.42,.16c-.51,0-.99-.05-1.43-.14-.44-.1-.83-.26-1.16-.49s-.59-.54-.78-.94c-.19-.39-.29-.89-.31-1.49h1.84c-.02,.56,.15,.95,.53,1.18s.84,.35,1.41,.35c.2,0,.41-.02,.63-.06,.22-.04,.41-.1,.6-.2,.18-.09,.33-.22,.45-.38,.12-.16,.18-.37,.18-.62,0-.23-.08-.41-.25-.56-.16-.15-.37-.27-.63-.38-.25-.11-.54-.21-.87-.3-.32-.09-.64-.19-.94-.31-.26-.09-.51-.2-.74-.32-.23-.12-.44-.27-.62-.45-.18-.18-.32-.38-.42-.62-.1-.24-.15-.52-.15-.85,0-.48,.1-.88,.31-1.22,.21-.34,.48-.62,.82-.83,.34-.21,.73-.37,1.16-.48s.87-.15,1.33-.15c.48,0,.92,.04,1.34,.13s.78,.24,1.1,.45c.31,.22,.56,.5,.73,.87,.18,.36,.26,.82,.25,1.36h-1.84Z" fill="#fff"/><path d="M129.18,48.76h1.89l-.54,2.63h1.75l-.31,1.45h-1.75l-.9,4.3c-.05,.19-.08,.37-.12,.54-.03,.17-.05,.31-.05,.41,0,.19,.04,.35,.13,.47,.08,.12,.27,.18,.57,.18,.15,0,.31,0,.48,0,.18,0,.36-.03,.55-.08l-.32,1.43c-.25,.06-.52,.1-.8,.14s-.55,.05-.8,.05c-.35,0-.64-.04-.87-.14-.23-.09-.41-.21-.54-.37-.13-.15-.22-.33-.27-.53-.05-.2-.08-.4-.08-.6,0-.17,.01-.36,.04-.56,.03-.2,.05-.34,.08-.42l1-4.81h-1.53l.31-1.45h1.53l.54-2.63Z" fill="#fff"/><path d="M140.38,57.46c-.31,1.03-.82,1.78-1.55,2.25-.73,.47-1.62,.71-2.69,.71-.56,0-1.07-.09-1.54-.26-.47-.18-.88-.43-1.22-.76-.34-.33-.61-.74-.8-1.21-.19-.47-.29-1.01-.29-1.61,0-.68,.11-1.34,.32-1.99,.21-.65,.53-1.22,.94-1.73,.41-.51,.92-.92,1.53-1.23s1.3-.47,2.08-.47,1.42,.13,1.9,.39c.49,.26,.87,.59,1.14,.99,.27,.4,.46,.83,.55,1.31,.1,.48,.14,.93,.14,1.36,0,.22-.01,.41-.03,.6-.02,.18-.05,.35-.07,.49h-6.54c-.01,.06-.02,.11-.03,.15,0,.05,0,.09,0,.14v.27c0,.61,.16,1.11,.48,1.48,.32,.37,.86,.56,1.61,.56,.52,0,.97-.12,1.34-.36,.37-.24,.63-.59,.77-1.07h1.94Zm-1.41-2.45c.01-.06,.02-.1,.02-.14v-.4c0-.52-.16-.95-.49-1.28-.33-.33-.78-.5-1.36-.5-.73,0-1.3,.22-1.73,.65-.43,.44-.74,1-.94,1.67h4.5Z" fill="#fff"/><path d="M143.31,51.4h1.84l-.26,1.24,.03,.03c.36-.48,.8-.85,1.32-1.11,.52-.27,1.08-.4,1.69-.4,.54,0,1.02,.12,1.43,.35,.41,.23,.67,.64,.8,1.22,.4-.45,.84-.83,1.33-1.12s1.04-.44,1.65-.44c.85,0,1.48,.21,1.89,.63,.41,.42,.61,.99,.61,1.7,0,.16-.01,.34-.04,.54s-.06,.39-.09,.54l-1.12,5.61h-1.94l1.09-5.2c.02-.1,.05-.25,.09-.43,.04-.19,.07-.39,.08-.6,0-.15-.01-.3-.04-.45s-.09-.29-.18-.41-.22-.21-.37-.29c-.16-.07-.36-.11-.61-.11-.37,0-.71,.08-.99,.23s-.54,.35-.75,.58c-.21,.23-.38,.49-.51,.76-.13,.28-.22,.54-.26,.79l-1.07,5.13h-1.94l1-4.83c.04-.23,.1-.48,.16-.76,.06-.28,.09-.56,.09-.82,0-.29-.08-.55-.23-.76-.15-.21-.43-.32-.84-.32-.37,0-.69,.07-.96,.2-.27,.14-.5,.3-.69,.49-.19,.19-.39,.44-.6,.74-.2,.3-.35,.63-.42,.98l-1.05,5.08h-1.94l1.82-8.79Z" fill="#fff"/><path d="M164.32,57.63c-.03,.16-.07,.31-.11,.46s-.06,.28-.06,.41,.03,.22,.08,.29c.06,.07,.16,.1,.32,.1,.11,0,.23-.01,.34-.04,.11-.03,.23-.05,.34-.06l-.31,1.39c-.25,.06-.5,.11-.75,.16-.25,.05-.5,.08-.77,.08-.33,0-.6-.1-.82-.31s-.33-.48-.36-.82c-.39,.38-.84,.67-1.36,.85-.52,.18-1.05,.27-1.6,.27-.36,0-.71-.05-1.04-.15s-.62-.25-.88-.44c-.25-.19-.46-.44-.6-.73-.15-.29-.22-.63-.22-1.02,0-.54,.1-1,.31-1.37,.2-.37,.48-.67,.82-.91,.34-.24,.73-.41,1.17-.53s.91-.19,1.39-.22c.66-.04,1.3-.1,1.94-.15,.35-.02,.61-.14,.77-.35,.16-.21,.25-.48,.25-.81,0-.42-.15-.7-.44-.84-.29-.14-.64-.21-1.04-.21-.54,0-1.01,.09-1.4,.28-.39,.19-.65,.55-.79,1.1h-1.84c.1-.54,.28-1,.53-1.37,.25-.37,.56-.67,.92-.9,.36-.23,.77-.4,1.23-.49,.46-.1,.95-.14,1.47-.14,.79,0,1.41,.08,1.86,.23,.45,.15,.78,.34,.99,.55,.21,.22,.34,.44,.38,.67s.07,.43,.07,.59c0,.39-.06,.83-.17,1.33l-.65,3.11Zm-5.83,.14c0,.22,.05,.39,.14,.54,.1,.14,.22,.26,.37,.34s.31,.15,.49,.19c.18,.04,.36,.06,.54,.06,.48,0,.88-.08,1.2-.24,.32-.16,.59-.37,.8-.65,.21-.27,.37-.59,.49-.96,.12-.37,.21-.76,.28-1.18l-.03-.03c-.14,.14-.32,.23-.54,.29-.23,.06-.45,.1-.66,.12-.27,.02-.59,.05-.94,.07s-.69,.08-1,.18c-.31,.1-.58,.24-.8,.44-.22,.2-.33,.48-.33,.84Z" fill="#fff"/><path d="M168.86,48.76h1.89l-.54,2.63h1.75l-.31,1.45h-1.75l-.9,4.3c-.05,.19-.08,.37-.12,.54-.03,.17-.05,.31-.05,.41,0,.19,.04,.35,.13,.47,.08,.12,.27,.18,.57,.18,.15,0,.31,0,.48,0,.18,0,.36-.03,.55-.08l-.32,1.43c-.25,.06-.52,.1-.8,.14s-.55,.05-.8,.05c-.35,0-.64-.04-.87-.14-.23-.09-.41-.21-.54-.37-.13-.15-.22-.33-.27-.53-.05-.2-.08-.4-.08-.6,0-.17,.01-.36,.04-.56,.03-.2,.05-.34,.08-.42l1-4.81h-1.53l.31-1.45h1.53l.54-2.63Z" fill="#fff"/><path d="M173.43,51.4h1.94l-1.82,8.79h-1.94l1.82-8.79Zm.7-3.35h1.92l-.37,1.84h-1.92l.37-1.84Z" fill="#fff"/><path d="M182.68,54.3c.02-.54-.12-.95-.44-1.22-.32-.27-.75-.4-1.29-.4-.49,0-.91,.12-1.28,.37s-.66,.57-.9,.95c-.24,.39-.42,.81-.54,1.27-.12,.46-.18,.9-.18,1.32,0,.33,.03,.63,.1,.91,.07,.28,.18,.52,.33,.72,.15,.2,.35,.37,.6,.48,.25,.12,.56,.18,.92,.18,.58,0,1.05-.15,1.42-.46,.37-.31,.63-.73,.79-1.28h1.94c-.32,1.13-.85,1.96-1.6,2.48s-1.71,.78-2.87,.78c-.58,0-1.09-.09-1.53-.27-.44-.18-.81-.44-1.11-.77-.3-.33-.53-.73-.69-1.19s-.24-.97-.24-1.52c0-.74,.11-1.44,.34-2.11s.56-1.25,.99-1.76c.43-.5,.96-.9,1.57-1.2s1.32-.44,2.1-.44c.49,0,.95,.07,1.38,.2,.43,.14,.8,.33,1.12,.6,.32,.26,.57,.59,.75,.99,.18,.4,.27,.85,.25,1.36h-1.94Z" fill="#fff"/><path d="M192.68,48.05h2.92l1.33,9.25h.03l5.27-9.25h3.01l-2.5,12.14h-2.04l2.11-9.72h-.03l-5.49,9.72h-1.67l-1.53-9.72h-.03l-1.85,9.72h-2.04l2.52-12.14Z" fill="#fff"/><path d="M212.82,57.63c-.03,.16-.07,.31-.11,.46s-.06,.28-.06,.41,.03,.22,.08,.29c.06,.07,.16,.1,.32,.1,.11,0,.23-.01,.34-.04,.11-.03,.23-.05,.34-.06l-.31,1.39c-.25,.06-.5,.11-.75,.16-.25,.05-.5,.08-.77,.08-.33,0-.6-.1-.82-.31s-.33-.48-.36-.82c-.39,.38-.84,.67-1.36,.85-.52,.18-1.05,.27-1.6,.27-.36,0-.71-.05-1.04-.15s-.62-.25-.88-.44c-.25-.19-.46-.44-.6-.73-.15-.29-.22-.63-.22-1.02,0-.54,.1-1,.31-1.37,.2-.37,.48-.67,.82-.91,.34-.24,.73-.41,1.17-.53s.91-.19,1.39-.22c.66-.04,1.3-.1,1.94-.15,.35-.02,.61-.14,.77-.35,.16-.21,.25-.48,.25-.81,0-.42-.15-.7-.44-.84-.29-.14-.64-.21-1.04-.21-.54,0-1.01,.09-1.4,.28-.39,.19-.65,.55-.79,1.1h-1.84c.1-.54,.28-1,.53-1.37,.25-.37,.56-.67,.92-.9,.36-.23,.77-.4,1.23-.49,.46-.1,.95-.14,1.47-.14,.79,0,1.41,.08,1.86,.23,.45,.15,.78,.34,.99,.55,.21,.22,.34,.44,.38,.67s.07,.43,.07,.59c0,.39-.06,.83-.17,1.33l-.65,3.11Zm-5.83,.14c0,.22,.05,.39,.14,.54,.1,.14,.22,.26,.37,.34s.31,.15,.49,.19c.18,.04,.36,.06,.54,.06,.48,0,.88-.08,1.2-.24,.32-.16,.59-.37,.8-.65,.21-.27,.37-.59,.49-.96,.12-.37,.21-.76,.28-1.18l-.03-.03c-.14,.14-.32,.23-.54,.29-.23,.06-.45,.1-.66,.12-.27,.02-.59,.05-.94,.07s-.69,.08-1,.18c-.31,.1-.58,.24-.8,.44-.22,.2-.33,.48-.33,.84Z" fill="#fff"/><path d="M216.31,51.4h1.92l-.25,1.12,.03,.03c.31-.44,.71-.79,1.21-1.03,.5-.24,1.02-.37,1.56-.37s1.03,.09,1.44,.27,.77,.43,1.05,.76c.28,.32,.49,.71,.63,1.16,.14,.45,.21,.93,.21,1.45,0,.67-.09,1.34-.27,2.01-.18,.67-.46,1.28-.83,1.81-.37,.53-.84,.97-1.41,1.3-.57,.33-1.23,.5-1.99,.5-.65,0-1.22-.11-1.72-.33-.5-.22-.88-.64-1.16-1.27h-.03l-.95,4.61h-1.94l2.5-12.04Zm.92,5.24c0,.32,.04,.61,.11,.88,.07,.27,.19,.51,.34,.71,.15,.2,.35,.37,.6,.48,.25,.12,.54,.18,.88,.18,.52,0,.97-.12,1.35-.35,.38-.23,.69-.54,.94-.91s.42-.79,.54-1.26,.18-.93,.18-1.39c0-.32-.04-.61-.11-.89-.07-.28-.19-.52-.35-.73-.16-.21-.36-.37-.6-.49-.24-.12-.54-.18-.88-.18-.52,0-.97,.12-1.35,.36-.38,.24-.69,.55-.94,.93-.24,.38-.43,.81-.54,1.28-.12,.47-.18,.93-.18,1.39Z" fill="#fff"/><path d="M233.81,60.42c-1.22,0-2.17-.33-2.84-1-.67-.66-1-1.61-1-2.85,0-.73,.12-1.41,.36-2.07,.24-.65,.58-1.23,1.01-1.72,.44-.5,.96-.9,1.58-1.19s1.31-.44,2.07-.44c1.22,0,2.17,.32,2.84,.96,.67,.64,1,1.58,1,2.81,0,.77-.11,1.49-.34,2.16-.23,.67-.56,1.25-.99,1.74-.44,.49-.96,.88-1.58,1.17-.62,.28-1.32,.42-2.1,.42Zm1.05-7.74c-.5,0-.93,.12-1.3,.37s-.68,.56-.93,.94c-.25,.38-.43,.8-.55,1.27-.12,.46-.18,.92-.18,1.36,0,.65,.16,1.18,.48,1.61,.32,.43,.84,.65,1.54,.65,.5,0,.93-.12,1.3-.37,.37-.24,.68-.56,.93-.94,.25-.38,.43-.8,.55-1.27,.12-.47,.18-.93,.18-1.37,0-.65-.16-1.18-.48-1.61-.32-.43-.84-.65-1.54-.65Z" fill="#fff"/><path d="M241.72,52.84h-1.45l.29-1.45h1.45c.1-.51,.21-.97,.32-1.38s.28-.76,.49-1.05c.21-.29,.5-.52,.87-.68,.36-.16,.84-.24,1.43-.24,.26,0,.51,.01,.75,.04,.24,.03,.47,.05,.7,.08l-.32,1.48c-.19-.04-.44-.07-.75-.07-.33,0-.58,.05-.76,.14-.18,.09-.31,.22-.41,.38-.1,.17-.17,.36-.21,.58-.05,.22-.1,.46-.17,.72h1.7l-.29,1.45h-1.7l-1.53,7.34h-1.94l1.53-7.34Z" fill="#fff"/><path d="M252.46,48.05h5.24c.8,0,1.44,.11,1.91,.32,.47,.22,.83,.47,1.07,.77s.4,.61,.47,.93c.07,.33,.1,.6,.1,.82,0,.36-.05,.71-.16,1.03-.11,.32-.26,.62-.47,.88s-.45,.48-.74,.65-.61,.28-.96,.34v.03c1.21,.39,1.82,1.24,1.82,2.55,0,.32-.06,.69-.19,1.13-.12,.44-.35,.86-.69,1.26-.33,.4-.8,.74-1.39,1.02-.6,.28-1.36,.42-2.29,.42h-6.24l2.52-12.14Zm-.03,10.4h3.04c.18,0,.44,0,.77-.02,.33-.01,.66-.07,1-.18,.34-.11,.64-.29,.91-.55,.27-.26,.42-.64,.47-1.14,.01-.15,0-.33,0-.54-.02-.21-.1-.42-.24-.63s-.36-.38-.66-.52-.72-.21-1.27-.21h-3.21l-.8,3.79Zm1.1-5.32h3.18c.52,0,.94-.07,1.26-.2s.56-.3,.73-.5,.28-.41,.34-.63,.08-.41,.08-.57c0-.12-.02-.27-.05-.43s-.11-.32-.24-.48c-.12-.15-.31-.28-.56-.38-.25-.1-.59-.15-1.02-.15h-3.03l-.7,3.35Z" fill="#fff"/><path d="M263.51,51.4h1.94l-1.82,8.79h-1.94l1.82-8.79Zm.7-3.35h1.92l-.37,1.84h-1.92l.37-1.84Z" fill="#fff"/><path d="M267.61,51.4h1.84l-.36,1.72,.03,.03c.14-.24,.3-.48,.5-.71s.42-.45,.65-.64c.24-.19,.5-.34,.77-.46,.28-.12,.57-.18,.88-.18,.16,0,.31,0,.47,0,.15,0,.31,.02,.47,.04l-.41,1.85c-.11-.02-.23-.04-.34-.05-.11-.01-.23-.02-.34-.02-.5,0-.93,.09-1.3,.26-.37,.18-.68,.42-.94,.72s-.46,.66-.62,1.05c-.16,.4-.28,.82-.37,1.26l-.82,3.89h-1.94l1.82-8.79Z" fill="#fff"/><path d="M280.24,60.18h-1.85l.27-1.19-.03-.03c-.39,.57-.81,.95-1.27,1.16s-.96,.31-1.48,.31c-.25,0-.57-.03-.95-.1-.39-.07-.76-.22-1.13-.47-.37-.24-.68-.6-.94-1.08-.26-.48-.39-1.13-.39-1.96,0-.71,.11-1.41,.32-2.08,.21-.67,.53-1.28,.94-1.81,.41-.53,.91-.96,1.5-1.28,.59-.32,1.26-.48,2.02-.48,.59,0,1.12,.11,1.6,.32,.48,.22,.83,.59,1.05,1.12h.03l.97-4.56h1.94l-2.58,12.14Zm-.83-5.39c0-.28-.04-.56-.11-.82-.07-.26-.19-.48-.34-.67-.15-.19-.35-.34-.6-.45s-.54-.17-.88-.17c-.54,0-1.01,.12-1.39,.37-.39,.24-.7,.56-.95,.96s-.43,.84-.55,1.33c-.12,.49-.18,.98-.18,1.47,0,.66,.16,1.17,.49,1.53,.33,.36,.83,.54,1.51,.54,.5,0,.94-.13,1.31-.39s.69-.59,.94-1c.25-.4,.44-.84,.57-1.33,.12-.48,.19-.94,.19-1.38Z" fill="#fff"/><path d="M283.39,54.64h5.03l-.36,1.84h-5.03l.36-1.84Z" fill="#fff"/><path d="M290.42,48.05h2.16l1.14,9.59h.03l5.07-9.59h2.26l-6.66,12.14h-2.41l-1.58-12.14Z" fill="#fff"/><path d="M306.93,57.46c-.31,1.03-.82,1.78-1.55,2.25-.73,.47-1.62,.71-2.69,.71-.56,0-1.07-.09-1.54-.26-.47-.18-.88-.43-1.22-.76-.34-.33-.61-.74-.8-1.21-.19-.47-.29-1.01-.29-1.61,0-.68,.11-1.34,.32-1.99,.21-.65,.53-1.22,.94-1.73,.41-.51,.92-.92,1.53-1.23s1.3-.47,2.08-.47,1.42,.13,1.9,.39c.49,.26,.87,.59,1.14,.99,.27,.4,.46,.83,.55,1.31,.1,.48,.14,.93,.14,1.36,0,.22-.01,.41-.03,.6-.02,.18-.05,.35-.07,.49h-6.54c-.01,.06-.02,.11-.03,.15,0,.05,0,.09,0,.14v.27c0,.61,.16,1.11,.48,1.48,.32,.37,.86,.56,1.61,.56,.52,0,.97-.12,1.34-.36,.37-.24,.63-.59,.77-1.07h1.94Zm-1.41-2.45c.01-.06,.02-.1,.02-.14v-.4c0-.52-.16-.95-.49-1.28-.33-.33-.78-.5-1.36-.5-.73,0-1.3,.22-1.73,.65-.43,.44-.74,1-.94,1.67h4.5Z" fill="#fff"/><path d="M315.99,59.95c-.15,.67-.33,1.24-.55,1.72-.22,.48-.5,.86-.85,1.16-.35,.29-.77,.51-1.26,.65-.49,.14-1.08,.2-1.78,.2-.5,0-.97-.05-1.42-.15s-.84-.26-1.19-.48c-.35-.22-.62-.51-.83-.87s-.32-.79-.33-1.3h1.94c.02,.5,.22,.85,.6,1.05,.38,.2,.85,.31,1.4,.31,.43,0,.79-.06,1.07-.19,.28-.12,.52-.29,.71-.51,.19-.21,.33-.47,.43-.77,.1-.3,.19-.63,.27-.99l.19-.87-.03-.03c-.61,.88-1.44,1.33-2.48,1.33-1.1,0-1.94-.32-2.53-.96-.59-.64-.88-1.52-.88-2.64,0-.66,.1-1.31,.3-1.96,.2-.65,.49-1.23,.87-1.74,.38-.51,.85-.92,1.42-1.24,.57-.32,1.22-.48,1.95-.48,.65,0,1.2,.13,1.67,.39s.82,.7,1.05,1.31h.03l.25-1.46h1.84l-1.85,8.55Zm-5.59-3.47c0,.29,.03,.58,.1,.84,.07,.27,.18,.5,.32,.7,.15,.2,.34,.35,.57,.47s.51,.17,.84,.17c.52,0,.97-.12,1.33-.36,.37-.24,.67-.54,.91-.92,.24-.37,.41-.79,.52-1.26,.11-.46,.16-.92,.16-1.36,0-.65-.16-1.15-.49-1.52s-.82-.55-1.46-.55c-.48,0-.89,.12-1.24,.37-.35,.24-.64,.55-.88,.93-.23,.37-.41,.79-.52,1.23-.11,.45-.17,.87-.17,1.27Z" fill="#fff"/><path d="M326.46,57.46c-.31,1.03-.82,1.78-1.55,2.25-.73,.47-1.62,.71-2.69,.71-.56,0-1.07-.09-1.54-.26-.47-.18-.88-.43-1.22-.76-.34-.33-.61-.74-.8-1.21-.19-.47-.29-1.01-.29-1.61,0-.68,.11-1.34,.32-1.99,.21-.65,.53-1.22,.94-1.73,.41-.51,.92-.92,1.53-1.23s1.3-.47,2.08-.47,1.42,.13,1.9,.39,.87,.59,1.14,.99c.27,.4,.46,.83,.55,1.31,.1,.48,.14,.93,.14,1.36,0,.22-.01,.41-.03,.6s-.04,.35-.07,.49h-6.54c-.01,.06-.02,.11-.03,.15,0,.05,0,.09,0,.14v.27c0,.61,.16,1.11,.48,1.48,.32,.37,.86,.56,1.61,.56,.52,0,.97-.12,1.34-.36,.37-.24,.63-.59,.77-1.07h1.94Zm-1.41-2.45c.01-.06,.02-.1,.02-.14v-.4c0-.52-.17-.95-.49-1.28-.33-.33-.78-.5-1.36-.5-.73,0-1.3,.22-1.73,.65-.43,.44-.74,1-.94,1.67h4.5Z" fill="#fff"/><path d="M330.37,48.76h1.89l-.54,2.63h1.75l-.31,1.45h-1.75l-.9,4.3c-.04,.19-.08,.37-.12,.54s-.05,.31-.05,.41c0,.19,.04,.35,.13,.47,.08,.12,.27,.18,.57,.18,.15,0,.31,0,.48,0s.36-.03,.55-.08l-.32,1.43c-.25,.06-.52,.1-.8,.14s-.55,.05-.8,.05c-.35,0-.64-.04-.87-.14-.23-.09-.41-.21-.54-.37-.13-.15-.22-.33-.27-.53s-.08-.4-.08-.6c0-.17,.01-.36,.04-.56,.03-.2,.05-.34,.08-.42l1-4.81h-1.53l.31-1.45h1.53l.54-2.63Z" fill="#fff"/><path d="M340.95,57.63c-.03,.16-.07,.31-.11,.46-.04,.15-.06,.28-.06,.41s.03,.22,.08,.29c.06,.07,.16,.1,.32,.1,.11,0,.23-.01,.34-.04,.11-.03,.23-.05,.34-.06l-.31,1.39c-.25,.06-.5,.11-.75,.16-.25,.05-.5,.08-.77,.08-.33,0-.6-.1-.82-.31-.22-.2-.33-.48-.36-.82-.39,.38-.84,.67-1.36,.85-.52,.18-1.05,.27-1.6,.27-.36,0-.71-.05-1.04-.15s-.62-.25-.88-.44c-.26-.19-.46-.44-.6-.73-.15-.29-.22-.63-.22-1.02,0-.54,.1-1,.31-1.37s.48-.67,.82-.91c.34-.24,.73-.41,1.17-.53,.44-.11,.91-.19,1.39-.22,.66-.04,1.3-.1,1.94-.15,.35-.02,.61-.14,.77-.35,.17-.21,.25-.48,.25-.81,0-.42-.15-.7-.44-.84s-.64-.21-1.04-.21c-.54,0-1.01,.09-1.4,.28-.39,.19-.65,.55-.79,1.1h-1.84c.1-.54,.28-1,.53-1.37s.56-.67,.92-.9c.36-.23,.77-.4,1.23-.49,.46-.1,.95-.14,1.47-.14,.79,0,1.41,.08,1.86,.23,.45,.15,.78,.34,.99,.55,.21,.22,.34,.44,.38,.67,.04,.23,.07,.43,.07,.59,0,.39-.06,.83-.17,1.33l-.65,3.11Zm-5.83,.14c0,.22,.05,.39,.14,.54,.1,.14,.22,.26,.37,.34s.31,.15,.49,.19c.18,.04,.36,.06,.54,.06,.48,0,.88-.08,1.2-.24,.32-.16,.59-.37,.8-.65,.21-.27,.37-.59,.49-.96s.21-.76,.28-1.18l-.03-.03c-.14,.14-.32,.23-.54,.29-.23,.06-.45,.1-.66,.12-.27,.02-.59,.05-.94,.07-.36,.02-.69,.08-1,.18-.31,.1-.58,.24-.8,.44-.22,.2-.33,.48-.33,.84Z" fill="#fff"/><path d="M345.49,48.76h1.89l-.54,2.63h1.75l-.31,1.45h-1.75l-.9,4.3c-.04,.19-.08,.37-.12,.54s-.05,.31-.05,.41c0,.19,.04,.35,.13,.47,.08,.12,.27,.18,.57,.18,.15,0,.31,0,.48,0s.36-.03,.55-.08l-.32,1.43c-.25,.06-.52,.1-.8,.14s-.55,.05-.8,.05c-.35,0-.64-.04-.87-.14-.23-.09-.41-.21-.54-.37-.13-.15-.22-.33-.27-.53s-.08-.4-.08-.6c0-.17,.01-.36,.04-.56,.03-.2,.05-.34,.08-.42l1-4.81h-1.53l.31-1.45h1.53l.54-2.63Z" fill="#fff"/><path d="M350.06,51.4h1.94l-1.82,8.79h-1.94l1.82-8.79Zm.7-3.35h1.92l-.37,1.84h-1.92l.37-1.84Z" fill="#fff"/><path d="M356.59,60.42c-1.22,0-2.17-.33-2.84-1s-1-1.61-1-2.85c0-.73,.12-1.41,.36-2.07,.24-.65,.58-1.23,1.01-1.72,.44-.5,.96-.9,1.58-1.19,.62-.29,1.31-.44,2.07-.44,1.22,0,2.17,.32,2.84,.96s1,1.58,1,2.81c0,.77-.11,1.49-.34,2.16s-.56,1.25-.99,1.74-.96,.88-1.58,1.17c-.62,.28-1.32,.42-2.1,.42Zm1.05-7.74c-.5,0-.93,.12-1.3,.37-.37,.25-.68,.56-.93,.94-.25,.38-.43,.8-.55,1.27s-.18,.92-.18,1.36c0,.65,.16,1.18,.49,1.61,.32,.43,.83,.65,1.54,.65,.5,0,.93-.12,1.3-.37,.37-.24,.68-.56,.93-.94,.25-.38,.43-.8,.55-1.27,.12-.47,.18-.93,.18-1.37,0-.65-.16-1.18-.48-1.61s-.84-.65-1.54-.65Z" fill="#fff"/><path d="M364.24,51.4h1.82l-.27,1.28,.03,.03c.35-.49,.79-.87,1.32-1.14,.53-.27,1.1-.41,1.71-.41,.88,0,1.53,.21,1.95,.63,.41,.42,.62,.99,.62,1.7,0,.16,0,.34-.02,.54-.01,.2-.03,.39-.07,.54l-1.17,5.61h-1.94l1.12-5.42c.03-.15,.07-.29,.09-.42,.03-.14,.04-.27,.04-.39,0-.07,0-.17,0-.31,0-.14-.05-.28-.13-.42s-.21-.26-.4-.37c-.19-.1-.46-.15-.81-.15-.38,0-.73,.08-1.03,.25-.3,.17-.57,.37-.81,.6-.23,.23-.42,.51-.59,.84-.17,.33-.29,.68-.37,1.05l-.99,4.76h-1.94l1.82-8.79Z" fill="#fff"/><path d="M379.64,48.05h5.25c.26,0,.61,.02,1.04,.07,.43,.05,.85,.17,1.27,.37,.41,.2,.77,.51,1.07,.93,.3,.41,.45,.99,.45,1.73,0,.96-.24,1.71-.73,2.25-.49,.54-1.16,.89-2.02,1.04v.03c.51,.19,.85,.48,1.03,.86s.26,.82,.26,1.33c0,.42-.03,.84-.1,1.26s-.1,.84-.08,1.26c0,.17,.01,.34,.04,.51,.03,.17,.09,.33,.18,.49h-2.23c-.06-.16-.09-.31-.11-.46-.02-.15-.03-.31-.03-.48,0-.45,.03-.9,.1-1.33s.1-.88,.1-1.32c0-.35-.07-.62-.2-.82-.13-.19-.3-.33-.52-.42-.21-.08-.46-.14-.73-.15-.27-.02-.55-.03-.83-.03h-2.53l-1.04,5h-2.16l2.52-12.14Zm1.02,5.52h3.11c.92,0,1.62-.19,2.1-.57,.48-.38,.72-.93,.72-1.64,0-.33-.06-.6-.18-.81-.12-.21-.28-.37-.48-.48s-.44-.19-.7-.23c-.26-.04-.53-.06-.82-.06h-2.97l-.78,3.79Z" fill="#fff"/><path d="M397.32,57.46c-.31,1.03-.82,1.78-1.55,2.25-.73,.47-1.62,.71-2.69,.71-.55,0-1.07-.09-1.54-.26-.47-.18-.88-.43-1.22-.76-.34-.33-.61-.74-.8-1.21-.19-.47-.29-1.01-.29-1.61,0-.68,.11-1.34,.32-1.99,.21-.65,.53-1.22,.94-1.73,.41-.51,.92-.92,1.53-1.23,.61-.31,1.3-.47,2.08-.47s1.42,.13,1.9,.39,.87,.59,1.14,.99c.27,.4,.46,.83,.55,1.31,.1,.48,.14,.93,.14,1.36,0,.22-.01,.41-.03,.6s-.04,.35-.07,.49h-6.54c-.01,.06-.02,.11-.03,.15,0,.05,0,.09,0,.14v.27c0,.61,.16,1.11,.48,1.48,.32,.37,.86,.56,1.61,.56,.52,0,.97-.12,1.34-.36,.37-.24,.63-.59,.76-1.07h1.94Zm-1.41-2.45c.01-.06,.02-.1,.02-.14v-.4c0-.52-.16-.95-.49-1.28-.33-.33-.78-.5-1.36-.5-.73,0-1.3,.22-1.73,.65-.43,.44-.74,1-.93,1.67h4.5Z" fill="#fff"/><path d="M400.84,48.05h1.94l-2.52,12.14h-1.94l2.52-12.14Z" fill="#fff"/><path d="M410.24,57.63c-.03,.16-.07,.31-.11,.46-.04,.15-.06,.28-.06,.41s.03,.22,.08,.29c.06,.07,.16,.1,.32,.1,.11,0,.23-.01,.34-.04,.11-.03,.23-.05,.34-.06l-.31,1.39c-.25,.06-.5,.11-.75,.16-.25,.05-.5,.08-.77,.08-.33,0-.6-.1-.82-.31-.22-.2-.33-.48-.36-.82-.39,.38-.84,.67-1.36,.85-.52,.18-1.05,.27-1.6,.27-.36,0-.71-.05-1.04-.15s-.62-.25-.88-.44c-.26-.19-.46-.44-.6-.73-.15-.29-.22-.63-.22-1.02,0-.54,.1-1,.31-1.37s.48-.67,.82-.91c.34-.24,.73-.41,1.17-.53,.44-.11,.91-.19,1.39-.22,.66-.04,1.3-.1,1.94-.15,.35-.02,.61-.14,.77-.35,.17-.21,.25-.48,.25-.81,0-.42-.15-.7-.44-.84s-.64-.21-1.04-.21c-.54,0-1.01,.09-1.4,.28-.39,.19-.65,.55-.79,1.1h-1.84c.1-.54,.28-1,.53-1.37s.56-.67,.92-.9c.36-.23,.77-.4,1.23-.49,.46-.1,.95-.14,1.47-.14,.79,0,1.41,.08,1.86,.23,.45,.15,.78,.34,.99,.55,.21,.22,.34,.44,.38,.67,.04,.23,.07,.43,.07,.59,0,.39-.06,.83-.17,1.33l-.65,3.11Zm-5.83,.14c0,.22,.05,.39,.14,.54,.1,.14,.22,.26,.37,.34s.31,.15,.49,.19c.18,.04,.36,.06,.54,.06,.48,0,.88-.08,1.2-.24,.32-.16,.59-.37,.8-.65,.21-.27,.37-.59,.49-.96s.21-.76,.28-1.18l-.03-.03c-.14,.14-.32,.23-.54,.29-.23,.06-.45,.1-.66,.12-.27,.02-.59,.05-.94,.07-.36,.02-.69,.08-1,.18-.31,.1-.58,.24-.8,.44-.22,.2-.33,.48-.33,.84Z" fill="#fff"/><path d="M414.78,48.76h1.89l-.54,2.63h1.75l-.31,1.45h-1.75l-.9,4.3c-.04,.19-.08,.37-.12,.54s-.05,.31-.05,.41c0,.19,.04,.35,.13,.47,.08,.12,.27,.18,.57,.18,.15,0,.31,0,.48,0s.36-.03,.55-.08l-.32,1.43c-.25,.06-.52,.1-.8,.14s-.55,.05-.8,.05c-.35,0-.64-.04-.87-.14-.23-.09-.41-.21-.54-.37-.13-.15-.22-.33-.27-.53s-.08-.4-.08-.6c0-.17,.01-.36,.04-.56,.03-.2,.05-.34,.08-.42l1-4.81h-1.53l.31-1.45h1.53l.54-2.63Z" fill="#fff"/><path d="M419.35,51.4h1.94l-1.82,8.79h-1.94l1.82-8.79Zm.7-3.35h1.92l-.37,1.84h-1.92l.37-1.84Z" fill="#fff"/><path d="M425.88,60.42c-1.22,0-2.17-.33-2.84-1s-1-1.61-1-2.85c0-.73,.12-1.41,.36-2.07,.24-.65,.58-1.23,1.01-1.72,.44-.5,.96-.9,1.58-1.19,.62-.29,1.31-.44,2.07-.44,1.22,0,2.17,.32,2.84,.96s1,1.58,1,2.81c0,.77-.11,1.49-.34,2.16s-.56,1.25-.99,1.74-.96,.88-1.58,1.17c-.62,.28-1.32,.42-2.1,.42Zm1.05-7.74c-.5,0-.93,.12-1.3,.37-.37,.25-.68,.56-.93,.94-.25,.38-.43,.8-.55,1.27s-.18,.92-.18,1.36c0,.65,.16,1.18,.49,1.61,.32,.43,.83,.65,1.54,.65,.5,0,.93-.12,1.3-.37,.37-.24,.68-.56,.93-.94,.25-.38,.43-.8,.55-1.27,.12-.47,.18-.93,.18-1.37,0-.65-.16-1.18-.48-1.61s-.84-.65-1.54-.65Z" fill="#fff"/><path d="M433.53,51.4h1.82l-.27,1.28,.03,.03c.35-.49,.79-.87,1.32-1.14,.53-.27,1.1-.41,1.71-.41,.88,0,1.53,.21,1.95,.63,.41,.42,.62,.99,.62,1.7,0,.16,0,.34-.02,.54-.01,.2-.03,.39-.07,.54l-1.17,5.61h-1.94l1.12-5.42c.03-.15,.07-.29,.09-.42,.03-.14,.04-.27,.04-.39,0-.07,0-.17,0-.31,0-.14-.05-.28-.13-.42s-.21-.26-.4-.37c-.19-.1-.46-.15-.81-.15-.38,0-.73,.08-1.03,.25-.3,.17-.57,.37-.81,.6-.23,.23-.42,.51-.59,.84-.17,.33-.29,.68-.37,1.05l-.99,4.76h-1.94l1.82-8.79Z" fill="#fff"/><path d="M447.69,53.96c-.01-.44-.18-.77-.5-.97-.32-.2-.75-.31-1.27-.31-.19,0-.38,.02-.55,.05s-.33,.09-.48,.18-.25,.2-.34,.34-.13,.32-.13,.54c0,.2,.08,.37,.23,.49,.15,.12,.35,.24,.6,.33s.53,.19,.83,.27,.61,.18,.92,.3c.26,.1,.52,.22,.76,.34,.25,.12,.47,.28,.66,.46,.19,.18,.34,.4,.45,.65s.17,.55,.17,.9c0,.51-.11,.95-.34,1.31-.23,.36-.52,.66-.88,.9-.36,.24-.78,.41-1.25,.52s-.94,.16-1.42,.16c-.51,0-.99-.05-1.43-.14-.44-.1-.83-.26-1.16-.49-.33-.23-.59-.54-.78-.94-.19-.39-.29-.89-.31-1.49h1.84c-.02,.56,.15,.95,.53,1.18s.84,.35,1.41,.35c.2,0,.41-.02,.63-.06,.22-.04,.41-.1,.59-.2,.18-.09,.33-.22,.45-.38,.12-.16,.18-.37,.18-.62,0-.23-.08-.41-.25-.56-.16-.15-.37-.27-.63-.38-.25-.11-.54-.21-.87-.3s-.64-.19-.94-.31c-.26-.09-.51-.2-.74-.32s-.44-.27-.62-.45c-.18-.18-.32-.38-.42-.62-.1-.24-.15-.52-.15-.85,0-.48,.1-.88,.31-1.22,.21-.34,.48-.62,.82-.83,.34-.21,.72-.37,1.16-.48,.43-.1,.87-.15,1.33-.15,.48,0,.92,.04,1.34,.13,.42,.08,.78,.24,1.1,.45,.31,.22,.55,.5,.73,.87,.18,.36,.26,.82,.25,1.36h-1.84Z" fill="#fff"/><path d="M452.48,48.05h1.94l-.95,4.59h.03c.33-.44,.75-.8,1.28-1.07,.52-.27,1.06-.41,1.61-.41,.88,0,1.53,.21,1.95,.63,.41,.42,.62,.99,.62,1.7,0,.16,0,.34-.02,.54-.01,.2-.03,.39-.07,.54l-1.17,5.61h-1.94l1.12-5.42c.03-.15,.07-.29,.09-.42,.03-.14,.04-.27,.04-.39,0-.07,0-.17,0-.31,0-.14-.05-.28-.13-.42s-.21-.26-.4-.37c-.19-.1-.46-.15-.81-.15-.38,0-.73,.08-1.03,.25-.3,.17-.57,.37-.81,.6-.23,.23-.42,.51-.59,.84-.17,.33-.29,.68-.37,1.05l-.99,4.76h-1.94l2.52-12.14Z" fill="#fff"/><path d="M461.54,51.4h1.94l-1.82,8.79h-1.94l1.82-8.79Zm.7-3.35h1.92l-.37,1.84h-1.92l.37-1.84Z" fill="#fff"/><path d="M465.67,51.4h1.92l-.25,1.12,.03,.03c.31-.44,.71-.79,1.21-1.03,.5-.24,1.02-.37,1.56-.37s1.03,.09,1.45,.27c.42,.18,.77,.43,1.04,.76,.28,.32,.49,.71,.63,1.16,.14,.45,.21,.93,.21,1.45,0,.67-.09,1.34-.27,2.01-.18,.67-.46,1.28-.83,1.81-.37,.53-.84,.97-1.41,1.3-.57,.33-1.23,.5-1.99,.5-.65,0-1.22-.11-1.72-.33-.5-.22-.88-.64-1.16-1.27h-.03l-.95,4.61h-1.94l2.5-12.04Zm.92,5.24c0,.32,.04,.61,.11,.88,.07,.27,.19,.51,.34,.71s.35,.37,.6,.48c.25,.12,.54,.18,.88,.18,.52,0,.97-.12,1.35-.35s.69-.54,.93-.91c.24-.37,.43-.79,.54-1.26,.12-.46,.18-.93,.18-1.39,0-.32-.04-.61-.11-.89-.07-.28-.19-.52-.35-.73-.16-.21-.36-.37-.6-.49-.24-.12-.54-.18-.88-.18-.52,0-.97,.12-1.35,.36-.38,.24-.69,.55-.94,.93-.24,.38-.42,.81-.54,1.28-.12,.47-.18,.93-.18,1.39Z" fill="#fff"/><path d="M480.43,53.96c-.01-.44-.18-.77-.5-.97-.32-.2-.75-.31-1.27-.31-.19,0-.38,.02-.55,.05s-.33,.09-.48,.18-.25,.2-.34,.34-.13,.32-.13,.54c0,.2,.08,.37,.23,.49,.15,.12,.35,.24,.6,.33s.53,.19,.83,.27,.61,.18,.92,.3c.26,.1,.52,.22,.76,.34,.25,.12,.47,.28,.66,.46,.19,.18,.34,.4,.45,.65s.17,.55,.17,.9c0,.51-.11,.95-.34,1.31-.23,.36-.52,.66-.88,.9-.36,.24-.78,.41-1.25,.52s-.94,.16-1.42,.16c-.51,0-.99-.05-1.43-.14-.44-.1-.83-.26-1.16-.49-.33-.23-.59-.54-.78-.94-.19-.39-.29-.89-.31-1.49h1.84c-.02,.56,.15,.95,.53,1.18s.84,.35,1.41,.35c.2,0,.41-.02,.63-.06,.22-.04,.41-.1,.59-.2,.18-.09,.33-.22,.45-.38,.12-.16,.18-.37,.18-.62,0-.23-.08-.41-.25-.56-.16-.15-.37-.27-.63-.38-.25-.11-.54-.21-.87-.3s-.64-.19-.94-.31c-.26-.09-.51-.2-.74-.32s-.44-.27-.62-.45c-.18-.18-.32-.38-.42-.62-.1-.24-.15-.52-.15-.85,0-.48,.1-.88,.31-1.22,.21-.34,.48-.62,.82-.83,.34-.21,.72-.37,1.16-.48,.43-.1,.87-.15,1.33-.15,.48,0,.92,.04,1.34,.13,.42,.08,.78,.24,1.1,.45,.31,.22,.55,.5,.73,.87,.18,.36,.26,.82,.25,1.36h-1.84Z" fill="#fff"/><path d="M83.71,71.8h1.94l-1.82,8.79h-1.94l1.82-8.79Zm.7-3.35h1.92l-.37,1.84h-1.92l.37-1.84Z" fill="#fff"/><path d="M87.8,71.8h1.82l-.27,1.28,.03,.03c.35-.49,.79-.87,1.32-1.14,.53-.27,1.1-.41,1.71-.41,.88,0,1.53,.21,1.95,.63,.41,.42,.62,.99,.62,1.7,0,.16,0,.34-.02,.54s-.03,.39-.07,.54l-1.17,5.61h-1.94l1.12-5.42c.03-.15,.07-.29,.09-.42,.03-.14,.04-.27,.04-.39,0-.07,0-.17,0-.31s-.05-.28-.13-.42-.21-.26-.4-.37c-.19-.1-.46-.15-.81-.15-.39,0-.73,.08-1.03,.25-.3,.17-.57,.37-.81,.6-.23,.23-.42,.51-.59,.84-.16,.33-.29,.68-.37,1.05l-.99,4.76h-1.94l1.82-8.79Z" fill="#fff"/><path d="M103.2,68.45h8.84l-.37,1.84h-6.75l-.66,3.18h6.26l-.36,1.73h-6.27l-.73,3.55h6.8l-.37,1.84h-8.89l2.52-12.14Z" fill="#fff"/><path d="M119,78.04c-.03,.16-.07,.31-.11,.46s-.06,.28-.06,.41,.03,.22,.08,.29c.06,.07,.16,.1,.32,.1,.11,0,.23-.01,.34-.04,.11-.03,.23-.05,.34-.06l-.31,1.39c-.25,.06-.5,.11-.75,.16-.25,.05-.5,.08-.77,.08-.33,0-.6-.1-.82-.31s-.33-.48-.36-.82c-.39,.38-.84,.67-1.36,.85-.52,.18-1.05,.27-1.6,.27-.36,0-.71-.05-1.04-.15s-.62-.25-.88-.44c-.25-.19-.46-.44-.6-.73-.15-.29-.22-.63-.22-1.02,0-.54,.1-1,.31-1.37,.2-.37,.48-.67,.82-.91,.34-.24,.73-.41,1.17-.53s.91-.19,1.39-.22c.66-.04,1.3-.1,1.94-.15,.35-.02,.61-.14,.77-.35,.16-.21,.25-.48,.25-.81,0-.42-.15-.7-.44-.84-.29-.14-.64-.21-1.04-.21-.54,0-1.01,.09-1.4,.28-.39,.19-.65,.55-.79,1.1h-1.84c.1-.54,.28-1,.53-1.37,.25-.37,.56-.67,.92-.9,.36-.23,.77-.4,1.23-.49,.46-.1,.95-.14,1.47-.14,.79,0,1.41,.08,1.86,.23,.45,.15,.78,.34,.99,.55,.21,.22,.34,.44,.38,.67s.07,.43,.07,.59c0,.39-.06,.83-.17,1.33l-.65,3.11Zm-5.83,.14c0,.22,.05,.39,.14,.54,.1,.14,.22,.26,.37,.34s.31,.15,.49,.19c.18,.04,.36,.06,.54,.06,.48,0,.88-.08,1.2-.24,.32-.16,.59-.37,.8-.65,.21-.27,.37-.59,.49-.96,.12-.37,.21-.76,.28-1.18l-.03-.03c-.14,.14-.32,.23-.54,.29-.23,.06-.45,.1-.66,.12-.27,.02-.59,.05-.94,.07s-.69,.08-1,.18c-.31,.1-.58,.24-.8,.44-.22,.2-.33,.48-.33,.84Z" fill="#fff"/><path d="M126.85,74.36c-.01-.44-.18-.77-.5-.97-.32-.2-.75-.31-1.27-.31-.19,0-.38,.02-.55,.05s-.33,.09-.48,.18c-.14,.08-.26,.2-.34,.34s-.13,.32-.13,.54c0,.2,.08,.37,.23,.49,.15,.12,.35,.24,.6,.33,.25,.1,.53,.19,.83,.27s.61,.18,.92,.3c.26,.1,.52,.22,.77,.34,.25,.12,.47,.28,.65,.46,.19,.18,.34,.4,.45,.65s.17,.55,.17,.9c0,.51-.11,.95-.34,1.31-.23,.36-.52,.66-.88,.9-.36,.24-.78,.41-1.25,.52s-.94,.16-1.42,.16c-.51,0-.99-.05-1.43-.14-.44-.1-.83-.26-1.16-.49s-.59-.54-.78-.94c-.19-.39-.29-.89-.31-1.49h1.84c-.02,.56,.15,.95,.53,1.18s.84,.35,1.41,.35c.2,0,.41-.02,.63-.06,.22-.04,.41-.1,.6-.2,.18-.09,.33-.22,.45-.38,.12-.16,.18-.37,.18-.62,0-.23-.08-.41-.25-.56-.16-.15-.37-.27-.63-.38-.25-.11-.54-.21-.87-.3-.32-.09-.64-.19-.94-.31-.26-.09-.51-.2-.74-.32-.23-.12-.44-.27-.62-.45-.18-.18-.32-.38-.42-.62-.1-.24-.15-.52-.15-.85,0-.48,.1-.88,.31-1.22,.21-.34,.48-.62,.82-.83,.34-.21,.73-.37,1.16-.48s.87-.15,1.33-.15c.48,0,.92,.04,1.34,.13s.78,.24,1.1,.45c.31,.22,.56,.5,.73,.87,.18,.36,.26,.82,.25,1.36h-1.84Z" fill="#fff"/><path d="M132.04,69.16h1.89l-.54,2.63h1.75l-.31,1.45h-1.75l-.9,4.3c-.05,.19-.08,.37-.12,.54-.03,.17-.05,.31-.05,.41,0,.19,.04,.35,.13,.47,.08,.12,.27,.18,.57,.18,.15,0,.31,0,.48,0,.18,0,.36-.03,.55-.08l-.32,1.43c-.25,.06-.52,.1-.8,.14s-.55,.05-.8,.05c-.35,0-.64-.04-.87-.14-.23-.09-.41-.21-.54-.37-.13-.15-.22-.33-.27-.53-.05-.2-.08-.4-.08-.6,0-.17,.01-.36,.04-.56,.03-.2,.05-.34,.08-.42l1-4.81h-1.53l.31-1.45h1.53l.54-2.63Z" fill="#fff"/><path d="M143.24,77.87c-.31,1.03-.82,1.78-1.55,2.25-.73,.47-1.62,.71-2.69,.71-.56,0-1.07-.09-1.54-.26-.47-.18-.88-.43-1.22-.76-.34-.33-.61-.74-.8-1.21-.19-.47-.29-1.01-.29-1.61,0-.68,.11-1.34,.32-1.99,.21-.65,.53-1.22,.94-1.73,.41-.51,.92-.92,1.53-1.23s1.3-.47,2.08-.47,1.42,.13,1.9,.39c.49,.26,.87,.59,1.14,.99,.27,.4,.46,.83,.55,1.31,.1,.48,.14,.93,.14,1.36,0,.22-.01,.41-.03,.6-.02,.18-.05,.35-.07,.49h-6.54c-.01,.06-.02,.11-.03,.15,0,.05,0,.09,0,.14v.27c0,.61,.16,1.11,.48,1.48,.32,.37,.86,.56,1.61,.56,.52,0,.97-.12,1.34-.36,.37-.24,.63-.59,.77-1.07h1.94Zm-1.41-2.45c.01-.06,.02-.1,.02-.14v-.4c0-.52-.16-.95-.49-1.28-.33-.33-.78-.5-1.36-.5-.73,0-1.3,.22-1.73,.65-.43,.44-.74,1-.94,1.67h4.5Z" fill="#fff"/><path d="M146.06,71.8h1.84l-.36,1.72,.03,.03c.14-.24,.3-.48,.5-.71s.42-.45,.65-.64c.24-.19,.5-.34,.77-.46,.28-.12,.57-.18,.88-.18,.16,0,.31,0,.47,0,.15,0,.31,.02,.47,.04l-.41,1.85c-.11-.02-.23-.04-.34-.05-.11-.01-.23-.02-.34-.02-.5,0-.93,.09-1.3,.26-.37,.18-.68,.42-.94,.72s-.46,.66-.62,1.05c-.16,.4-.28,.82-.37,1.26l-.82,3.89h-1.94l1.82-8.79Z" fill="#fff"/><path d="M152.35,71.8h1.82l-.27,1.28,.03,.03c.35-.49,.79-.87,1.32-1.14,.53-.27,1.1-.41,1.71-.41,.88,0,1.53,.21,1.95,.63,.41,.42,.62,.99,.62,1.7,0,.16,0,.34-.02,.54s-.03,.39-.07,.54l-1.17,5.61h-1.94l1.12-5.42c.03-.15,.07-.29,.09-.42,.03-.14,.04-.27,.04-.39,0-.07,0-.17,0-.31s-.05-.28-.13-.42-.21-.26-.4-.37c-.19-.1-.46-.15-.81-.15-.39,0-.73,.08-1.03,.25-.3,.17-.57,.37-.81,.6-.23,.23-.42,.51-.59,.84-.16,.33-.29,.68-.37,1.05l-.99,4.76h-1.94l1.82-8.79Z" fill="#fff"/><path d="M172.84,78.04c-.03,.16-.07,.31-.11,.46s-.06,.28-.06,.41,.03,.22,.08,.29c.06,.07,.16,.1,.32,.1,.11,0,.23-.01,.34-.04,.11-.03,.23-.05,.34-.06l-.31,1.39c-.25,.06-.5,.11-.75,.16-.25,.05-.5,.08-.77,.08-.33,0-.6-.1-.82-.31s-.33-.48-.36-.82c-.39,.38-.84,.67-1.36,.85-.52,.18-1.05,.27-1.6,.27-.36,0-.71-.05-1.04-.15s-.62-.25-.88-.44c-.25-.19-.46-.44-.6-.73-.15-.29-.22-.63-.22-1.02,0-.54,.1-1,.31-1.37,.2-.37,.48-.67,.82-.91,.34-.24,.73-.41,1.17-.53s.91-.19,1.39-.22c.66-.04,1.3-.1,1.94-.15,.35-.02,.61-.14,.77-.35,.16-.21,.25-.48,.25-.81,0-.42-.15-.7-.44-.84-.29-.14-.64-.21-1.04-.21-.54,0-1.01,.09-1.4,.28-.39,.19-.65,.55-.79,1.1h-1.84c.1-.54,.28-1,.53-1.37,.25-.37,.56-.67,.92-.9,.36-.23,.77-.4,1.23-.49,.46-.1,.95-.14,1.47-.14,.79,0,1.41,.08,1.86,.23,.45,.15,.78,.34,.99,.55,.21,.22,.34,.44,.38,.67s.07,.43,.07,.59c0,.39-.06,.83-.17,1.33l-.65,3.11Zm-5.83,.14c0,.22,.05,.39,.14,.54,.1,.14,.22,.26,.37,.34s.31,.15,.49,.19c.18,.04,.36,.06,.54,.06,.48,0,.88-.08,1.2-.24,.32-.16,.59-.37,.8-.65,.21-.27,.37-.59,.49-.96,.12-.37,.21-.76,.28-1.18l-.03-.03c-.14,.14-.32,.23-.54,.29-.23,.06-.45,.1-.66,.12-.27,.02-.59,.05-.94,.07s-.69,.08-1,.18c-.31,.1-.58,.24-.8,.44-.22,.2-.33,.48-.33,.84Z" fill="#fff"/><path d="M176.29,71.8h1.82l-.27,1.28,.03,.03c.35-.49,.79-.87,1.32-1.14,.53-.27,1.1-.41,1.71-.41,.88,0,1.53,.21,1.95,.63,.41,.42,.62,.99,.62,1.7,0,.16,0,.34-.02,.54s-.03,.39-.07,.54l-1.17,5.61h-1.94l1.12-5.42c.03-.15,.07-.29,.09-.42,.03-.14,.04-.27,.04-.39,0-.07,0-.17,0-.31s-.05-.28-.13-.42-.21-.26-.4-.37c-.19-.1-.46-.15-.81-.15-.39,0-.73,.08-1.03,.25-.3,.17-.57,.37-.81,.6-.23,.23-.42,.51-.59,.84-.16,.33-.29,.68-.37,1.05l-.99,4.76h-1.94l1.82-8.79Z" fill="#fff"/><path d="M192.39,80.58h-1.85l.27-1.19-.03-.03c-.39,.57-.81,.95-1.27,1.16s-.96,.31-1.48,.31c-.25,0-.57-.03-.95-.1-.39-.07-.76-.22-1.13-.47-.37-.24-.68-.6-.94-1.08-.26-.48-.39-1.13-.39-1.96,0-.71,.11-1.41,.32-2.08,.21-.67,.53-1.28,.94-1.81,.41-.53,.91-.96,1.5-1.28,.59-.32,1.26-.48,2.02-.48,.59,0,1.12,.11,1.6,.32,.48,.22,.83,.59,1.05,1.12h.03l.97-4.56h1.94l-2.58,12.14Zm-.83-5.39c0-.28-.04-.56-.11-.82-.07-.26-.19-.48-.34-.67-.15-.19-.35-.34-.6-.45s-.54-.17-.88-.17c-.54,0-1.01,.12-1.39,.37-.39,.24-.7,.56-.95,.96s-.43,.84-.55,1.33c-.12,.49-.18,.98-.18,1.47,0,.66,.16,1.17,.49,1.53,.33,.36,.83,.54,1.51,.54,.5,0,.94-.13,1.31-.39s.69-.59,.94-1c.25-.4,.44-.84,.57-1.33,.12-.48,.19-.94,.19-1.38Z" fill="#fff"/><path d="M202.08,68.45h5.24c.8,0,1.44,.11,1.91,.32,.47,.22,.83,.47,1.07,.77s.4,.61,.47,.93c.07,.33,.1,.6,.1,.82,0,.36-.05,.71-.16,1.03-.11,.32-.26,.62-.47,.88s-.45,.48-.74,.65-.61,.28-.96,.34v.03c1.21,.39,1.82,1.24,1.82,2.55,0,.32-.06,.69-.19,1.13-.12,.44-.35,.86-.69,1.26-.33,.4-.8,.74-1.39,1.02-.6,.28-1.36,.42-2.29,.42h-6.24l2.52-12.14Zm-.03,10.4h3.04c.18,0,.44,0,.77-.02,.33-.01,.66-.07,1-.18,.34-.11,.64-.29,.91-.55,.27-.26,.42-.64,.47-1.14,.01-.15,0-.33,0-.54-.02-.21-.1-.42-.24-.63s-.36-.38-.66-.52-.72-.21-1.27-.21h-3.21l-.8,3.79Zm1.1-5.32h3.18c.52,0,.94-.07,1.26-.2s.56-.3,.73-.5,.28-.41,.34-.63,.08-.41,.08-.57c0-.12-.02-.27-.05-.43s-.11-.32-.24-.48c-.12-.15-.31-.28-.56-.38-.25-.1-.59-.15-1.02-.15h-3.03l-.7,3.35Z" fill="#fff"/><path d="M215.56,80.82c-1.22,0-2.17-.33-2.84-1-.67-.66-1-1.61-1-2.85,0-.73,.12-1.41,.36-2.07,.24-.65,.58-1.23,1.01-1.72,.44-.5,.96-.9,1.58-1.19s1.31-.44,2.07-.44c1.22,0,2.17,.32,2.84,.96,.67,.64,1,1.58,1,2.81,0,.77-.11,1.49-.34,2.16-.23,.67-.56,1.25-.99,1.74-.44,.49-.96,.88-1.58,1.17-.62,.28-1.32,.42-2.1,.42Zm1.05-7.74c-.5,0-.93,.12-1.3,.37s-.68,.56-.93,.94c-.25,.38-.43,.8-.55,1.27-.12,.46-.18,.92-.18,1.36,0,.65,.16,1.18,.48,1.61,.32,.43,.84,.65,1.54,.65,.5,0,.93-.12,1.3-.37,.37-.24,.68-.56,.93-.94,.25-.38,.43-.8,.55-1.27,.12-.47,.18-.93,.18-1.37,0-.65-.16-1.18-.48-1.61-.32-.43-.84-.65-1.54-.65Z" fill="#fff"/><path d="M223.21,71.8h1.84l-.36,1.72,.03,.03c.14-.24,.3-.48,.5-.71s.42-.45,.65-.64c.24-.19,.5-.34,.77-.46,.28-.12,.57-.18,.88-.18,.16,0,.31,0,.47,0,.15,0,.31,.02,.47,.04l-.41,1.85c-.11-.02-.23-.04-.34-.05-.11-.01-.23-.02-.34-.02-.5,0-.93,.09-1.3,.26-.37,.18-.68,.42-.94,.72s-.46,.66-.62,1.05c-.16,.4-.28,.82-.37,1.26l-.82,3.89h-1.94l1.82-8.79Z" fill="#fff"/><path d="M236.13,77.87c-.31,1.03-.82,1.78-1.55,2.25-.73,.47-1.62,.71-2.69,.71-.56,0-1.07-.09-1.54-.26-.47-.18-.88-.43-1.22-.76-.34-.33-.61-.74-.8-1.21-.19-.47-.29-1.01-.29-1.61,0-.68,.11-1.34,.32-1.99,.21-.65,.53-1.22,.94-1.73,.41-.51,.92-.92,1.53-1.23s1.3-.47,2.08-.47,1.42,.13,1.9,.39c.49,.26,.87,.59,1.14,.99,.27,.4,.46,.83,.55,1.31,.1,.48,.14,.93,.14,1.36,0,.22-.01,.41-.03,.6-.02,.18-.05,.35-.07,.49h-6.54c-.01,.06-.02,.11-.03,.15,0,.05,0,.09,0,.14v.27c0,.61,.16,1.11,.48,1.48,.32,.37,.86,.56,1.61,.56,.52,0,.97-.12,1.34-.36,.37-.24,.63-.59,.77-1.07h1.94Zm-1.41-2.45c.01-.06,.02-.1,.02-.14v-.4c0-.52-.16-.95-.49-1.28-.33-.33-.78-.5-1.36-.5-.73,0-1.3,.22-1.73,.65-.43,.44-.74,1-.94,1.67h4.5Z" fill="#fff"/><path d="M244.95,78.04c-.03,.16-.07,.31-.11,.46s-.06,.28-.06,.41,.03,.22,.08,.29c.06,.07,.16,.1,.32,.1,.11,0,.23-.01,.34-.04,.11-.03,.23-.05,.34-.06l-.31,1.39c-.25,.06-.5,.11-.75,.16-.25,.05-.5,.08-.77,.08-.33,0-.6-.1-.82-.31s-.33-.48-.36-.82c-.39,.38-.84,.67-1.36,.85-.52,.18-1.05,.27-1.6,.27-.36,0-.71-.05-1.04-.15s-.62-.25-.88-.44c-.25-.19-.46-.44-.6-.73-.15-.29-.22-.63-.22-1.02,0-.54,.1-1,.31-1.37,.2-.37,.48-.67,.82-.91,.34-.24,.73-.41,1.17-.53s.91-.19,1.39-.22c.66-.04,1.3-.1,1.94-.15,.35-.02,.61-.14,.77-.35,.16-.21,.25-.48,.25-.81,0-.42-.15-.7-.44-.84-.29-.14-.64-.21-1.04-.21-.54,0-1.01,.09-1.4,.28-.39,.19-.65,.55-.79,1.1h-1.84c.1-.54,.28-1,.53-1.37,.25-.37,.56-.67,.92-.9,.36-.23,.77-.4,1.23-.49,.46-.1,.95-.14,1.47-.14,.79,0,1.41,.08,1.86,.23,.45,.15,.78,.34,.99,.55,.21,.22,.34,.44,.38,.67s.07,.43,.07,.59c0,.39-.06,.83-.17,1.33l-.65,3.11Zm-5.83,.14c0,.22,.05,.39,.14,.54,.1,.14,.22,.26,.37,.34s.31,.15,.49,.19c.18,.04,.36,.06,.54,.06,.48,0,.88-.08,1.2-.24,.32-.16,.59-.37,.8-.65,.21-.27,.37-.59,.49-.96,.12-.37,.21-.76,.28-1.18l-.03-.03c-.14,.14-.32,.23-.54,.29-.23,.06-.45,.1-.66,.12-.27,.02-.59,.05-.94,.07s-.69,.08-1,.18c-.31,.1-.58,.24-.8,.44-.22,.2-.33,.48-.33,.84Z" fill="#fff"/><path d="M249.1,68.45h1.94l-2.52,12.14h-1.94l2.52-12.14Z" fill="#fff"/><path d="M258.16,68.45h8.28l-.37,1.84h-6.17l-.66,3.18h5.35l-.37,1.73h-5.34l-1.12,5.39h-2.12l2.53-12.14Z" fill="#fff"/><path d="M269.74,80.82c-1.22,0-2.17-.33-2.84-1-.67-.66-1-1.61-1-2.85,0-.73,.12-1.41,.36-2.07,.24-.65,.58-1.23,1.01-1.72,.44-.5,.96-.9,1.58-1.19s1.31-.44,2.07-.44c1.22,0,2.17,.32,2.84,.96,.67,.64,1,1.58,1,2.81,0,.77-.11,1.49-.34,2.16-.23,.67-.56,1.25-.99,1.74-.44,.49-.96,.88-1.58,1.17-.62,.28-1.32,.42-2.1,.42Zm1.05-7.74c-.5,0-.93,.12-1.3,.37s-.68,.56-.93,.94c-.25,.38-.43,.8-.55,1.27-.12,.46-.18,.92-.18,1.36,0,.65,.16,1.18,.48,1.61,.32,.43,.84,.65,1.54,.65,.5,0,.93-.12,1.3-.37,.37-.24,.68-.56,.93-.94,.25-.38,.43-.8,.55-1.27,.12-.47,.18-.93,.18-1.37,0-.65-.16-1.18-.48-1.61-.32-.43-.84-.65-1.54-.65Z" fill="#fff"/><path d="M277.39,71.8h1.84l-.36,1.72,.03,.03c.14-.24,.3-.48,.5-.71s.42-.45,.65-.64c.24-.19,.5-.34,.77-.46,.28-.12,.57-.18,.88-.18,.16,0,.31,0,.47,0,.15,0,.31,.02,.47,.04l-.41,1.85c-.11-.02-.23-.04-.34-.05-.11-.01-.23-.02-.34-.02-.5,0-.93,.09-1.3,.26-.37,.18-.68,.42-.94,.72s-.46,.66-.62,1.05c-.16,.4-.28,.82-.37,1.26l-.82,3.89h-1.94l1.82-8.79Z" fill="#fff"/><path d="M290.31,77.87c-.31,1.03-.82,1.78-1.55,2.25-.73,.47-1.62,.71-2.69,.71-.56,0-1.07-.09-1.54-.26-.47-.18-.88-.43-1.22-.76-.34-.33-.61-.74-.8-1.21-.19-.47-.29-1.01-.29-1.61,0-.68,.11-1.34,.32-1.99,.21-.65,.53-1.22,.94-1.73,.41-.51,.92-.92,1.53-1.23s1.3-.47,2.08-.47,1.42,.13,1.9,.39c.49,.26,.87,.59,1.14,.99,.27,.4,.46,.83,.55,1.31,.1,.48,.14,.93,.14,1.36,0,.22-.01,.41-.03,.6-.02,.18-.05,.35-.07,.49h-6.54c-.01,.06-.02,.11-.03,.15,0,.05,0,.09,0,.14v.27c0,.61,.16,1.11,.48,1.48,.32,.37,.86,.56,1.61,.56,.52,0,.97-.12,1.34-.36,.37-.24,.63-.59,.77-1.07h1.94Zm-1.41-2.45c.01-.06,.02-.1,.02-.14v-.4c0-.52-.16-.95-.49-1.28-.33-.33-.78-.5-1.36-.5-.73,0-1.3,.22-1.73,.65-.43,.44-.74,1-.94,1.67h4.5Z" fill="#fff"/><path d="M297.53,74.36c-.01-.44-.18-.77-.5-.97-.32-.2-.75-.31-1.27-.31-.19,0-.38,.02-.55,.05s-.33,.09-.48,.18c-.14,.08-.26,.2-.34,.34s-.13,.32-.13,.54c0,.2,.08,.37,.23,.49,.15,.12,.35,.24,.6,.33,.25,.1,.53,.19,.83,.27s.61,.18,.92,.3c.26,.1,.52,.22,.77,.34,.25,.12,.47,.28,.65,.46,.19,.18,.34,.4,.45,.65s.17,.55,.17,.9c0,.51-.11,.95-.34,1.31-.23,.36-.52,.66-.88,.9-.36,.24-.78,.41-1.25,.52s-.94,.16-1.42,.16c-.51,0-.99-.05-1.43-.14-.44-.1-.83-.26-1.16-.49s-.59-.54-.78-.94c-.19-.39-.29-.89-.31-1.49h1.84c-.02,.56,.15,.95,.53,1.18s.84,.35,1.41,.35c.2,0,.41-.02,.63-.06,.22-.04,.41-.1,.6-.2,.18-.09,.33-.22,.45-.38,.12-.16,.18-.37,.18-.62,0-.23-.08-.41-.25-.56-.16-.15-.37-.27-.63-.38-.25-.11-.54-.21-.87-.3-.32-.09-.64-.19-.94-.31-.26-.09-.51-.2-.74-.32-.23-.12-.44-.27-.62-.45-.18-.18-.32-.38-.42-.62-.1-.24-.15-.52-.15-.85,0-.48,.1-.88,.31-1.22,.21-.34,.48-.62,.82-.83,.34-.21,.73-.37,1.16-.48s.87-.15,1.33-.15c.48,0,.92,.04,1.34,.13s.78,.24,1.1,.45c.31,.22,.56,.5,.73,.87,.18,.36,.26,.82,.25,1.36h-1.84Z" fill="#fff"/><path d="M302.72,69.16h1.89l-.54,2.63h1.75l-.31,1.45h-1.75l-.9,4.3c-.05,.19-.08,.37-.12,.54-.03,.17-.05,.31-.05,.41,0,.19,.04,.35,.13,.47,.08,.12,.27,.18,.57,.18,.15,0,.31,0,.48,0,.18,0,.36-.03,.55-.08l-.32,1.43c-.25,.06-.52,.1-.8,.14s-.55,.05-.8,.05c-.35,0-.64-.04-.87-.14-.23-.09-.41-.21-.54-.37-.13-.15-.22-.33-.27-.53-.05-.2-.08-.4-.08-.6,0-.17,.01-.36,.04-.56,.03-.2,.05-.34,.08-.42l1-4.81h-1.53l.31-1.45h1.53l.54-2.63Z" fill="#fff"/><path d="M311.69,74.36c-.01-.44-.18-.77-.5-.97-.32-.2-.75-.31-1.27-.31-.19,0-.38,.02-.55,.05s-.33,.09-.48,.18c-.14,.08-.26,.2-.34,.34s-.13,.32-.13,.54c0,.2,.08,.37,.23,.49,.15,.12,.35,.24,.6,.33,.25,.1,.53,.19,.83,.27s.61,.18,.92,.3c.26,.1,.52,.22,.77,.34,.25,.12,.47,.28,.65,.46,.19,.18,.34,.4,.45,.65s.17,.55,.17,.9c0,.51-.11,.95-.34,1.31-.23,.36-.52,.66-.88,.9-.36,.24-.78,.41-1.25,.52s-.94,.16-1.42,.16c-.51,0-.99-.05-1.43-.14-.44-.1-.83-.26-1.16-.49s-.59-.54-.78-.94c-.19-.39-.29-.89-.31-1.49h1.84c-.02,.56,.15,.95,.53,1.18s.84,.35,1.41,.35c.2,0,.41-.02,.63-.06,.22-.04,.41-.1,.6-.2,.18-.09,.33-.22,.45-.38,.12-.16,.18-.37,.18-.62,0-.23-.08-.41-.25-.56-.16-.15-.37-.27-.63-.38-.25-.11-.54-.21-.87-.3-.32-.09-.64-.19-.94-.31-.26-.09-.51-.2-.74-.32-.23-.12-.44-.27-.62-.45-.18-.18-.32-.38-.42-.62-.1-.24-.15-.52-.15-.85,0-.48,.1-.88,.31-1.22,.21-.34,.48-.62,.82-.83,.34-.21,.73-.37,1.16-.48s.87-.15,1.33-.15c.48,0,.92,.04,1.34,.13s.78,.24,1.1,.45c.31,.22,.56,.5,.73,.87,.18,.36,.26,.82,.25,1.36h-1.84Z" fill="#fff"/></g></svg>