<svg xmlns="http://www.w3.org/2000/svg" viewBox="0 0 88 24"><rect x="0.5" y="0.5" width="87" height="23" fill="#f2f2f2"/><path d="M87,1V23H1V1H87m1-1H0V24H88V0Z" transform="translate(0 0.02)" fill="#a0a0a0"/><path d="M17.12,14.24H14.74v2.64H13.41V8.26h3.9a2.8,2.8,0,0,1,3,3A2.82,2.82,0,0,1,18.51,14l2.36,2.86H19.24ZM14.74,9.47V13h2.32a1.75,1.75,0,0,0,1.87-1.76,1.73,1.73,0,0,0-1.87-1.81Z" transform="translate(0 0.02)" fill="#5f5f5f"/><path d="M28.69,16.88H22.3V8.26h6.25V9.47H23.63v2.38h4.26v1.21H23.63v2.61h5.06Z" transform="translate(0 0.02)" fill="#5f5f5f"/><path d="M36.47,13.31H33.84v-1.2h3.94v4.22a6.61,6.61,0,0,1-3,.68c-3.13,0-5.14-1.8-5.14-4.43s2-4.44,5.19-4.44a6.09,6.09,0,0,1,2.67.58L37.33,10a5.93,5.93,0,0,0-2.54-.56C32.45,9.41,31,10.7,31,12.58s1.41,3.16,3.69,3.16a4.53,4.53,0,0,0,1.76-.29Z" transform="translate(0 0.02)" fill="#5f5f5f"/><path d="M41,16.88H39.64V8.26H41Z" transform="translate(0 0.02)" fill="#5f5f5f"/><path d="M48.52,8.6,48.4,9.87a5.25,5.25,0,0,0-2.35-.52c-1.13,0-1.86.38-1.86,1.22s.7,1,1.39,1.24l1.26.37c1.27.38,2.09,1,2.09,2.23,0,1.49-1.26,2.6-3.1,2.6a7.76,7.76,0,0,1-3.13-.6l.12-1.22a8.08,8.08,0,0,0,2.85.59c1,0,1.83-.44,1.83-1.27s-.37-1-1.21-1.2l-1.38-.39c-1-.29-2.15-.84-2.15-2.18,0-1.57,1.15-2.61,3.14-2.61A6.9,6.9,0,0,1,48.52,8.6Z" transform="translate(0 0.02)" fill="#5f5f5f"/><path d="M52.38,9.51H49.53V8.26h7V9.51H53.71v7.37H52.38Z" transform="translate(0 0.02)" fill="#5f5f5f"/><path d="M64.25,16.88h-6.4V8.26h6.26V9.47H59.19v2.38h4.26v1.21H59.19v2.61h5.06Z" transform="translate(0 0.02)" fill="#5f5f5f"/><path d="M69.64,14.24H67.27v2.64H65.94V8.26h3.9a2.8,2.8,0,0,1,3,3A2.81,2.81,0,0,1,71,14l2.36,2.86H71.76ZM67.27,9.47V13h2.32a1.75,1.75,0,0,0,1.87-1.76,1.73,1.73,0,0,0-1.87-1.81Z" transform="translate(0 0.02)" fill="#5f5f5f"/></svg>