<?xml version="1.0" encoding="UTF-8"?><svg id="Eastern_Forest" xmlns="http://www.w3.org/2000/svg" viewBox="0 0 436.96 64.75"><g id="Color_copy_2"><path d="M10.33,14.1l-3.01-8.52h1.6l2.12,6.29,2.22-6.29h1.15l2.18,6.37,2.18-6.37h1.51l-3.03,8.52h-1.28l-2.16-6.15-2.18,6.15h-1.28Z" fill="#fff"/><path d="M23.86,14.1V5.57h1.55v7.21h4.09v1.32h-5.63Z" fill="#fff"/><path d="M33.07,14.1V5.57h5.57v1.23h-4.03v2.41h3.77v1.23h-3.77v3.65h-1.55Z" fill="#fff"/><path d="M44.71,14.1l-3.01-8.52h1.6l2.12,6.29,2.22-6.29h1.15l2.18,6.37,2.18-6.37h1.51l-3.03,8.52h-1.28l-2.16-6.15-2.18,6.15h-1.28Z" fill="#fff"/><path d="M63.92,14.1V5.57h1.55v7.21h4.09v1.32h-5.63Z" fill="#fff"/><path d="M72.03,14.1l3.86-8.52h1.27l3.86,8.52h-1.57l-.85-1.97h-4.16l-.83,1.97h-1.57ZM76.5,7.25l-1.54,3.64h3.09l-1.54-3.64h-.02Z" fill="#fff"/><path d="M84.36,14.1V5.57h1.16l4.58,5.95v-5.95h1.44v8.52h-1.15l-4.59-5.97v5.97h-1.44Z" fill="#fff"/><path d="M95.82,14.1V5.57h3.17c1.43,0,2.53.37,3.31,1.1.78.73,1.17,1.78,1.17,3.15s-.39,2.41-1.17,3.16c-.78.74-1.88,1.11-3.31,1.11h-3.17ZM97.37,12.81h1.52c1.97,0,2.95-.99,2.95-2.99s-.98-2.97-2.95-2.97h-1.52v5.96Z" fill="#fff"/><path d="M110.39,14.22c-.67,0-1.29-.09-1.86-.26s-1.06-.41-1.45-.71l.47-1.22c.39.28.83.5,1.3.65.47.15.99.23,1.54.23.64,0,1.1-.11,1.39-.32s.44-.49.44-.83c0-.28-.1-.5-.31-.66s-.56-.29-1.06-.4l-1.33-.28c-1.52-.32-2.27-1.1-2.27-2.33,0-.53.14-1,.42-1.39s.67-.7,1.17-.92c.5-.22,1.08-.33,1.73-.33.58,0,1.12.09,1.63.26.51.17.93.42,1.27.73l-.47,1.16c-.67-.56-1.48-.85-2.44-.85-.56,0-.99.12-1.31.35-.31.23-.47.54-.47.92,0,.29.1.52.29.7s.52.31.99.4l1.32.28c.8.17,1.39.43,1.78.8.39.36.59.85.59,1.45,0,.51-.14.96-.41,1.34-.27.39-.66.69-1.17.9-.5.21-1.1.32-1.78.32Z" fill="#fff"/><path d="M121.46,14.22c-.89,0-1.65-.18-2.28-.54-.63-.36-1.12-.87-1.46-1.52-.34-.66-.51-1.43-.51-2.33s.17-1.67.51-2.32c.34-.65.82-1.16,1.46-1.52.63-.36,1.39-.54,2.28-.54.57,0,1.11.09,1.63.27.51.18.93.43,1.26.76l-.51,1.23c-.36-.31-.73-.53-1.11-.67-.38-.14-.79-.21-1.22-.21-.86,0-1.52.26-1.97.78-.45.52-.68,1.26-.68,2.22s.23,1.7.68,2.22c.45.52,1.11.79,1.97.79.44,0,.84-.07,1.22-.21.38-.14.75-.36,1.11-.67l.51,1.23c-.33.32-.75.57-1.26.76-.51.18-1.05.27-1.63.27Z" fill="#fff"/><path d="M127.02,14.1l3.86-8.52h1.27l3.86,8.52h-1.57l-.85-1.97h-4.16l-.83,1.97h-1.57ZM131.5,7.25l-1.54,3.64h3.09l-1.54-3.64h-.02Z" fill="#fff"/><path d="M139.35,14.1V5.57h3.7c.93,0,1.66.23,2.16.7.51.47.76,1.12.76,1.96s-.25,1.49-.76,1.96c-.51.47-1.23.71-2.16.71h-2.15v3.19h-1.55ZM140.9,9.68h1.91c1.11,0,1.67-.48,1.67-1.45s-.56-1.44-1.67-1.44h-1.91v2.89Z" fill="#fff"/><path d="M149.65,14.1V5.57h5.67v1.23h-4.18v2.35h3.92v1.23h-3.92v2.48h4.18v1.23h-5.67Z" fill="#fff"/><path d="M7.6,53.58v-2.22l2.64-.44v-19.21l-2.61-.5v-2.16h17.74l.37,5.59h-2.76l-1.18-3.13-6.41-.32v8.73l4.19-.06.48-2.71h2.79v7.91h-2.79l-.48-2.71-4.19-.08v8.81l7.72-.37,1.98-4.25,2.76.63-.93,6.48H7.6Z" fill="#d8c467"/><path d="M28.63,48.68c0-.79.14-1.5.43-2.11s.68-1.15,1.18-1.61c.5-.46,1.09-.85,1.76-1.18s1.41-.59,2.19-.8c.78-.21,1.6-.36,2.45-.46s1.7-.16,2.55-.18v-.77c0-1.22-.25-2.1-.75-2.62-.5-.52-1.32-.78-2.46-.78-.58,0-1.16.05-1.75.14-.59.09-1.15.2-1.68.34s-1.03.28-1.49.45-.85.32-1.17.48h-.02l-.95-2.16c.23-.18.61-.42,1.14-.72.54-.29,1.18-.58,1.93-.86s1.58-.52,2.5-.73,1.85-.31,2.82-.31c1.19,0,2.2.13,3.04.39.83.26,1.51.66,2.03,1.19.52.54.9,1.22,1.14,2.04.24.82.36,1.79.36,2.91v10.05h2v1.98c-.2.04-.46.1-.76.17-.3.07-.63.13-1,.19-.37.06-.76.11-1.18.15s-.85.06-1.29.06c-.39,0-.72-.02-.99-.05-.27-.03-.49-.11-.66-.23s-.29-.29-.36-.51c-.08-.22-.11-.52-.11-.89v-.93c-.18.25-.44.52-.76.82s-.71.59-1.17.85c-.46.27-.98.49-1.56.67-.58.18-1.22.27-1.92.27-.76,0-1.48-.1-2.14-.31s-1.25-.52-1.75-.95c-.5-.43-.89-.98-1.18-1.64s-.44-1.46-.44-2.37ZM36.28,50.84c.19,0,.41-.03.66-.08s.5-.13.77-.23.53-.21.79-.35.48-.29.68-.46v-5.33c-1.04,0-1.92.1-2.62.29s-1.26.45-1.68.77-.72.69-.89,1.11c-.18.42-.27.86-.27,1.34,0,.96.22,1.68.65,2.18.44.5,1.07.75,1.91.75Z" fill="#d8c467"/><path d="M47.41,52.55v-4.53h2.96l.84,2.51c.1.14.24.28.44.42.2.14.43.26.71.37.27.11.58.2.93.27.34.07.7.1,1.08.1.54,0,.97-.06,1.31-.19.34-.13.61-.29.81-.49.2-.2.34-.42.42-.68.08-.25.11-.5.11-.73,0-.45-.12-.84-.35-1.17-.23-.33-.56-.63-.98-.9-.42-.27-.94-.54-1.54-.8s-1.27-.54-2-.84c-.74-.3-1.41-.64-2-1.01-.59-.37-1.09-.79-1.51-1.25-.41-.46-.73-.98-.96-1.55s-.34-1.21-.34-1.92c0-.76.16-1.47.48-2.12.32-.65.79-1.21,1.41-1.69s1.4-.85,2.32-1.13c.92-.27,1.99-.41,3.21-.41.71,0,1.34.04,1.89.13s1.06.19,1.51.3c.45.11.86.23,1.24.35.38.12.74.22,1.1.28v4.45l-2.8-.05-.76-2.14c-.15-.25-.44-.49-.85-.72s-.95-.35-1.6-.36c-.48,0-.89.05-1.22.16s-.59.25-.79.44c-.2.18-.34.38-.43.6s-.13.44-.13.67c0,.56.15,1.02.44,1.38.29.36.66.66,1.1.91s.92.46,1.45.65,1.03.39,1.5.6c.71.31,1.39.64,2.03.99.64.35,1.22.75,1.72,1.22.5.46.9,1,1.19,1.6.29.61.44,1.33.44,2.17,0,.78-.15,1.51-.46,2.18-.31.67-.77,1.25-1.39,1.74s-1.39.88-2.32,1.16-2.02.42-3.26.42c-.85,0-1.62-.06-2.33-.18-.7-.12-1.34-.25-1.92-.41-.57-.16-1.09-.31-1.54-.47s-.84-.27-1.18-.35Z" fill="#d8c467"/><path d="M65.28,49.71v-11.86h-2.27v-1.84c.09-.02.22-.07.41-.14.19-.07.38-.14.58-.22.2-.08.38-.15.54-.22.16-.07.26-.12.31-.15.37-.29.75-.81,1.14-1.55.11-.21.23-.46.35-.75.13-.28.25-.58.38-.89s.24-.62.35-.93c.11-.31.2-.58.27-.83h2.87l.05,4.77h4.74v2.74h-4.74v8.93c0,.86.01,1.54.04,2.05s.09.89.19,1.14.26.42.48.5.51.11.89.11h.02c.26,0,.53-.02.81-.06s.56-.09.84-.15c.27-.06.53-.12.76-.19.23-.07.42-.13.57-.19h.02l.76,1.89c-.32.25-.72.49-1.18.74-.47.25-.98.47-1.55.67-.56.2-1.16.36-1.79.48-.63.12-1.26.19-1.89.19h-.03c-.71,0-1.31-.09-1.81-.27-.5-.18-.9-.45-1.21-.81-.31-.36-.53-.8-.67-1.33s-.21-1.13-.21-1.82Z" fill="#d8c467"/><path d="M84.77,53.95c-1.51,0-2.82-.24-3.91-.71s-1.99-1.13-2.69-1.97c-.7-.84-1.22-1.85-1.56-3.02s-.5-2.45-.5-3.83c0-1.5.21-2.85.64-4.04.42-1.19,1.02-2.2,1.8-3.03.77-.83,1.7-1.47,2.79-1.91s2.29-.66,3.61-.66c4.46,0,6.78,2.18,6.98,6.53.02.74.02,1.41,0,2.01-.03.6-.08,1.1-.17,1.51h-10.52c.05,1.06.21,1.97.47,2.72s.6,1.36,1.02,1.84.92.82,1.49,1.03c.57.21,1.21.32,1.89.32.55,0,1.06-.04,1.53-.13s.91-.19,1.31-.32c.4-.13.77-.27,1.1-.44.33-.16.61-.32.85-.47l.84,1.95c-.27.28-.64.57-1.12.88-.48.31-1.03.59-1.64.85s-1.28.47-2,.64-1.44.26-2.18.26ZM84.34,36.94c-.42,0-.81.08-1.17.23-.36.15-.68.44-.95.85-.27.42-.5,1-.68,1.75-.18.75-.29,1.71-.33,2.89h5.78c0-.05,0-.13,0-.23,0-.1.01-.2.02-.31s0-.21,0-.31v-.21c0-.55-.04-1.1-.11-1.67-.08-.56-.21-1.07-.41-1.51s-.47-.8-.82-1.08c-.35-.28-.8-.42-1.35-.42Z" fill="#d8c467"/><path d="M93.73,53.58v-2.16l2.32-.31v-12.41l-2.19-.68v-2.43l5.51-.79h.1l.85.69v1.34l-.02,2.51h.06c.13-.34.36-.78.7-1.3.34-.52.76-1.03,1.26-1.51.5-.49,1.07-.91,1.72-1.26.65-.35,1.36-.52,2.12-.52.33,0,.59.01.77.04.18.03.32.06.44.1v5.58c-.12-.09-.43-.18-.93-.28-.5-.1-1.09-.15-1.78-.15-.38,0-.75.02-1.13.06s-.73.1-1.06.17c-.33.07-.62.15-.88.25s-.46.19-.6.29v10.28l4.01.39v2.09h-11.3Z" fill="#d8c467"/><path d="M108.79,53.58v-2.16l2.08-.32v-12.39l-2.19-.68v-2.43l5.77-.79h.08l.85.69v1.92c.35-.32.77-.64,1.26-.95s1.01-.59,1.57-.82c.56-.24,1.16-.43,1.78-.57.62-.15,1.25-.22,1.89-.22,1.03,0,1.89.13,2.59.4.69.27,1.24.7,1.65,1.29s.7,1.35.87,2.28c.17.93.26,2.05.26,3.36v8.93l2.29.31v2.16h-9.07v-2.16l1.76-.31v-8.99c0-.74-.04-1.38-.11-1.93s-.21-.99-.41-1.33c-.2-.34-.47-.6-.82-.77s-.8-.25-1.35-.25c-.37,0-.73.04-1.08.12-.35.08-.69.19-1.01.31-.32.13-.61.27-.87.43-.26.16-.49.31-.69.46v11.92l2.16.32v2.16h-9.25Z" fill="#d8c467"/><path d="M140.18,53.58v-2.21l2.64-.44v-19.24l-2.53-.48v-2.16h5.03c.6,0,1.14-.01,1.63-.03s.96-.05,1.44-.07c.48-.03.98-.05,1.5-.07.52-.02,1.11-.03,1.78-.03,2.06,0,3.83.26,5.32.78s2.7,1.28,3.66,2.26,1.66,2.2,2.11,3.63c.45,1.43.68,3.07.68,4.91,0,2.02-.3,3.86-.89,5.53-.6,1.67-1.43,3.09-2.51,4.27-1.08,1.18-2.38,2.09-3.9,2.72-1.52.63-3.2.93-5.04.89-.41-.01-.85-.03-1.34-.06s-.98-.06-1.49-.09c-.51-.03-1.01-.06-1.51-.08s-.96-.03-1.39-.03h-5.19ZM147.99,31.23v20.01c.43.15.9.24,1.4.27s1.05.04,1.64.02c1.03-.01,1.97-.23,2.82-.66s1.58-1.07,2.19-1.92,1.09-1.91,1.43-3.19c.34-1.28.51-2.77.51-4.48s-.15-3.09-.44-4.36c-.29-1.27-.75-2.34-1.36-3.21s-1.39-1.53-2.34-1.99c-.95-.46-2.08-.69-3.39-.69-.61,0-1.12.02-1.53.07-.41.05-.71.09-.92.12Z" fill="#d8c467"/><path d="M173.43,53.95c-1.51,0-2.82-.24-3.91-.71-1.09-.47-1.99-1.13-2.69-1.97-.7-.84-1.22-1.85-1.55-3.02s-.5-2.45-.5-3.83c0-1.5.21-2.85.64-4.04.42-1.19,1.02-2.2,1.8-3.03.77-.83,1.7-1.47,2.79-1.91s2.29-.66,3.61-.66c4.46,0,6.78,2.18,6.98,6.53.02.74.02,1.41,0,2.01-.03.6-.08,1.1-.17,1.51h-10.52c.05,1.06.21,1.97.47,2.72s.6,1.36,1.02,1.84.92.82,1.49,1.03c.57.21,1.21.32,1.89.32.55,0,1.06-.04,1.53-.13s.91-.19,1.31-.32c.4-.13.77-.27,1.1-.44.33-.16.61-.32.85-.47l.84,1.95c-.27.28-.64.57-1.12.88-.48.31-1.03.59-1.64.85-.62.26-1.28.47-2,.64-.71.17-1.44.26-2.18.26ZM172.99,36.94c-.42,0-.81.08-1.17.23-.36.15-.68.44-.95.85-.27.42-.5,1-.68,1.75-.18.75-.29,1.71-.33,2.89h5.79c0-.05,0-.13,0-.23,0-.1.01-.2.02-.31,0-.11,0-.21,0-.31v-.21c0-.55-.04-1.1-.11-1.67-.08-.56-.21-1.07-.41-1.51-.2-.44-.47-.8-.82-1.08-.35-.28-.8-.42-1.35-.42Z" fill="#d8c467"/><path d="M182.13,44.57c0-1.45.22-2.78.65-3.98.44-1.2,1.06-2.24,1.86-3.1s1.78-1.54,2.92-2.01c1.14-.48,2.42-.72,3.84-.72.72,0,1.38.04,1.98.12.6.08,1.14.17,1.61.28s.88.22,1.22.33c.34.11.62.2.84.27l-.16,5.49h-2.84l-.93-2.84c-.24-.45-.53-.81-.87-1.06s-.76-.39-1.26-.39-.94.12-1.38.36c-.44.24-.82.62-1.16,1.14-.34.52-.61,1.2-.81,2.02s-.31,1.83-.31,3c0,1.33.1,2.46.31,3.38.21.92.52,1.67.92,2.24.4.57.89.98,1.47,1.23s1.23.38,1.95.38c1,0,1.86-.13,2.59-.4.72-.27,1.33-.56,1.83-.87l.85,1.95c-.23.25-.55.52-.97.81-.42.3-.92.57-1.48.83-.56.26-1.19.47-1.87.64-.68.17-1.39.26-2.13.26-1.51,0-2.82-.24-3.92-.71s-2-1.13-2.7-1.97c-.7-.84-1.22-1.83-1.56-2.97-.34-1.14-.51-2.39-.51-3.73Z" fill="#d8c467"/><path d="M198.66,53.58v-2.16l2.35-.31v-12.41l-2.18-.69v-2.42l5.91-.79h.08l1.18.69v15.6l2.34.32v2.16h-9.68ZM202.94,32.09c-.38,0-.71-.07-1.01-.21-.3-.14-.54-.32-.74-.56-.2-.23-.35-.5-.45-.82-.1-.32-.15-.65-.15-1.01,0-.42.06-.81.17-1.18.11-.37.29-.7.52-.98s.53-.5.88-.66c.35-.16.75-.24,1.22-.24h.02c.44,0,.82.07,1.14.22.32.15.58.34.8.58.21.24.37.52.48.83.1.31.15.64.15.98,0,.43-.06.83-.18,1.2-.12.37-.3.69-.54.97-.24.27-.55.49-.93.64-.38.16-.83.23-1.35.23h-.02Z" fill="#d8c467"/><path d="M216.62,53.94c-1,0-1.93-.18-2.79-.54-.87-.36-1.62-.92-2.26-1.67s-1.15-1.7-1.51-2.84c-.37-1.14-.55-2.49-.55-4.05,0-1.47.22-2.82.65-4.05.43-1.23,1.06-2.29,1.88-3.18.82-.89,1.82-1.59,3-2.09,1.18-.5,2.52-.75,4.01-.75.45,0,.89.02,1.31.06.42.04.83.11,1.22.19v-5.48l-2.95-.5v-1.84l6.82-.69h.08l1,.76v24.07h1.79v2.03c-.54.12-1.15.24-1.84.38s-1.44.2-2.26.2c-.66,0-1.17-.15-1.53-.44s-.55-.82-.55-1.58v-.63c-.27.34-.59.67-.96.99-.37.32-.79.6-1.26.84-.47.24-.98.44-1.53.58-.55.15-1.15.22-1.78.22ZM218.67,51.02c.66,0,1.24-.12,1.75-.37.51-.25.9-.53,1.17-.84v-12.15c-.18-.19-.48-.37-.9-.52s-.92-.23-1.5-.23-1.13.12-1.64.37-.97.66-1.35,1.22-.7,1.32-.93,2.26c-.23.94-.36,2.1-.38,3.47-.02,1.2.05,2.23.23,3.09.17.85.42,1.56.75,2.1.33.55.73.95,1.21,1.2.48.25,1.01.38,1.6.38Z" fill="#d8c467"/><path d="M245.12,53.95c-.78,0-1.36-.17-1.72-.52s-.55-.85-.55-1.53v-.58c-.27.32-.61.64-1.02.95s-.85.59-1.34.85-1,.45-1.55.6-1.1.23-1.64.23c-1.05,0-1.96-.13-2.71-.38-.76-.25-1.38-.66-1.86-1.22s-.84-1.28-1.07-2.18c-.23-.89-.35-1.97-.35-3.24v-9.18l-1.61-.6v-1.89l5.8-.47h.02l.74.45v11.79c0,.71.05,1.31.14,1.8.09.49.24.89.46,1.2s.5.54.85.68.79.21,1.32.21c.41,0,.78-.04,1.13-.13s.65-.19.93-.31c.27-.12.51-.24.72-.38s.37-.26.5-.36v-12l-2.22-.63v-1.9l6.25-.42h.03l.89.45v16.13h1.79v2c-.41.1-.95.21-1.63.35s-1.44.21-2.29.21Z" fill="#d8c467"/><path d="M250.32,44.46c0-1.63.25-3.06.76-4.27s1.18-2.22,2.01-3.03,1.81-1.41,2.91-1.8c1.1-.4,2.25-.6,3.44-.6,1.4,0,2.63.22,3.71.65,1.07.44,1.98,1.06,2.71,1.88s1.28,1.81,1.66,2.98.56,2.5.56,3.98c0,1.68-.25,3.13-.76,4.35s-1.18,2.23-2.01,3.02c-.84.79-1.8,1.38-2.9,1.76-1.1.38-2.24.57-3.43.57-1.4,0-2.63-.22-3.71-.65-1.07-.43-1.98-1.06-2.71-1.88-.74-.82-1.29-1.81-1.67-2.98s-.56-2.5-.56-3.98ZM259.25,51.73c.59,0,1.1-.13,1.53-.4.43-.26.79-.68,1.07-1.24.29-.56.49-1.29.63-2.17.13-.88.2-1.93.2-3.16s-.06-2.37-.19-3.34c-.12-.97-.32-1.79-.6-2.44-.27-.66-.63-1.15-1.08-1.49-.45-.34-.99-.51-1.63-.51-.59,0-1.1.13-1.54.39-.44.26-.8.68-1.09,1.24-.29.56-.5,1.29-.64,2.17s-.21,1.93-.21,3.16.06,2.37.19,3.34.33,1.79.62,2.44c.28.66.65,1.15,1.1,1.49.45.34.99.51,1.64.51Z" fill="#d8c467"/><path d="M284.91,53.95c-.78,0-1.36-.17-1.72-.52s-.55-.85-.55-1.53v-.58c-.27.32-.61.64-1.01.95s-.85.59-1.34.85-1,.45-1.55.6-1.1.23-1.64.23c-1.05,0-1.96-.13-2.71-.38-.76-.25-1.38-.66-1.86-1.22s-.84-1.28-1.07-2.18c-.23-.89-.35-1.97-.35-3.24v-9.18l-1.61-.6v-1.89l5.8-.47h.02l.74.45v11.79c0,.71.04,1.31.14,1.8.09.49.24.89.46,1.2s.5.54.85.68.79.21,1.32.21c.41,0,.78-.04,1.13-.13s.65-.19.93-.31c.27-.12.51-.24.72-.38s.37-.26.5-.36v-12l-2.22-.63v-1.9l6.25-.42h.03l.89.45v16.13h1.79v2c-.41.1-.95.21-1.63.35s-1.44.21-2.29.21Z" fill="#d8c467"/><path d="M290.87,52.55v-4.53h2.96l.84,2.51c.1.14.24.28.44.42.2.14.43.26.71.37.27.11.58.2.93.27.34.07.7.1,1.08.1.54,0,.97-.06,1.31-.19.34-.13.61-.29.81-.49.2-.2.34-.42.42-.68.08-.25.11-.5.11-.73,0-.45-.12-.84-.35-1.17-.23-.33-.56-.63-.98-.9-.42-.27-.94-.54-1.54-.8s-1.27-.54-2-.84c-.74-.3-1.41-.64-2-1.01-.59-.37-1.09-.79-1.51-1.25-.41-.46-.73-.98-.96-1.55s-.34-1.21-.34-1.92c0-.76.16-1.47.47-2.12.32-.65.79-1.21,1.41-1.69s1.4-.85,2.32-1.13c.92-.27,1.99-.41,3.21-.41.71,0,1.34.04,1.89.13.55.09,1.06.19,1.51.3.45.11.87.23,1.24.35.38.12.74.22,1.1.28v4.45l-2.8-.05-.76-2.14c-.15-.25-.43-.49-.85-.72s-.95-.35-1.6-.36c-.48,0-.89.05-1.22.16-.33.11-.59.25-.79.44-.2.18-.34.38-.43.6s-.13.44-.13.67c0,.56.14,1.02.43,1.38.29.36.66.66,1.1.91s.92.46,1.45.65,1.03.39,1.5.6c.71.31,1.39.64,2.03.99.64.35,1.22.75,1.72,1.22.5.46.9,1,1.19,1.6.29.61.44,1.33.44,2.17,0,.78-.15,1.51-.46,2.18-.31.67-.77,1.25-1.39,1.74-.62.49-1.39.88-2.32,1.16-.93.28-2.02.42-3.26.42-.85,0-1.62-.06-2.33-.18-.7-.12-1.34-.25-1.92-.41-.57-.16-1.09-.31-1.54-.47s-.84-.27-1.18-.35Z" fill="#d8c467"/><path d="M316.53,53.58v-2.21l2.58-.45v-19.21l-2.67-.5v-2.16h18.32l.32,6.07h-3.19l-1.24-3.61-6.38-.26v8.88l4.25-.05.66-2.61h2.69v8.06h-2.69l-.66-2.77-4.25-.08v8.23l4.82.45v2.21h-12.55Z" fill="#d8c467"/><path d="M336.09,44.46c0-1.63.25-3.06.76-4.27s1.18-2.22,2.01-3.03,1.81-1.41,2.91-1.8c1.1-.4,2.25-.6,3.44-.6,1.4,0,2.63.22,3.71.65,1.07.44,1.98,1.06,2.71,1.88s1.28,1.81,1.66,2.98.56,2.5.56,3.98c0,1.68-.25,3.13-.76,4.35s-1.18,2.23-2.01,3.02c-.84.79-1.8,1.38-2.9,1.76-1.1.38-2.24.57-3.43.57-1.4,0-2.63-.22-3.71-.65-1.07-.43-1.98-1.06-2.71-1.88-.74-.82-1.29-1.81-1.67-2.98s-.56-2.5-.56-3.98ZM345.02,51.73c.59,0,1.1-.13,1.53-.4.43-.26.79-.68,1.07-1.24.28-.56.49-1.29.63-2.17.13-.88.2-1.93.2-3.16s-.06-2.37-.19-3.34c-.12-.97-.32-1.79-.6-2.44-.27-.66-.63-1.15-1.08-1.49-.45-.34-.99-.51-1.64-.51-.59,0-1.1.13-1.54.39-.44.26-.8.68-1.09,1.24-.29.56-.5,1.29-.64,2.17s-.21,1.93-.21,3.16.06,2.37.19,3.34.34,1.79.62,2.44c.28.66.65,1.15,1.1,1.49.45.34.99.51,1.63.51Z" fill="#d8c467"/><path d="M355.49,53.58v-2.16l2.32-.31v-12.41l-2.19-.68v-2.43l5.51-.79h.1l.85.69v1.34l-.02,2.51h.06c.13-.34.36-.78.7-1.3.34-.52.76-1.03,1.26-1.51.5-.49,1.07-.91,1.72-1.26.65-.35,1.36-.52,2.12-.52.33,0,.59.01.77.04.18.03.32.06.44.1v5.58c-.12-.09-.43-.18-.93-.28-.5-.1-1.09-.15-1.78-.15-.38,0-.75.02-1.13.06s-.73.1-1.05.17c-.33.07-.62.15-.88.25s-.46.19-.6.29v10.28l4.01.39v2.09h-11.29Z" fill="#d8c467"/><path d="M378.8,53.95c-1.51,0-2.82-.24-3.91-.71-1.09-.47-1.99-1.13-2.69-1.97-.7-.84-1.22-1.85-1.55-3.02s-.5-2.45-.5-3.83c0-1.5.21-2.85.64-4.04.42-1.19,1.02-2.2,1.8-3.03.77-.83,1.7-1.47,2.79-1.91s2.29-.66,3.61-.66c4.46,0,6.78,2.18,6.98,6.53.02.74.02,1.41,0,2.01-.03.6-.08,1.1-.17,1.51h-10.52c.05,1.06.21,1.97.47,2.72s.6,1.36,1.02,1.84.92.82,1.49,1.03c.57.21,1.21.32,1.89.32.55,0,1.06-.04,1.53-.13s.91-.19,1.31-.32c.4-.13.77-.27,1.1-.44.33-.16.61-.32.85-.47l.84,1.95c-.27.28-.64.57-1.12.88-.48.31-1.03.59-1.64.85-.62.26-1.28.47-2,.64-.71.17-1.44.26-2.18.26ZM378.37,36.94c-.42,0-.81.08-1.17.23-.36.15-.68.44-.95.85-.27.42-.5,1-.68,1.75-.18.75-.29,1.71-.33,2.89h5.79c0-.05,0-.13,0-.23,0-.1.01-.2.02-.31,0-.11,0-.21,0-.31v-.21c0-.55-.04-1.1-.11-1.67-.08-.56-.21-1.07-.41-1.51-.2-.44-.47-.8-.82-1.08-.35-.28-.8-.42-1.35-.42Z" fill="#d8c467"/><path d="M388.15,52.55v-4.53h2.96l.84,2.51c.1.14.24.28.44.42.2.14.43.26.71.37.27.11.58.2.93.27.34.07.7.1,1.08.1.54,0,.97-.06,1.31-.19.34-.13.61-.29.81-.49.2-.2.34-.42.42-.68.08-.25.11-.5.11-.73,0-.45-.12-.84-.35-1.17-.23-.33-.56-.63-.98-.9-.42-.27-.94-.54-1.54-.8s-1.27-.54-2-.84c-.74-.3-1.41-.64-2-1.01-.59-.37-1.09-.79-1.51-1.25-.41-.46-.73-.98-.96-1.55s-.34-1.21-.34-1.92c0-.76.16-1.47.48-2.12.32-.65.79-1.21,1.41-1.69s1.4-.85,2.32-1.13c.92-.27,1.99-.41,3.21-.41.71,0,1.34.04,1.89.13.55.09,1.06.19,1.51.3.45.11.86.23,1.24.35.38.12.74.22,1.1.28v4.45l-2.8-.05-.76-2.14c-.15-.25-.44-.49-.85-.72s-.95-.35-1.59-.36c-.48,0-.89.05-1.22.16-.33.11-.59.25-.79.44-.2.18-.34.38-.43.6s-.13.44-.13.67c0,.56.15,1.02.44,1.38.29.36.66.66,1.1.91s.92.46,1.45.65,1.03.39,1.5.6c.71.31,1.39.64,2.03.99.64.35,1.22.75,1.72,1.22.5.46.9,1,1.19,1.6.29.61.44,1.33.44,2.17,0,.78-.15,1.51-.46,2.18-.31.67-.77,1.25-1.39,1.74-.62.49-1.39.88-2.32,1.16-.93.28-2.02.42-3.26.42-.85,0-1.62-.06-2.33-.18-.7-.12-1.34-.25-1.92-.41-.58-.16-1.09-.31-1.54-.47s-.84-.27-1.18-.35Z" fill="#d8c467"/><path d="M406.01,49.71v-11.86h-2.27v-1.84c.09-.02.22-.07.41-.14.19-.07.38-.14.58-.22.2-.08.38-.15.54-.22.16-.07.26-.12.31-.15.37-.29.75-.81,1.14-1.55.11-.21.23-.46.35-.75.13-.28.25-.58.38-.89.12-.31.24-.62.35-.93.11-.31.2-.58.27-.83h2.87l.05,4.77h4.74v2.74h-4.74v8.93c0,.86.01,1.54.04,2.05.03.5.09.89.19,1.14.1.26.26.42.48.5s.51.11.89.11h.02c.26,0,.53-.02.81-.06.29-.04.56-.09.84-.15.27-.06.53-.12.76-.19.23-.07.42-.13.57-.19h.02l.76,1.89c-.32.25-.72.49-1.18.74-.47.25-.98.47-1.55.67-.56.2-1.16.36-1.79.48-.63.12-1.26.19-1.89.19h-.03c-.71,0-1.31-.09-1.81-.27-.5-.18-.9-.45-1.21-.81-.31-.36-.53-.8-.67-1.33s-.21-1.13-.21-1.82Z" fill="#d8c467"/><path d="M417.53,52.55v-4.53h2.96l.84,2.51c.1.14.24.28.44.42.2.14.43.26.71.37.27.11.58.2.93.27.34.07.7.1,1.08.1.54,0,.97-.06,1.31-.19.34-.13.61-.29.81-.49.2-.2.34-.42.42-.68.08-.25.11-.5.11-.73,0-.45-.12-.84-.35-1.17-.23-.33-.56-.63-.98-.9-.42-.27-.94-.54-1.54-.8s-1.27-.54-2-.84c-.74-.3-1.41-.64-2-1.01-.59-.37-1.09-.79-1.51-1.25-.41-.46-.73-.98-.96-1.55s-.34-1.21-.34-1.92c0-.76.16-1.47.47-2.12.32-.65.79-1.21,1.41-1.69s1.4-.85,2.32-1.13c.92-.27,1.99-.41,3.21-.41.71,0,1.34.04,1.89.13.55.09,1.06.19,1.51.3.45.11.87.23,1.24.35.38.12.74.22,1.1.28v4.45l-2.8-.05-.76-2.14c-.15-.25-.43-.49-.85-.72s-.95-.35-1.6-.36c-.48,0-.89.05-1.22.16-.33.11-.59.25-.79.44-.2.18-.34.38-.43.6s-.13.44-.13.67c0,.56.14,1.02.43,1.38.29.36.66.66,1.1.91s.92.46,1.45.65,1.03.39,1.5.6c.71.31,1.39.64,2.03.99.64.35,1.22.75,1.72,1.22.5.46.9,1,1.19,1.6.29.61.44,1.33.44,2.17,0,.78-.15,1.51-.46,2.18-.31.67-.77,1.25-1.39,1.74-.62.49-1.39.88-2.32,1.16-.93.28-2.02.42-3.26.42-.85,0-1.62-.06-2.33-.18-.7-.12-1.34-.25-1.92-.41-.57-.16-1.09-.31-1.54-.47s-.84-.27-1.18-.35Z" fill="#d8c467"/></g></svg>