<?xml version="1.0" encoding="UTF-8"?><svg xmlns="http://www.w3.org/2000/svg" viewBox="0 0 390 88"><g id="Layer_1"><g><path d="M128.73,19.5h-5.77v-7.96h1.24v6.84h4.53v1.12Z" fill="#736357"/><path d="M138.41,17.84h-4.01l-.64,1.66h-1.31l3.28-7.96h1.35l3.29,7.96h-1.31l-.63-1.66Zm-3.67-1.03h3.3l-1.64-3.9-1.66,3.9Z" fill="#736357"/><path d="M146.13,19.5h-1.23v-7.96h1.23l5.08,6.06v-6.06h1.23v7.96h-1.24l-5.07-6.01v6.01Z" fill="#736357"/><path d="M161.3,11.54c2.58,0,3.96,1.61,3.96,3.98s-1.37,3.97-3.96,3.97h-3.37v-7.96h3.37Zm2.68,3.98c0-1.78-.81-2.88-2.87-2.88h-1.96v5.74h1.96c2.05,0,2.87-1.07,2.87-2.86Z" fill="#736357"/><path d="M175.19,11.86l-.11,1.17c-.54-.3-1.41-.48-2.17-.48-1.04,0-1.72,.36-1.72,1.13,0,.83,.65,.96,1.28,1.14l1.17,.35c1.17,.35,1.93,.88,1.93,2.06,0,1.37-1.17,2.4-2.87,2.4-1.08,0-2.31-.23-2.88-.55l.11-1.13c.58,.28,1.75,.55,2.64,.55,.96,0,1.68-.41,1.68-1.17,0-.64-.34-.9-1.11-1.11l-1.28-.36c-.94-.27-1.98-.78-1.98-2.01,0-1.45,1.06-2.41,2.89-2.41,1.07,0,1.8,.19,2.42,.43Z" fill="#736357"/><path d="M187.11,19.09c-.43,.19-1.17,.52-2.56,.52-2.71,0-4.56-1.66-4.56-4.1s1.84-4.09,4.54-4.09c1.07,0,2.03,.29,2.48,.5l-.12,1.16c-.43-.21-1.29-.49-2.36-.49-1.92,0-3.22,1.18-3.22,2.92s1.37,2.94,3.37,2.94c.94,0,1.78-.26,2.25-.53l.18,1.17Z" fill="#736357"/><path d="M196.98,17.84h-4.01l-.64,1.66h-1.31l3.28-7.96h1.35l3.29,7.96h-1.31l-.63-1.66Zm-3.67-1.03h3.3l-1.64-3.9-1.66,3.9Z" fill="#736357"/><path d="M204.7,17.06v2.44h-1.23v-7.96h3.6c1.49,0,2.78,.87,2.78,2.78,0,1.72-1.28,2.74-2.78,2.74h-2.37Zm0-4.4v3.29h2.14c.95,0,1.72-.62,1.72-1.62,0-1.11-.77-1.67-1.72-1.67h-2.14Z" fill="#736357"/><path d="M220.58,19.5h-5.9v-7.96h5.78v1.12h-4.55v2.19h3.93v1.12h-3.93v2.41h4.67v1.12Z" fill="#736357"/><path d="M233.07,17.06v2.44h-1.23v-7.96h3.6c1.49,0,2.78,.87,2.78,2.78,0,1.72-1.28,2.74-2.78,2.74h-2.37Zm0-4.4v3.29h2.14c.95,0,1.72-.62,1.72-1.62,0-1.11-.77-1.67-1.72-1.67h-2.14Z" fill="#736357"/><path d="M247.5,17.84h-4.01l-.64,1.66h-1.31l3.28-7.96h1.35l3.29,7.96h-1.31l-.63-1.66Zm-3.67-1.03h3.3l-1.64-3.9-1.66,3.9Z" fill="#736357"/><path d="M257.41,17.06h-2.19v2.44h-1.23v-7.96h3.6c1.49,0,2.78,.87,2.78,2.78,0,1.27-.7,2.16-1.68,2.54l2.18,2.63h-1.51l-1.96-2.43Zm-2.19-4.4v3.29h2.14c.95,0,1.72-.62,1.72-1.62,0-1.11-.77-1.67-1.72-1.67h-2.14Z" fill="#736357"/><path d="M267.19,12.7h-2.63v-1.15h6.47v1.15h-2.62v6.8h-1.22v-6.8Z" fill="#736357"/><path d="M276.9,19.5h-1.23v-7.96h1.23l5.08,6.06v-6.06h1.23v7.96h-1.24l-5.07-6.01v6.01Z" fill="#736357"/><path d="M294.61,19.5h-5.9v-7.96h5.78v1.12h-4.55v2.19h3.93v1.12h-3.93v2.41h4.67v1.12Z" fill="#736357"/><path d="M303.26,17.06h-2.19v2.44h-1.23v-7.96h3.6c1.49,0,2.78,.87,2.78,2.78,0,1.27-.7,2.16-1.68,2.54l2.18,2.63h-1.51l-1.96-2.43Zm-2.19-4.4v3.29h2.14c.95,0,1.72-.62,1.72-1.62,0-1.11-.77-1.67-1.72-1.67h-2.14Z" fill="#736357"/><path d="M316.38,11.86l-.11,1.17c-.54-.3-1.41-.48-2.17-.48-1.04,0-1.72,.36-1.72,1.13,0,.83,.65,.96,1.28,1.14l1.17,.35c1.17,.35,1.93,.88,1.93,2.06,0,1.37-1.17,2.4-2.87,2.4-1.08,0-2.31-.23-2.88-.55l.11-1.13c.58,.28,1.75,.55,2.64,.55,.96,0,1.68-.41,1.68-1.17,0-.64-.34-.9-1.11-1.11l-1.28-.36c-.94-.27-1.98-.78-1.98-2.01,0-1.45,1.06-2.41,2.89-2.41,1.07,0,1.8,.19,2.42,.43Z" fill="#736357"/><path d="M328.45,19.5h-1.23v-3.5h-4.31v3.5h-1.23v-7.96h1.23v3.34h4.31v-3.34h1.23v7.96Z" fill="#736357"/><path d="M335.18,19.5h-1.23v-7.96h1.23v7.96Z" fill="#736357"/><path d="M341.9,17.06v2.44h-1.23v-7.96h3.6c1.49,0,2.78,.87,2.78,2.78,0,1.72-1.28,2.74-2.78,2.74h-2.37Zm0-4.4v3.29h2.14c.95,0,1.72-.62,1.72-1.62,0-1.11-.77-1.67-1.72-1.67h-2.14Z" fill="#736357"/></g><rect x="196" y="53.25" width="26" height="3" fill="#dd733e"/><g><path d="M201.97,48.14h-3.69l-.59,1.56h-1.69l3.21-7.96h1.82l3.22,7.96h-1.69l-.59-1.56Zm-3.25-1.26h2.79l-1.39-3.49-1.4,3.49Z" fill="#736357"/><path d="M206.75,49.7h-1.58v-7.96h1.44l4.58,5.46v-5.46h1.58v7.96h-1.46l-4.55-5.4v5.4Z" fill="#736357"/><path d="M217.89,41.74c2.57,0,4.02,1.52,4.02,3.97s-1.48,3.98-4.02,3.98h-3.43v-7.96h3.43Zm2.4,3.97c0-1.66-.79-2.61-2.57-2.61h-1.68v5.23h1.68c1.8,0,2.57-.97,2.57-2.62Z" fill="#736357"/></g><g><path d="M108.83,30.02c.67,0,1.06,.34,1.06,1.01v1.3c0,.67-.38,1.06-1.06,1.06h-7.87v12.34h6.05c.67,0,1.06,.34,1.06,1.01v1.3c0,.67-.38,1.06-1.06,1.06h-6.05v12.34h7.87c.67,0,1.06,.34,1.06,1.01v1.3c0,.67-.38,1.06-1.06,1.06h-10.85c-.67,0-1.06-.38-1.06-1.06V31.03c0-.67,.38-1.01,1.06-1.01h10.85Z" fill="#6d97bf"/><path d="M127.36,36.84v21.12c0,2.11-.34,3.79-1.25,4.94l2.98,5.14c.34,.58,.19,1.1-.38,1.44l-1.68,.96c-.62,.34-1.06,.19-1.39-.38l-3.07-5.28c-.72,.14-1.58,.24-2.59,.24-5.76,0-7.39-2.5-7.39-7.06v-21.12c0-4.56,1.63-7.06,7.39-7.06s7.39,2.5,7.39,7.06Zm-10.75,0v21.12c0,2.3,.62,3.7,3.36,3.7s3.36-1.39,3.36-3.7v-21.12c0-2.3-.62-3.7-3.36-3.7s-3.36,1.39-3.36,3.7Z" fill="#6d97bf"/><path d="M131.49,31.03c0-.67,.38-1.01,1.06-1.01h1.92c.67,0,1.06,.34,1.06,1.01v26.93c0,2.3,.62,3.7,3.36,3.7s3.36-1.39,3.36-3.7V31.03c0-.67,.38-1.01,1.06-1.01h1.92c.67,0,1.06,.34,1.06,1.01v26.93c0,4.56-1.63,7.06-7.39,7.06s-7.39-2.5-7.39-7.06V31.03Z" fill="#6d97bf"/><path d="M154.43,63.72c0,.67-.38,1.06-1.06,1.06h-1.92c-.67,0-1.06-.38-1.06-1.06V31.03c0-.67,.38-1.01,1.06-1.01h1.92c.67,0,1.06,.34,1.06,1.01V63.72Z" fill="#6d97bf"/><path d="M167.2,33.38v30.34c0,.67-.38,1.06-1.06,1.06h-1.92c-.67,0-1.06-.38-1.06-1.06v-30.34h-5.47c-.67,0-1.06-.38-1.06-1.06v-1.3c0-.67,.38-1.01,1.06-1.01h14.98c.67,0,1.06,.34,1.06,1.01v1.3c0,.67-.38,1.06-1.06,1.06h-5.47Z" fill="#6d97bf"/><path d="M177.47,30.02c.48,0,.91,.24,1.06,.72l2.45,8.21,1.78,7.1h.24l1.78-7.1,2.4-8.21c.14-.48,.58-.72,1.06-.72h2.06c.72,0,1.06,.62,.86,1.3l-6.29,19.92v12.48c0,.67-.34,1.06-1.01,1.06h-1.97c-.67,0-1.01-.38-1.01-1.06v-12.48l-6.29-19.92c-.24-.67,.14-1.3,.86-1.3h2.02Z" fill="#6d97bf"/><path d="M236.17,63.72c0,.67-.38,1.06-1.06,1.06h-1.92c-.67,0-1.06-.38-1.06-1.06V31.03c0-.67,.38-1.01,1.06-1.01h1.92c.67,0,1.06,.34,1.06,1.01V63.72Z" fill="#9baf50"/><path d="M251.29,31.03c0-.67,.38-1.01,1.06-1.01h1.82c.67,0,1.01,.34,1.01,1.01V63.72c0,.67-.34,1.06-1.01,1.06h-2.54c-.67,0-.91-.29-1.1-.91l-4.8-18-1.68-7.06-.24,.05,.38,7.25v17.62c0,.67-.34,1.06-1.01,1.06h-1.82c-.67,0-1.06-.38-1.06-1.06V31.03c0-.67,.38-1.01,1.06-1.01h2.5c.67,0,.96,.29,1.1,.91l4.8,18,1.68,7.06,.24-.05-.38-7.25V31.03Z" fill="#9baf50"/><path d="M274.09,42.45c0,.67-.38,1.06-1.06,1.06h-1.92c-.67,0-1.06-.38-1.06-1.06v-5.62c0-2.3-.62-3.7-3.36-3.7s-3.36,1.39-3.36,3.7v21.12c0,2.3,.62,3.7,3.36,3.7s3.36-1.39,3.36-3.7v-5.67c0-.67,.38-1.01,1.06-1.01h1.92c.67,0,1.06,.34,1.06,1.01v5.67c0,4.56-1.63,7.06-7.39,7.06s-7.39-2.5-7.39-7.06v-21.12c0-4.56,1.63-7.06,7.39-7.06s7.39,2.5,7.39,7.06v5.62Z" fill="#9baf50"/><path d="M282.25,61.42h7.87c.67,0,1.06,.34,1.06,1.01v1.3c0,.67-.38,1.06-1.06,1.06h-10.85c-.67,0-1.06-.38-1.06-1.06V31.03c0-.67,.38-1.01,1.06-1.01h1.92c.67,0,1.06,.34,1.06,1.01v30.39Z" fill="#9baf50"/><path d="M293.62,31.03c0-.67,.38-1.01,1.06-1.01h1.92c.67,0,1.06,.34,1.06,1.01v26.93c0,2.3,.62,3.7,3.36,3.7s3.36-1.39,3.36-3.7V31.03c0-.67,.38-1.01,1.06-1.01h1.92c.67,0,1.06,.34,1.06,1.01v26.93c0,4.56-1.63,7.06-7.39,7.06s-7.39-2.5-7.39-7.06V31.03Z" fill="#9baf50"/><path d="M319.01,43.56l4.99,5.23c2.16,2.16,3.17,4.13,3.17,9.17,0,4.56-1.63,7.06-7.39,7.06s-7.34-2.5-7.34-7.06v-4.56c0-.67,.34-1.06,1.01-1.06h1.97c.67,0,1.01,.38,1.01,1.06v4.56c0,2.3,.62,3.7,3.36,3.7s3.41-1.39,3.41-3.7c0-3.07-.38-4.37-2.59-6.72l-4.99-5.23c-2.16-2.11-3.17-4.13-3.17-9.17,0-4.56,1.58-7.06,7.34-7.06s7.39,2.5,7.39,7.06v4.56c0,.67-.34,1.01-1.01,1.01h-1.97c-.67,0-1.01-.34-1.01-1.01v-4.56c0-2.3-.67-3.7-3.41-3.7s-3.36,1.39-3.36,3.7c0,3.12,.38,4.42,2.59,6.72Z" fill="#9baf50"/><path d="M335.24,63.72c0,.67-.38,1.06-1.06,1.06h-1.92c-.67,0-1.06-.38-1.06-1.06V31.03c0-.67,.38-1.01,1.06-1.01h1.92c.67,0,1.06,.34,1.06,1.01V63.72Z" fill="#9baf50"/><path d="M354.15,36.84v21.12c0,4.56-1.63,7.06-7.39,7.06s-7.39-2.5-7.39-7.06v-21.12c0-4.56,1.63-7.06,7.39-7.06s7.39,2.5,7.39,7.06Zm-10.75,0v21.12c0,2.3,.62,3.7,3.36,3.7s3.36-1.39,3.36-3.7v-21.12c0-2.3-.62-3.7-3.36-3.7s-3.36,1.39-3.36,3.7Z" fill="#9baf50"/><path d="M369.27,31.03c0-.67,.38-1.01,1.06-1.01h1.82c.67,0,1.01,.34,1.01,1.01V63.72c0,.67-.34,1.06-1.01,1.06h-2.54c-.67,0-.91-.29-1.1-.91l-4.8-18-1.68-7.06-.24,.05,.38,7.25v17.62c0,.67-.34,1.06-1.01,1.06h-1.82c-.67,0-1.06-.38-1.06-1.06V31.03c0-.67,.38-1.01,1.06-1.01h2.5c.67,0,.96,.29,1.1,.91l4.8,18,1.68,7.06,.24-.05-.38-7.25V31.03Z" fill="#9baf50"/></g></g><g id="Layer_2"><rect x="33.19" y="63.08" width="17.47" height="17.47" transform="translate(63.06 -8.61) rotate(45)" fill="#855b2f"/><polygon points="66.83 59.37 54.48 47.02 66.63 34.46 78.98 46.82 66.83 59.37" fill="#9baf50"/><rect x="32.75" y="13.23" width="17.47" height="17.47" transform="translate(27.68 -22.9) rotate(45)" fill="#6d97bf"/><rect x="8.4" y="38.18" width="17.44" height="17.44" transform="translate(38.18 1.63) rotate(45)" fill="#dd733e"/><rect x="47.52" y="35.88" width="5.81" height="5.81" transform="translate(42.2 -24.29) rotate(45)" fill="#6d97bf"/><rect x="30.66" y="35.67" width="5.81" height="5.81" transform="translate(37.11 -12.44) rotate(45)" fill="#6d97bf"/><rect x="39.2" y="44.21" width="5.81" height="5.81" transform="translate(45.64 -15.97) rotate(45)" fill="#855b2f"/><rect x="55.79" y="60.88" width="5.81" height="5.81" transform="translate(62.29 -22.82) rotate(45)" fill="#855b2f"/><rect x="55.79" y="27.15" width="5.81" height="5.81" transform="translate(38.44 -32.7) rotate(45)" fill="#febc30"/><rect x="22.25" y="60.68" width="5.81" height="5.81" transform="translate(52.33 .84) rotate(45)" fill="#855b2f"/><rect x="22.25" y="27.25" width="5.81" height="5.81" transform="translate(28.69 -8.95) rotate(45)" fill="#febc30"/><rect x="47.54" y="52.55" width="5.81" height="5.81" transform="translate(53.99 -19.43) rotate(45)" fill="#6d97bf"/><path d="M41.69,18.12L12.92,46.9l28.78,28.78,28.78-28.78-28.78-28.78Zm.08,50.12l-21.34-21.34,21.34-21.34,21.34,21.34-21.34,21.34Z" fill="#fff"/><rect x="30.88" y="52.53" width="5.81" height="5.81" transform="translate(49.09 -7.65) rotate(45)" fill="#6d97bf"/></g></svg>