<?xml version="1.0" encoding="utf-8"?>
<!-- Generator: Adobe Illustrator 27.2.0, SVG Export Plug-In . SVG Version: 6.00 Build 0)  -->
<svg version="1.1" id="Livello_1" xmlns="http://www.w3.org/2000/svg" xmlns:xlink="http://www.w3.org/1999/xlink" x="0px" y="0px"
	 viewBox="0 0 1498.5 445.1" style="enable-background:new 0 0 1498.5 445.1;" xml:space="preserve">
<style type="text/css">
	.st0{enable-background:new    ;}
	.st1{fill:#2C2C2C;}
	.st2{fill:#A84E47;}
	.st3{fill:#F5F5F5;}
</style>
<g>
	<g class="st0">
		<path class="st1" d="M375.4,102.6H406c4.5,0,9.2,0.2,14,0.5s9.5,1,14.1,2s8.9,2.5,13.1,4.5c4.1,2,7.7,4.6,10.8,8
			c3.1,3.3,5.5,7.5,7.4,12.4c1.8,4.9,2.7,10.9,2.7,17.8v9.7c0,5.3-0.8,10.2-2.3,14.6c-1.5,4.4-3.5,8.3-6,11.7s-5.3,6.2-8.5,8.4
			s-6.5,3.7-9.8,4.5v0.9c9.9,1.8,17.3,6.5,22.3,14.1s7.5,17.3,7.5,29.1V251c0,7.2-0.8,13.5-2.4,18.8s-3.8,9.9-6.7,13.7
			c-2.9,3.8-6.3,6.9-10.3,9.3s-8.3,4.3-13.1,5.7c-4.7,1.4-9.8,2.3-15.2,2.8c-5.4,0.5-10.9,0.8-16.6,0.8h-31.7V102.6H375.4z
			 M410.9,187.9c4,0,7.7-0.5,11.1-1.5c3.3-1,6.2-2.5,8.6-4.6s4.2-4.7,5.5-8.1c1.3-3.3,1.9-7.3,1.9-12v-8.2c0-4.7-0.5-8.8-1.4-12.4
			c-0.9-3.6-2.5-6.6-4.6-9.1s-4.9-4.4-8.4-5.7c-3.5-1.3-7.7-1.9-12.7-1.9h-5.8v63.3h5.8V187.9z M413.7,280.9c4,0,7.7-0.5,11-1.6
			s6.1-2.7,8.5-4.9c2.4-2.2,4.2-5,5.5-8.5c1.3-3.4,1.9-7.5,1.9-12.1v-15.5c0-4.7-0.5-8.8-1.4-12.4c-0.9-3.6-2.5-6.7-4.6-9.1
			c-2.1-2.5-4.9-4.3-8.3-5.6s-7.6-1.9-12.6-1.9h-8.6V281h8.6V280.9z"/>
		<path class="st1" d="M541.7,303.7c-3.2,0-6.7-0.3-10.4-0.8s-7.4-1.6-11.1-3.2c-3.7-1.6-7.2-3.9-10.6-6.9s-6.4-6.9-9-11.8
			s-4.7-10.9-6.2-18.1c-1.6-7.2-2.3-15.8-2.3-25.7v-70.6c0-10,0.8-18.6,2.4-25.7c1.6-7.1,3.7-13.1,6.4-18c2.6-4.9,5.7-8.7,9-11.6
			c3.4-2.9,6.9-5.1,10.6-6.6s7.4-2.5,11-3c3.7-0.5,7-0.7,10.2-0.7c3,0,6.2,0.2,9.9,0.6c3.6,0.4,7.2,1.4,10.9,2.8
			c3.6,1.4,7.1,3.6,10.6,6.4c3.4,2.8,6.5,6.7,9.1,11.6s4.8,10.9,6.4,18.1c1.6,7.2,2.4,15.9,2.4,26.1V237c0,9.9-0.8,18.4-2.5,25.5
			c-1.6,7.1-3.8,13.1-6.4,18.1c-2.6,4.9-5.7,8.9-9.2,11.9s-7,5.3-10.6,7s-7.2,2.8-10.8,3.3C547.8,303.4,544.6,303.7,541.7,303.7z
			 M541.7,280.9c3,0,5.5-0.5,7.8-1.5c2.2-1,4-2.8,5.5-5.3c1.4-2.5,2.5-5.8,3.3-9.9c0.7-4.1,1.1-9.2,1.1-15.5V158
			c0-6.4-0.4-11.7-1.1-16c-0.7-4.3-1.8-7.7-3.3-10.3c-1.4-2.6-3.3-4.5-5.5-5.5c-2.2-1.1-4.8-1.6-7.8-1.6s-5.7,0.5-7.9,1.6
			c-2.3,1.1-4.1,2.9-5.6,5.5s-2.6,6-3.3,10.3s-1.1,9.6-1.1,16v90.7c0,6.2,0.4,11.4,1.1,15.5c0.7,4.1,1.8,7.4,3.3,9.9
			s3.3,4.2,5.6,5.3C536,280.4,538.7,280.9,541.7,280.9z"/>
		<path class="st1" d="M619.4,102.6H650c4.5,0,9.2,0.2,14,0.5s9.5,1,14.1,2s8.9,2.5,13.1,4.5c4.1,2,7.7,4.6,10.8,8
			c3.1,3.3,5.5,7.5,7.4,12.4c1.8,4.9,2.7,10.9,2.7,17.8v9.7c0,5.3-0.8,10.2-2.3,14.6c-1.5,4.4-3.5,8.3-6,11.7s-5.3,6.2-8.5,8.4
			s-6.5,3.7-9.8,4.5v0.9c9.9,1.8,17.3,6.5,22.3,14.1s7.5,17.3,7.5,29.1V251c0,7.2-0.8,13.5-2.4,18.8c-1.6,5.3-3.8,9.9-6.7,13.7
			c-2.9,3.8-6.3,6.9-10.3,9.3s-8.3,4.3-13.1,5.7c-4.7,1.4-9.8,2.3-15.2,2.8s-10.9,0.8-16.6,0.8h-31.7V102.6H619.4z M654.9,187.9
			c4,0,7.7-0.5,11.1-1.5c3.3-1,6.2-2.5,8.6-4.6c2.4-2.1,4.2-4.7,5.5-8.1c1.3-3.3,1.9-7.3,1.9-12v-8.2c0-4.7-0.5-8.8-1.4-12.4
			c-0.9-3.6-2.5-6.6-4.6-9.1s-4.9-4.4-8.4-5.7c-3.5-1.3-7.7-1.9-12.7-1.9h-5.8v63.3h5.8L654.9,187.9L654.9,187.9z M657.7,280.9
			c4,0,7.7-0.5,11-1.6s6.1-2.7,8.5-4.9c2.4-2.2,4.2-5,5.5-8.5c1.3-3.4,1.9-7.5,1.9-12.1v-15.5c0-4.7-0.5-8.8-1.4-12.4
			c-0.9-3.6-2.5-6.7-4.6-9.1c-2.1-2.5-4.9-4.3-8.3-5.6c-3.4-1.3-7.6-1.9-12.6-1.9h-8.6V281h8.6L657.7,280.9L657.7,280.9z"/>
		<path class="st1" d="M733.9,261.5c0-4.3,0.3-8.2,0.8-11.8s1.3-7.5,2.3-11.7h23.5v9.7c0,5.4,0.3,10.1,1,14.2s1.8,7.6,3.3,10.4
			s3.5,5,6.1,6.4c2.5,1.4,5.6,2.2,9.3,2.2c5.8,0,10.2-1.6,13.2-4.7c3-3.2,4.6-7.8,4.6-13.8c0-3.1-0.2-6-0.6-8.6
			c-0.4-2.6-1.2-5.2-2.2-7.8c-1.1-2.6-2.5-5.3-4.3-8.1s-4.1-6-6.9-9.5l-31.5-37.5c-5.6-7.2-9.9-14.4-13-21.6c-3-7.3-4.6-15-4.6-23.3
			c0-6.6,1-12.7,3.1-18.2s5-10.3,8.9-14.3s8.7-7.1,14.4-9.3c5.7-2.2,12.2-3.3,19.4-3.3c8.8,0,16.1,1.2,22,3.7s10.6,5.8,14.1,9.8
			s6,8.6,7.4,13.6c1.4,5,2.2,10.1,2.2,15.1c0,4.3-0.3,8.2-1,11.8s-1.4,7.6-2.3,12h-23.3v-9.5c0-10.6-1.5-18.7-4.6-24.3
			c-3-5.6-8-8.5-14.8-8.5c-5.7,0-9.9,1.6-12.7,4.7c-2.8,3.2-4.2,7.4-4.2,12.7c0,2.8,0.2,5.3,0.6,7.6c0.4,2.3,1.1,4.3,1.9,6.2
			c0.8,1.9,1.8,3.8,3,5.5c1.2,1.8,2.5,3.7,4,5.6l35.1,42.5c6.4,8.3,11.3,16.3,14.7,24s5.1,15.8,5.1,24.3c0,7.1-1.1,13.5-3.3,19.1
			c-2.2,5.7-5.4,10.5-9.5,14.5s-9.1,7-14.9,9.2s-12.4,3.2-19.7,3.2c-9,0-16.5-1.2-22.5-3.6s-10.7-5.6-14.2-9.6s-6-8.5-7.5-13.5
			C734.6,272,733.9,266.8,733.9,261.5z"/>
		<path class="st1" d="M896.1,303.7c-3.1,0-6.5-0.3-10.1-0.8s-7.2-1.6-10.9-3.2c-3.6-1.6-7.1-3.9-10.4-6.9c-3.3-3-6.2-6.9-8.8-11.8
			c-2.5-4.9-4.6-10.9-6.1-18.1c-1.5-7.2-2.3-15.8-2.3-25.7v-70.6c0-10,0.8-18.6,2.3-25.7c1.6-7.1,3.6-13.1,6.2-18
			c2.6-4.9,5.5-8.7,8.9-11.6c3.3-2.9,6.8-5.1,10.4-6.6c3.6-1.5,7.1-2.5,10.7-3c3.5-0.5,6.8-0.7,9.9-0.7c7.9,0,14.6,1.1,19.9,3.3
			c5.3,2.2,9.6,5.3,12.8,9.1c3.2,3.9,5.5,8.3,6.9,13.5c1.4,5.1,2,10.6,2,16.3c0,4.3-0.2,8.2-0.6,11.8c-0.4,3.6-1.1,7.6-1.9,12h-24.5
			v-10.2c0-11-1.2-19.2-3.6-24.6c-2.4-5.4-6-8.2-10.6-8.2c-2.8,0-5.3,0.5-7.4,1.6c-2.1,1.1-3.9,2.9-5.3,5.5c-1.4,2.6-2.5,6-3.2,10.3
			s-1.1,9.6-1.1,16v91c0,6.2,0.3,11.4,0.9,15.5c0.6,4.1,1.5,7.4,2.9,9.9c1.3,2.5,3.1,4.3,5.2,5.3c2.1,1.1,4.7,1.6,7.8,1.6
			c1.9,0,3.8-0.4,5.6-1.3s3.4-2.3,4.7-4.2c1.4-1.9,2.5-4.3,3.3-7.2c0.8-2.9,1.2-6.4,1.2-10.3v-19.5h27.7v18.4c0,16-3.7,27.9-11,35.5
			C920.3,299.7,909.8,303.6,896.1,303.7z"/>
		<path class="st1" d="M984.4,102.6h34.8l36.9,199.3h-30.6l-5.5-35.7h-36.4l-5.3,35.7h-30.7L984.4,102.6z M1016.4,243.5l-14-99.3
			h-1.3L987,243.5H1016.4z"/>
		<path class="st1" d="M1075.3,102.6h30.2c3.8,0,8,0.2,12.5,0.5c4.6,0.3,9.1,1.2,13.7,2.5s8.9,3.2,13.2,5.9c4.2,2.6,8,6.2,11.3,10.8
			c3.3,4.6,5.9,10.3,7.9,17.1s3,15.2,3,25v7c0,10.7-0.9,19.8-2.7,27.4c-1.8,7.6-4.3,14-7.3,19.1c-3,5.2-6.6,9.3-10.6,12.4
			c-4,3.1-8.2,5.5-12.5,7.1s-8.7,2.6-13.1,3.2c-4.4,0.5-8.5,0.8-12.4,0.8h-2.9v60.7h-30.2L1075.3,102.6L1075.3,102.6z M1107,219.1
			c5.4,0,10-0.8,13.8-2.4c3.7-1.6,6.7-4.1,8.9-7.5c2.2-3.4,3.8-7.7,4.8-13.1c1-5.3,1.5-11.7,1.5-19.2v-18c0-5.9-0.4-11-1.3-15.3
			s-2.4-7.9-4.6-10.7s-5.2-4.9-8.9-6.2c-3.7-1.4-8.4-2-14.1-2h-1.5v94.4H1107z"/>
		<path class="st1" d="M1189.9,102.6h73.9v23.8h-43.6V186h33.7v23.8h-33.7v68.3h44.8v23.8h-75V102.6H1189.9z"/>
		<path class="st1" d="M1279,261.5c0-4.3,0.3-8.2,0.8-11.8s1.3-7.5,2.3-11.7h23.5v9.7c0,5.4,0.3,10.1,1,14.2s1.8,7.6,3.3,10.4
			s3.5,5,6.1,6.4c2.5,1.4,5.6,2.2,9.3,2.2c5.8,0,10.2-1.6,13.2-4.7c3-3.2,4.6-7.8,4.6-13.8c0-3.1-0.2-6-0.6-8.6s-1.2-5.2-2.2-7.8
			c-1.1-2.6-2.5-5.3-4.3-8.1s-4.1-6-6.9-9.5l-31.5-37.5c-5.6-7.2-9.9-14.4-13-21.6c-3-7.3-4.6-15-4.6-23.3c0-6.6,1-12.7,3.1-18.2
			s5-10.3,8.9-14.3s8.7-7.1,14.4-9.3c5.7-2.2,12.2-3.3,19.4-3.3c8.8,0,16.1,1.2,22,3.7s10.6,5.8,14.1,9.8s6,8.6,7.4,13.6
			c1.4,5,2.2,10.1,2.2,15.1c0,4.3-0.3,8.2-1,11.8s-1.4,7.6-2.3,12h-23.3v-9.5c0-10.6-1.5-18.7-4.6-24.3c-3-5.6-8-8.5-14.8-8.5
			c-5.7,0-9.9,1.6-12.7,4.7c-2.8,3.2-4.2,7.4-4.2,12.7c0,2.8,0.2,5.3,0.6,7.6s1.1,4.3,1.9,6.2s1.8,3.8,3,5.5c1.2,1.8,2.5,3.7,4,5.6
			l35.1,42.5c6.4,8.3,11.3,16.3,14.7,24c3.4,7.7,5.1,15.8,5.1,24.3c0,7.1-1.1,13.5-3.3,19.1c-2.2,5.7-5.4,10.5-9.5,14.5
			s-9.1,7-14.9,9.2s-12.4,3.2-19.7,3.2c-9,0-16.5-1.2-22.5-3.6s-10.7-5.6-14.2-9.6s-6-8.5-7.5-13.5
			C1279.7,272,1279,266.8,1279,261.5z"/>
	</g>
	<g>
		<path class="st1" d="M409.7,390.3c1.5-0.9,2.8-2.1,3.8-3.6c1.6-2.3,2.4-5,2.4-8.3c0-2.6-0.6-5.2-1.9-7.6s-3.2-4.3-5.7-5.9
			c-2.5-1.5-5.6-2.3-9.3-2.3h-22.9v58.3h25.1c3.7,0,6.9-0.7,9.5-2.1s4.6-3.4,6-5.9s2-5.5,2-9s-1-6.6-3-9.3
			C414.2,392.8,412.2,391.3,409.7,390.3z M384.7,370.8h14.2c2.5,0,4.6,0.7,6.1,2.2s2.3,3.3,2.3,5.6c0,1.7-0.4,3.2-1.1,4.4
			c-0.7,1.2-1.7,2.1-3,2.8c-1.3,0.6-2.7,1-4.2,1h-14.2L384.7,370.8L384.7,370.8z M408.7,408.8c-0.9,1.4-2.1,2.4-3.6,3.1
			s-3.2,1.1-5.2,1.1h-15.2v-18.5h15.8c1.9,0,3.6,0.4,5.1,1.2s2.6,1.9,3.3,3.4c0.8,1.4,1.2,3,1.2,4.8
			C410,405.8,409.6,407.5,408.7,408.8z"/>
		<path class="st1" d="M457.1,379.1c-3.2-2-7-3-11.4-3c-4.3,0-8,1-11.3,2.9c-3.2,1.9-5.7,4.6-7.5,8.1s-2.7,7.5-2.7,12
			s0.9,8.5,2.6,12s4.2,6.2,7.4,8.2c3.2,2,7,3,11.4,3c4.3,0,8.1-1,11.3-2.9c3.2-2,5.7-4.7,7.5-8.1c1.8-3.5,2.7-7.5,2.7-12
			s-0.9-8.5-2.6-11.9C462.8,383.8,460.3,381.1,457.1,379.1z M455.1,410.1c-2.1,2.8-5.2,4.2-9.4,4.2c-4.1,0-7.2-1.4-9.3-4.1
			c-2.1-2.8-3.2-6.4-3.2-11c0-3,0.4-5.6,1.3-7.8c0.9-2.3,2.3-4,4.1-5.3c1.8-1.3,4.2-1.9,7-1.9c4.1,0,7.2,1.4,9.3,4.1
			c2.1,2.7,3.1,6.4,3.1,11C458.2,403.7,457.2,407.3,455.1,410.1z"/>
		<path class="st1" d="M507.1,379.2c-3-2-6.5-3-10.6-3s-7.6,1-10.4,3c-0.5,0.4-1,0.8-1.5,1.2v-17.6h-8.5v58.3h7.5v-4
			c0.8,0.8,1.6,1.5,2.5,2.2c2.8,2,6.3,3.1,10.5,3.1c4.1,0,7.6-1,10.6-3s5.2-4.8,6.8-8.3s2.4-7.4,2.4-11.8s-0.8-8.3-2.4-11.8
			S510.1,381.2,507.1,379.2z M506.1,407c-0.9,2.3-2.2,4.2-4,5.6s-4,2.1-6.7,2.1c-2.8,0-5-0.7-6.8-2s-3-3.1-3.8-5.5
			c-0.8-2.3-1.2-5-1.2-8s0.4-5.7,1.2-8c0.8-2.3,2.1-4.1,3.8-5.4c1.7-1.3,3.9-1.9,6.5-1.9c2.8,0,5.1,0.7,6.9,2.1s3.2,3.2,4,5.5
			c0.9,2.3,1.3,4.9,1.3,7.8C507.5,402.1,507,404.7,506.1,407z"/>
		<polygon class="st1" points="563,407.4 553.8,377.4 546.5,377.4 537.2,407.4 528.1,377.4 519.7,377.3 533.1,421.1 539.9,421.1 
			550.1,389.5 560.3,421.1 567.1,421.1 580.5,377.4 572.1,377.4 		"/>
		<path class="st1" d="M625.3,386.7c-0.7-1.9-1.7-3.6-2.9-5.2c-1.3-1.6-3-2.9-5-3.8c-2.1-1-4.6-1.5-7.6-1.5c-3.9,0-7.3,0.8-10.1,2.6
			c-1.7,1-3.2,2.3-4.4,3.9v-19.8h-7.6v58.3h8.6v-22.8c0-2.6,0.3-4.8,0.9-6.6s1.4-3.3,2.4-4.4s2.2-1.9,3.5-2.4s2.8-0.7,4.3-0.7
			c2.3,0,4.2,0.5,5.6,1.4s2.6,2.2,3.4,3.7c0.8,1.5,1.3,3.2,1.6,5s0.4,3.5,0.4,5.2v21.5h8.6v-24.3c0-1.3-0.1-2.9-0.4-4.7
			S626,388.5,625.3,386.7z"/>
		<rect x="638.4" y="377.4" class="st1" width="8.5" height="43.7"/>
		<rect x="638.4" y="362" class="st1" width="8.5" height="8.2"/>
		<path class="st1" d="M671,365.2h-8.5v12.1h-8.4v6.8h8.4v19.7c0,2.4,0,4.5,0.1,6.4s0.6,3.7,1.5,5.5c1.1,2,2.6,3.5,4.7,4.5
			c2.1,0.9,4.4,1.5,7.1,1.5s5.3-0.1,8.1-0.7v-7c-2.9,0.4-5.4,0.5-7.5,0.3s-3.7-1.2-4.6-2.9c-0.5-0.9-0.8-2-0.8-3.3s-0.1-2.8-0.1-4.6
			v-19.3h13v-6.8h-13V365.2z"/>
		<path class="st1" d="M721.6,379.3c-3.1-2.1-6.9-3.1-11.4-3.1c-4.3,0-8,1-11.2,2.9s-5.7,4.6-7.5,8.1s-2.7,7.7-2.7,12.4
			c0,4.5,0.9,8.5,2.7,11.9s4.4,6.1,7.7,8s7.1,2.9,11.4,2.9c4.2,0,8.1-1.1,11.5-3.2c3.5-2.1,6-5.2,7.7-9.1l-8.3-2.6
			c-1.1,2.2-2.6,4-4.5,5.2s-4.2,1.8-6.9,1.8c-4,0-7.1-1.3-9.2-3.9c-1.8-2.2-2.8-5.1-3.1-8.8H722h4.3h4.2c0.3-5.2-0.3-9.8-1.8-13.6
			C727.1,384.3,724.7,381.3,721.6,379.3z M701,387.7c2.1-2.7,5.3-4,9.6-4c3.8,0,6.7,1.2,8.6,3.6c1.4,1.8,2.3,4.4,2.7,7.7h-23.7
			C698.5,392,699.5,389.5,701,387.7z"/>
		<path class="st1" d="M790.5,379.1c-3.2-2-7-3-11.4-3c-4.3,0-8,1-11.3,2.9c-3.2,1.9-5.7,4.6-7.5,8.1s-2.7,7.5-2.7,12
			s0.9,8.5,2.6,12c1.7,3.5,4.2,6.2,7.4,8.2s7,3,11.4,3c4.3,0,8.1-1,11.3-2.9c3.2-2,5.7-4.7,7.5-8.1s2.7-7.5,2.7-12
			s-0.9-8.5-2.6-11.9C796.2,383.8,793.7,381.1,790.5,379.1z M788.5,410.1c-2.1,2.8-5.2,4.2-9.4,4.2c-4.1,0-7.2-1.4-9.3-4.1
			c-2.1-2.8-3.2-6.4-3.2-11c0-3,0.4-5.6,1.3-7.8c0.9-2.3,2.3-4,4.1-5.3s4.2-1.9,7-1.9c4.1,0,7.2,1.4,9.3,4.1s3.1,6.4,3.1,11
			C791.6,403.7,790.6,407.3,788.5,410.1z"/>
		<path class="st1" d="M847.1,386.7c-0.7-1.9-1.7-3.6-2.9-5.2c-1.3-1.6-3-2.9-5-3.8c-2.1-1-4.6-1.5-7.6-1.5c-3.9,0-7.3,0.8-10.1,2.6
			c-1.7,1-3.2,2.3-4.4,3.9v-5.3h-7.6v43.7h8.6v-22.8c0-2.6,0.3-4.8,0.9-6.6s1.4-3.3,2.4-4.4s2.2-1.9,3.5-2.4s2.8-0.7,4.3-0.7
			c2.3,0,4.2,0.5,5.6,1.4s2.6,2.2,3.4,3.7c0.8,1.5,1.3,3.2,1.6,5s0.4,3.5,0.4,5.2V421h8.6v-24.3c0-1.3-0.1-2.9-0.4-4.7
			S847.7,388.5,847.1,386.7z"/>
		<path class="st1" d="M905.9,379.1c-3.2-2-7-3-11.4-3c-4.3,0-8,1-11.3,2.9c-3.2,1.9-5.7,4.6-7.5,8.1s-2.7,7.5-2.7,12
			s0.9,8.5,2.6,12c1.7,3.5,4.2,6.2,7.4,8.2s7,3,11.4,3c4.3,0,8.1-1,11.3-2.9c3.2-2,5.7-4.7,7.5-8.1s2.7-7.5,2.7-12
			s-0.9-8.5-2.6-11.9C911.6,383.8,909.1,381.1,905.9,379.1z M903.9,410.1c-2.1,2.8-5.2,4.2-9.4,4.2c-4.1,0-7.2-1.4-9.3-4.1
			c-2.1-2.8-3.2-6.4-3.2-11c0-3,0.4-5.6,1.3-7.8c0.9-2.3,2.3-4,4.1-5.3s4.2-1.9,7-1.9c4.1,0,7.2,1.4,9.3,4.1s3.1,6.4,3.1,11
			C907,403.7,906,407.3,903.9,410.1z"/>
		<path class="st1" d="M954.8,400.1c0,2.6-0.3,4.8-0.9,6.6c-0.6,1.8-1.4,3.3-2.4,4.4s-2.2,1.9-3.5,2.4c-1.4,0.5-2.8,0.7-4.3,0.7
			c-2.3,0-4.2-0.5-5.7-1.4s-2.6-2.2-3.4-3.7c-0.8-1.5-1.3-3.2-1.6-5s-0.4-3.5-0.4-5.2v-21.5H924v24.3c0,1.4,0.1,2.9,0.4,4.7
			s0.7,3.6,1.4,5.5s1.7,3.6,2.9,5.2c1.3,1.6,2.9,2.9,5,3.8c2.1,1,4.6,1.5,7.6,1.5c3.9,0,7.3-0.9,10.1-2.6c1.7-1,3.2-2.3,4.4-3.9v5.3
			h7.5v-43.7h-8.5L954.8,400.1L954.8,400.1z"/>
		<path class="st1" d="M994.2,377.2c-1.4,0.1-2.8,0.4-4.2,0.8c-1.4,0.4-2.6,1.1-3.7,1.9s-2.1,1.7-3,2.9c-0.4,0.5-0.7,1.1-1.1,1.6v-7
			h-7.5v43.7h8.5V399c0-1.7,0.2-3.4,0.5-4.9c0.4-1.6,0.9-3,1.7-4.2c0.8-1.3,1.9-2.3,3.3-3.2c1.5-0.9,3.1-1.5,4.8-1.7
			c1.7-0.2,3.3-0.1,4.8,0.3v-7.9C997,377.1,995.6,377.1,994.2,377.2z"/>
		<rect x="1023" y="361.6" class="st1" width="8.5" height="59.5"/>
		<path class="st1" d="M1077.7,384.5c-1.4-2.9-3.5-5-6.4-6.3s-6.3-2-10.2-2c-5,0-9.1,1.1-12.1,3.3c-3,2.2-5.1,5.2-6.2,9l7.9,2.4
			c0.8-2.5,2.1-4.2,4-5.3c1.9-1.1,4-1.6,6.3-1.6c3.6,0,6.2,0.8,7.7,2.5c1.3,1.4,2,3.6,2.1,6.4c-1.7,0.2-3.3,0.5-5,0.7
			c-2.7,0.4-5.3,0.8-7.8,1.2s-4.7,0.9-6.6,1.5c-2.2,0.7-4.1,1.7-5.7,2.9s-2.7,2.6-3.5,4.3c-0.8,1.7-1.2,3.6-1.2,5.8
			c0,2.4,0.6,4.6,1.7,6.5c1.1,2,2.8,3.6,5,4.8c2.2,1.2,4.9,1.8,8.1,1.8c4.1,0,7.5-0.8,10.3-2.5c2.1-1.2,3.9-2.9,5.4-5.1v6.3h7.5
			v-26.9c0-1.8-0.1-3.5-0.2-5.1C1078.8,387.5,1078.4,385.9,1077.7,384.5z M1069.9,406.7c-0.3,1.4-1,2.8-2.1,4.1
			c-1.1,1.3-2.4,2.4-4.2,3.3c-1.7,0.9-3.8,1.3-6.2,1.3c-1.8,0-3.3-0.3-4.5-0.8c-1.2-0.6-2-1.3-2.6-2.3s-0.9-2-0.9-3.1
			c0-1.2,0.3-2.1,0.8-3c0.5-0.8,1.2-1.5,2.1-2.1s1.9-1.1,3.1-1.5c1.4-0.4,2.9-0.8,4.7-1.1c1.8-0.3,3.7-0.6,5.9-1
			c1.4-0.2,2.9-0.4,4.5-0.7c0,0.7,0,1.5-0.1,2.5C1070.6,404,1070.4,405.5,1069.9,406.7z"/>
		<path class="st1" d="M1127.3,386.7c-0.7-1.9-1.7-3.6-2.9-5.2c-1.3-1.6-3-2.9-5-3.8c-2.1-1-4.6-1.5-7.6-1.5
			c-3.9,0-7.3,0.8-10.1,2.6c-1.7,1-3.2,2.3-4.4,3.9v-5.3h-7.6v43.7h8.6v-22.8c0-2.6,0.3-4.8,0.9-6.6s1.4-3.3,2.4-4.4
			s2.2-1.9,3.5-2.4s2.8-0.7,4.3-0.7c2.3,0,4.2,0.5,5.6,1.4s2.6,2.2,3.4,3.7s1.3,3.2,1.6,5c0.3,1.8,0.4,3.5,0.4,5.2V421h8.6v-24.3
			c0-1.3-0.1-2.9-0.4-4.7S1128,388.5,1127.3,386.7z"/>
		<path class="st1" d="M1168.5,380.4c-0.5-0.4-1-0.8-1.5-1.2c-2.8-2-6.3-3-10.4-3s-7.6,1-10.6,3s-5.3,4.8-6.9,8.2s-2.4,7.4-2.4,11.8
			s0.8,8.3,2.4,11.8s3.9,6.3,6.8,8.3c3,2,6.5,3,10.6,3c4.2,0,7.7-1,10.5-3.1c0.9-0.7,1.7-1.4,2.5-2.2v4h7.5v-58.3h-8.5V380.4z
			 M1168.3,407.2c-0.8,2.3-2.1,4.1-3.8,5.5c-1.8,1.3-4,2-6.8,2c-2.7,0-4.9-0.7-6.7-2.1c-1.8-1.4-3.1-3.2-4-5.6
			c-0.9-2.3-1.3-4.9-1.3-7.8s0.4-5.5,1.3-7.8s2.2-4.2,4-5.5c1.8-1.4,4.1-2.1,6.9-2.1c2.6,0,4.8,0.6,6.5,1.9s3,3.1,3.8,5.4
			s1.2,5,1.2,8S1169.1,404.9,1168.3,407.2z"/>
		<path class="st1" d="M1216.8,398.6c-2.2-1.1-5.1-2.2-8.7-3.1c-3.4-0.9-6-1.6-7.8-2.2s-2.9-1.3-3.5-1.9s-0.9-1.5-0.9-2.5
			c0-1.7,0.8-3,2.4-3.9c1.6-1,3.7-1.4,6.2-1.3c2.7,0.1,4.8,0.8,6.5,2s2.7,2.9,3,5l8.7-1.6c-0.3-2.6-1.3-4.9-2.9-6.8
			s-3.7-3.4-6.4-4.5c-2.6-1.1-5.6-1.6-9-1.6s-6.4,0.5-9,1.6s-4.5,2.6-5.9,4.6s-2.1,4.3-2.1,6.9c0,2.1,0.5,3.9,1.4,5.4
			s2.5,2.8,4.7,3.9s5.2,2.2,8.9,3.1c3.4,0.9,6,1.7,7.7,2.3c1.7,0.6,2.8,1.3,3.3,2s0.8,1.6,0.8,2.7c0,1.9-0.7,3.4-2.2,4.5
			s-3.6,1.6-6.2,1.6c-2.9,0-5.4-0.7-7.3-2c-2-1.3-3.2-3.1-3.7-5.4l-8.7,1.3c0.8,4.3,2.8,7.6,6.2,9.9c3.3,2.3,7.7,3.5,13,3.5
			c5.5,0,9.9-1.2,13-3.7s4.7-5.8,4.7-10.2c0-2.2-0.5-4.2-1.4-5.7S1218.9,399.8,1216.8,398.6z"/>
		<path class="st1" d="M1243.6,386.1c1.8-1.3,4.1-2,6.8-2c2.5,0,4.6,0.7,6.5,2c1.9,1.4,3.3,3.3,4.1,5.7l8.4-2.4
			c-1.1-4.1-3.3-7.4-6.7-9.8c-3.4-2.4-7.5-3.6-12.3-3.6c-4.4,0-8.2,1-11.4,3s-5.6,4.7-7.3,8.2c-1.7,3.5-2.6,7.5-2.6,12
			c0,4.4,0.9,8.4,2.5,11.9c1.7,3.5,4.1,6.2,7.2,8.2s6.9,3,11.4,3c4.7,0,8.7-1.1,12-3.4s5.7-5.6,7.1-9.8l-8.6-2
			c-0.9,2.3-2.2,4.2-3.9,5.4c-1.7,1.3-3.9,1.9-6.6,1.9c-4,0-7-1.4-9.1-4.2c-2-2.8-3.1-6.4-3.1-10.9c0-2.9,0.5-5.5,1.3-7.8
			C1240.5,389.2,1241.8,387.4,1243.6,386.1z"/>
		<path class="st1" d="M1311.3,384.5c-1.4-2.9-3.5-5-6.4-6.3s-6.3-2-10.2-2c-5,0-9.1,1.1-12.1,3.3c-3,2.2-5.1,5.2-6.2,9l7.9,2.4
			c0.8-2.5,2.1-4.2,4-5.3c1.9-1.1,4-1.6,6.3-1.6c3.6,0,6.2,0.8,7.7,2.5c1.3,1.4,2,3.6,2.1,6.4c-1.7,0.2-3.3,0.5-5,0.7
			c-2.7,0.4-5.3,0.8-7.8,1.2s-4.7,0.9-6.6,1.5c-2.2,0.7-4.1,1.7-5.7,2.9s-2.7,2.6-3.5,4.3c-0.8,1.7-1.2,3.6-1.2,5.8
			c0,2.4,0.6,4.6,1.7,6.5c1.1,2,2.8,3.6,5,4.8c2.2,1.2,4.9,1.8,8.1,1.8c4.1,0,7.5-0.8,10.3-2.5c2.1-1.2,3.9-2.9,5.4-5.1v6.3h7.5
			v-26.9c0-1.8-0.1-3.5-0.2-5.1C1312.5,387.5,1312,385.9,1311.3,384.5z M1303.6,406.7c-0.3,1.4-1,2.8-2.1,4.1
			c-1.1,1.3-2.4,2.4-4.2,3.3c-1.7,0.9-3.8,1.3-6.2,1.3c-1.8,0-3.3-0.3-4.5-0.8c-1.2-0.6-2-1.3-2.6-2.3s-0.9-2-0.9-3.1
			c0-1.2,0.3-2.1,0.8-3c0.5-0.8,1.2-1.5,2.1-2.1s1.9-1.1,3.1-1.5c1.4-0.4,2.9-0.8,4.7-1.1c1.8-0.3,3.7-0.6,5.9-1
			c1.4-0.2,2.9-0.4,4.5-0.7c0,0.7,0,1.5-0.1,2.5C1304.3,404,1304,405.5,1303.6,406.7z"/>
		<path class="st1" d="M1354.4,379.2c-3-2-6.5-3-10.6-3s-7.6,1-10.4,3c-0.9,0.6-1.7,1.3-2.5,2.1v-3.9h-7.5v63.2h8.5V418
			c0.5,0.4,1,0.9,1.5,1.3c2.8,2,6.3,3.1,10.5,3.1c4.1,0,7.6-1,10.6-3s5.2-4.8,6.8-8.3c1.6-3.5,2.4-7.4,2.4-11.8s-0.8-8.3-2.4-11.8
			S1357.4,381.2,1354.4,379.2z M1353.4,407c-0.9,2.3-2.2,4.2-4,5.6s-4,2.1-6.7,2.1c-2.8,0-5-0.7-6.8-2s-3-3.1-3.8-5.5
			c-0.8-2.3-1.2-5-1.2-8s0.4-5.7,1.2-8c0.8-2.3,2.1-4.1,3.8-5.4c1.7-1.3,3.9-1.9,6.5-1.9c2.8,0,5.1,0.7,6.9,2.1s3.2,3.2,4,5.5
			c0.9,2.3,1.3,4.9,1.3,7.8C1354.8,402.1,1354.3,404.7,1353.4,407z"/>
		<path class="st1" d="M1403,379.3c-3.1-2.1-6.9-3.1-11.4-3.1c-4.3,0-8,1-11.2,2.9s-5.7,4.6-7.5,8.1s-2.7,7.7-2.7,12.4
			c0,4.5,0.9,8.5,2.7,11.9c1.8,3.4,4.4,6.1,7.7,8c3.3,1.9,7.1,2.9,11.4,2.9c4.2,0,8.1-1.1,11.5-3.2c3.5-2.1,6-5.2,7.7-9.1l-8.3-2.6
			c-1.1,2.2-2.6,4-4.5,5.2s-4.2,1.8-6.9,1.8c-4,0-7.1-1.3-9.2-3.9c-1.8-2.2-2.8-5.1-3.1-8.8h24.1h4.3h4.2c0.3-5.2-0.3-9.8-1.8-13.6
			C1408.5,384.3,1406.2,381.3,1403,379.3z M1382.4,387.7c2.1-2.7,5.3-4,9.6-4c3.8,0,6.7,1.2,8.6,3.6c1.4,1.8,2.3,4.4,2.7,7.7h-23.7
			C1380,392,1380.9,389.5,1382.4,387.7z"/>
		<path class="st1" d="M1454,402.7c-0.9-1.6-2.5-2.9-4.6-4.1c-2.2-1.1-5.1-2.2-8.7-3.1c-3.4-0.9-6-1.6-7.8-2.2s-2.9-1.3-3.5-1.9
			s-0.9-1.5-0.9-2.5c0-1.7,0.8-3,2.4-3.9c1.6-1,3.7-1.4,6.2-1.3c2.7,0.1,4.8,0.8,6.5,2s2.7,2.9,3,5l8.7-1.6
			c-0.3-2.6-1.3-4.9-2.9-6.8s-3.7-3.4-6.4-4.5c-2.6-1.1-5.6-1.6-9-1.6s-6.4,0.5-9,1.6s-4.5,2.6-5.9,4.6s-2.1,4.3-2.1,6.9
			c0,2.1,0.5,3.9,1.4,5.4s2.5,2.8,4.7,3.9s5.2,2.2,8.9,3.1c3.4,0.9,6,1.7,7.7,2.3c1.7,0.6,2.8,1.3,3.3,2s0.8,1.6,0.8,2.7
			c0,1.9-0.7,3.4-2.2,4.5s-3.6,1.6-6.2,1.6c-2.9,0-5.4-0.7-7.3-2c-2-1.3-3.2-3.1-3.7-5.4l-8.7,1.3c0.8,4.3,2.8,7.6,6.2,9.9
			c3.3,2.3,7.7,3.5,13,3.5c5.5,0,9.9-1.2,13-3.7s4.7-5.8,4.7-10.2C1455.4,406.2,1455,404.3,1454,402.7z"/>
	</g>
	<g>
		<g>
			<path class="st1" d="M77.8,130.4c-10.1-4.9-16.5-15.1-16.5-26.3c0-2.8,0.4-5.6,1.2-8.3c-0.3-0.3-0.6-0.6-0.9-1
				c-0.4,0-0.7,0-1.1,0c-21.9,0-42,12.3-52,31.8c-0.5,1-0.1,2.3,0.9,2.9c0.5,0.3,1.1,0.3,1.6,0.2c24-7.4,50.1,1.4,64.7,21.8
				c1.5-5.2,2.2-10.6,2.2-16.1C78,133.7,78,132,77.8,130.4z"/>
			<path class="st1" d="M19.9,177.4c-0.9,0.8-0.9,2.1-0.1,3c0.2,0.2,0.4,0.4,0.6,0.5c5.8,2.8,11.4,6.2,16.6,9.9
				c14.2-4.7,26-14.7,33-27.9C52,159.6,33.4,164.9,19.9,177.4z"/>
		</g>
		<path class="st2" d="M270.4,360c-1.6-3.5-3.2-7.1-4.8-10.7c0.2,2.8-1.5,3.7-4,0.9C220,302.4,147.8,296.5,99,337
			c-13.6,11.3-24.4,25.5-31.7,41.5c-2.4,5.2-4.9,4-3.8-1.9c-2.6,12.4-4.6,24.9-5.9,37.5c-0.5,4.9,3.1,9.3,8,9.8
			c2,0.2,4.1-0.3,5.8-1.4c50.6-33,109.6-50.6,169.9-50.5c7.4,0,14.7,0.3,21.9,0.8c4.9,0.4,7.7-3.4,8-8.3
			C271.4,362.9,271.1,361.4,270.4,360z"/>
		<path class="st1" d="M146.8,81.5L146.8,81.5c0.4,0.1,0.7,0.2,1.1,0.2c0.3,0.1,0.6,0.1,0.9,0.2c0.7,0.2,1.5,0.4,2.2,0.5
			c0.1,0,0.2,0,0.3,0.1c0.9,0.2,1.8,0.5,2.7,0.7l0,0c10.9,3.1,21.1,7.8,30.5,13.7c0,0,0-0.1,0.1-0.1c14.7,9.3,27.6,22,37.2,37.9
			c9.7,15.9,15.4,33.8,16.7,52.4c9.3-42.2-5.4-84-35.1-111.3c6.7-6.2,14-11.8,21.8-16.7c1.9-1.2,2.5-3.7,1.3-5.7
			c-1-1.6-2.9-2.3-4.7-1.7c-10.2,3.2-20.3,7-30.1,11.4c9.2-10.3,19.8-19.2,31.6-26.6c1.9-1.2,2.5-3.7,1.3-5.6c-1-1.6-3-2.3-4.7-1.7
			c-15.5,4.9-30.6,11.1-45,18.5c6.3-5.7,13.2-10.9,20.4-15.5c1.9-1.2,2.5-3.7,1.3-5.7c-1-1.6-2.9-2.3-4.7-1.7
			c-9.3,3-19.5,6.7-30.1,11.4C170.9,26,181.5,17,193.3,9.6c1.9-1.2,2.5-3.7,1.3-5.6c-1-1.6-3-2.3-4.7-1.7
			c-31.8,10.1-61.7,25.5-88.3,45.7l-0.1,0.1C84,60,70,76.5,61.2,95.8l0,0c18.3-11.1,39.2-17,60.6-17
			C130.4,78.8,138.7,79.7,146.8,81.5z"/>
		<path class="st1" d="M84.3,304.8l-0.4,1.4c-1.3,6.5-3,12.9-5.2,19.1l-0.3,0.8c-0.2,0.6-0.5,1.3-0.7,1.9c-0.5,1.2-0.9,2.5-1.4,3.7
			c-0.3,1-0.7,1.9-1,2.9c-0.3,0.9-0.7,1.9-1,2.8c-0.3,1-0.7,2.1-1,3.1c-0.3,0.9-0.6,1.8-0.9,2.7c-0.3,1.1-0.7,2.1-1,3.2
			c-0.3,0.9-0.5,1.8-0.8,2.6c-0.3,1.1-0.6,2.1-1,3.2c-0.3,0.9-0.5,1.7-0.7,2.6c-0.3,1.1-0.6,2.2-0.9,3.3c-0.2,0.9-0.5,1.8-0.7,2.6
			c-0.3,1.1-0.6,2.2-0.9,3.3c-0.5,1.8-0.9,3.7-1.3,5.5c-0.2,1-0.5,2-0.7,3s-0.5,2-0.7,3c-0.1,0.3-0.1,0.5-0.2,0.8
			c0,0.2-0.1,0.3-0.1,0.5c-1.1,5.9,1.4,7.1,3.8,1.9c7.3-16.1,18.2-30.3,31.7-41.5c48.8-40.5,121-34.7,162.6,13.2
			c2.5,2.8,4.2,1.9,4-0.9c-0.1-0.9-0.3-1.9-0.8-3.1c-15.3-36.9-24.1-77.3-26.1-117.1c0.1,1.7-0.5,1.8-0.7-0.9
			c-0.2-1.7-0.4-3.3-0.6-5c-0.1-0.6-0.2-1.1-0.3-1.7c-0.2-1.1-0.3-2.2-0.5-3.2c-0.1-0.7-0.3-1.3-0.4-2c-0.2-1-0.4-1.9-0.6-2.9
			c-0.2-0.7-0.3-1.4-0.5-2.1c-0.2-0.9-0.4-1.8-0.7-2.7c-0.2-0.7-0.4-1.4-0.6-2.2c-0.2-0.8-0.5-1.7-0.7-2.5c-0.2-0.7-0.5-1.5-0.7-2.2
			c-0.3-0.8-0.5-1.6-0.8-2.4c-0.3-0.7-0.6-1.5-0.8-2.2c-0.3-0.8-0.6-1.5-0.9-2.3c-0.3-0.7-0.6-1.5-0.9-2.2c-0.3-0.7-0.6-1.5-1-2.2
			c-0.3-0.7-0.7-1.5-1.1-2.2c-0.3-0.7-0.7-1.4-1-2.1c-0.4-0.7-0.8-1.5-1.2-2.2s-0.7-1.3-1.1-2c-0.4-0.7-0.8-1.5-1.3-2.2
			c-0.4-0.6-0.8-1.3-1.1-1.9c-0.5-0.7-0.9-1.5-1.4-2.2c-0.4-0.6-0.8-1.2-1.2-1.8c-0.5-0.7-1-1.4-1.5-2.1c-0.4-0.6-0.8-1.2-1.2-1.7
			c-0.5-0.7-1.1-1.4-1.6-2.1c-0.4-0.5-0.8-1.1-1.3-1.6c-0.6-0.7-1.1-1.4-1.7-2.1c-0.4-0.5-0.9-1-1.3-1.5c-0.6-0.7-1.2-1.4-1.8-2.1
			c-0.4-0.5-0.9-1-1.3-1.4c-0.6-0.7-1.3-1.4-2-2c-0.4-0.5-0.9-0.9-1.3-1.3c-0.7-0.7-1.4-1.3-2.1-2c-0.4-0.4-0.9-0.8-1.4-1.2
			c-0.7-0.7-1.5-1.3-2.2-1.9c-0.5-0.4-0.9-0.8-1.4-1.1c-0.8-0.6-1.5-1.3-2.3-1.9c-0.4-0.4-0.9-0.7-1.4-1.1c-0.8-0.6-1.6-1.2-2.4-1.8
			c-0.4-0.3-0.9-0.6-1.3-1c-0.9-0.6-1.7-1.2-2.6-1.8c-0.4-0.3-0.9-0.6-1.3-0.9c-0.9-0.6-1.8-1.1-2.7-1.7c-0.4-0.3-0.9-0.5-1.3-0.8
			c-0.9-0.6-1.9-1.1-2.8-1.6c-0.4-0.2-0.8-0.5-1.3-0.7c-1-0.5-2-1.1-3-1.6c-0.4-0.2-0.8-0.4-1.2-0.6c-1-0.5-2.1-1-3.1-1.5
			c-0.4-0.2-0.8-0.3-1.2-0.5c-1.1-0.5-2.2-0.9-3.3-1.4c-0.4-0.1-0.7-0.3-1.1-0.4c-1.1-0.4-2.3-0.9-3.5-1.3c-0.3-0.1-0.7-0.2-1-0.3
			c-1.2-0.4-2.4-0.8-3.6-1.2c-0.3-0.1-0.6-0.2-0.8-0.2c-1.3-0.4-2.6-0.8-3.9-1.1c-0.2-0.1-0.4-0.1-0.7-0.2c-1.4-0.3-2.7-0.7-4.1-1
			c-0.1,0-0.3-0.1-0.4-0.1c-1.5-0.3-3-0.6-4.5-0.9l0,0c-0.3,1.5-0.8,3-1.6,4.5c-1.2,2.3-2.9,4.4-5.1,6.2c-4.2,3.5-9.8,5.4-15.7,5.4
			s-11.5-1.9-15.7-5.4c-2.2-1.8-3.9-3.9-5.1-6.2c-0.6-1.1-1-2.3-1.4-3.5l0,0c-1.1,0.2-2.2,0.5-3.2,0.7c-0.1,0-0.2,0.1-0.3,0.1
			c-1.1,0.3-2.2,0.6-3.3,0.9c-0.7,0.2-1.4,0.5-2,0.9c-3.5,2.2-4.5,6.7-2.4,10.2c5.2,8.1,14,13.2,23.6,13.5l0,0
			c25.4,0.8,47.4,18,54.4,42.4c8.8,31-9.2,63.3-40.3,72l0,0c-19.1,5.7-33.9,20.7-39.4,39.8"/>
		<path class="st1" d="M85.6,284.7"/>
		<path class="st3" d="M238.8,230.3c0-0.6-0.1-1.3-0.1-1.9c-0.1-2.2-0.2-4.4-0.2-6.7c0-0.8,0-1.6,0-2.4c0-2.2-0.1-4.3-0.1-6.5
			c0-0.2,0-0.4,0-0.6c0-2.8,0-5.5,0.1-8.2v-8.3c0-27.2-9.3-52.2-24.9-72C192.2,96.4,159,79,121.7,79c-21.3,0-42.3,5.9-60.5,16.9
			c0.1,0.1,0.1,0.1,0.2,0.2c-3.5,12,1.1,24.9,11.4,32c0.5,0.3,0.9,0.7,1.2,1.1c1.3,1.3,2.1,2.9,2.5,4.7c0.1,0.5,0.1,1,0.1,1.5l0,0
			c0,8.1-1.7,15.9-4.8,23.1c-0.1,0.3-0.2,0.5-0.4,0.8c-0.2,0.5-0.5,1-0.7,1.6c-0.4,0.9-0.9,1.7-1.3,2.6
			C62.5,176,51.1,186,36.8,190.7c3.3,2.3,6.4,4.8,9.4,7.5C76.4,224.9,91,265.5,84,305.8c0,0-0.1,1.4,0.3-0.1
			c5.5-19.1,20.4-34.1,39.4-39.8l0,0c31-8.8,49-41,40.3-72c-6.9-24.5-28.9-41.7-54.4-42.4l0,0c-9.6-0.3-18.5-5.4-23.6-13.5
			c-2.2-3.5-1.1-8.1,2.4-10.2c0.6-0.4,1.3-0.7,2-0.9c1.1-0.3,2.2-0.6,3.3-0.9c0.1,0,0.2-0.1,0.3-0.1c1.1-0.3,2.1-0.5,3.2-0.7l0,0
			c0.3,1.2,0.8,2.4,1.4,3.5c1.2,2.3,2.9,4.4,5.1,6.2c4.2,3.5,9.8,5.4,15.7,5.4s11.5-1.9,15.7-5.4c2.2-1.8,3.9-3.9,5.1-6.2
			c0.7-1.4,1.3-2.9,1.6-4.5l0,0c1.5,0.3,3,0.6,4.5,0.9c0.1,0,0.3,0.1,0.4,0.1c1.4,0.3,2.8,0.6,4.1,1c0.2,0.1,0.4,0.1,0.7,0.2
			c1.3,0.3,2.6,0.7,3.9,1.1c0.3,0.1,0.6,0.2,0.8,0.2c1.2,0.4,2.4,0.8,3.6,1.2c0.3,0.1,0.7,0.2,1,0.3c1.2,0.4,2.3,0.8,3.5,1.3
			c0.4,0.1,0.7,0.3,1.1,0.4c1.1,0.4,2.2,0.9,3.3,1.4c0.4,0.2,0.8,0.3,1.2,0.5c1.1,0.5,2.1,1,3.1,1.5c0.4,0.2,0.8,0.4,1.2,0.6
			c1,0.5,2,1,3,1.6c0.4,0.2,0.8,0.5,1.3,0.7c1,0.5,1.9,1.1,2.8,1.6c0.4,0.3,0.9,0.5,1.3,0.8c0.9,0.6,1.8,1.1,2.7,1.7
			c0.4,0.3,0.9,0.6,1.3,0.9c0.9,0.6,1.7,1.2,2.6,1.8c0.5,0.3,0.9,0.6,1.3,1c0.8,0.6,1.6,1.2,2.4,1.8c0.5,0.3,0.9,0.7,1.4,1.1
			c0.8,0.6,1.6,1.2,2.3,1.9c0.5,0.4,0.9,0.8,1.4,1.1c0.7,0.6,1.5,1.3,2.2,1.9c0.5,0.4,0.9,0.8,1.4,1.2c0.7,0.7,1.4,1.3,2.1,2
			c0.5,0.4,0.9,0.9,1.3,1.3c0.7,0.7,1.3,1.3,2,2c0.4,0.5,0.9,1,1.3,1.4c0.6,0.7,1.2,1.4,1.8,2.1c0.4,0.5,0.9,1,1.3,1.5
			c0.6,0.7,1.2,1.4,1.7,2.1c0.4,0.5,0.9,1.1,1.3,1.6c0.5,0.7,1.1,1.4,1.6,2.1c0.4,0.6,0.8,1.1,1.2,1.7c0.5,0.7,1,1.4,1.5,2.1
			c0.4,0.6,0.8,1.2,1.2,1.8c0.5,0.7,0.9,1.4,1.4,2.2c0.4,0.6,0.8,1.3,1.1,1.9c0.4,0.7,0.9,1.4,1.3,2.2c0.4,0.7,0.7,1.3,1.1,2
			c0.4,0.7,0.8,1.5,1.2,2.2s0.7,1.4,1,2.1c0.4,0.7,0.7,1.5,1.1,2.2c0.3,0.7,0.6,1.5,1,2.2c0.3,0.7,0.6,1.5,0.9,2.2
			c0.3,0.8,0.6,1.5,0.9,2.3c0.3,0.7,0.6,1.5,0.8,2.2c0.3,0.8,0.6,1.6,0.8,2.4c0.2,0.7,0.5,1.5,0.7,2.2c0.3,0.8,0.5,1.7,0.7,2.5
			c0.2,0.7,0.4,1.4,0.6,2.2c0.2,0.9,0.4,1.8,0.7,2.7c0.2,0.7,0.4,1.4,0.5,2.1c0.2,0.9,0.4,1.9,0.6,2.9c0.1,0.7,0.3,1.3,0.4,2
			c0.2,1.1,0.4,2.2,0.5,3.2c0.1,0.6,0.2,1.1,0.3,1.7c0.2,1.6,0.4,3.3,0.6,5c0.2,2.7,0.6,3.4,0.8,2.1
			C238.8,230.3,238.8,230.3,238.8,230.3z M132.7,130.7c-0.5,0.5-1.1,1-1.8,1.4c-0.6,0.4-1.3,0.8-2,1.2c-2.8,1.5-6.1,2.3-9.6,2.3
			c-0.6,0-1.2,0-1.8-0.1c-0.2,0-0.4-0.1-0.7-0.1c-0.4,0-0.7-0.1-1.1-0.1c-0.3,0-0.6-0.1-0.8-0.2c-0.3-0.1-0.6-0.1-0.9-0.2
			c-0.3-0.1-0.6-0.2-0.9-0.3c-0.2-0.1-0.5-0.1-0.7-0.2c-0.3-0.1-0.7-0.3-1-0.4c-0.2-0.1-0.4-0.1-0.5-0.2c-0.4-0.2-0.7-0.3-1.1-0.5
			c-0.1-0.1-0.3-0.1-0.4-0.2c-0.4-0.2-0.7-0.4-1.1-0.7c-0.1-0.1-0.2-0.1-0.3-0.2c-0.4-0.3-0.8-0.5-1.1-0.8l-0.1-0.1l-0.1-0.1
			c-0.3-0.3-0.7-0.6-1-0.9c0,0,0,0-0.1-0.1c-0.4-0.4-0.7-0.7-1-1.1l0,0c-2-2.3-3.1-5.1-3.3-8.1l0,0l0,0c0-0.2,0-0.3,0-0.5
			c0-8.2,8.1-14.9,18-14.9c7.1,0,13.2,3.4,16.2,8.3c-0.9,0-1.7,0.2-2.4,0.5c-0.1,0-0.1,0.1-0.2,0.1c-0.2,0.1-0.4,0.2-0.6,0.3
			c0,0-0.1,0-0.1,0.1c-0.5,0.3-0.9,0.7-1.3,1.1l-0.1,0.1c-0.2,0.2-0.4,0.4-0.5,0.7l0,0c-0.2,0.2-0.3,0.5-0.4,0.7
			c0,0.1-0.1,0.1-0.1,0.2c-0.1,0.3-0.2,0.5-0.3,0.8l0,0c-0.1,0.3-0.1,0.6-0.2,0.8c0,0.1,0,0.1,0,0.2c0,0.3-0.1,0.6-0.1,0.9
			c0,3.6,2.9,6.5,6.4,6.6c-0.2,0.3-0.4,0.6-0.6,0.9c-0.6,0.8-1.3,1.6-2,2.3C132.8,130.6,132.7,130.7,132.7,130.7z"/>
		<path class="st1" d="M129,120.8c0-0.3,0-0.6,0.1-0.9c0-0.1,0-0.1,0-0.2c0-0.3,0.1-0.6,0.2-0.8l0,0c0.1-0.3,0.2-0.5,0.3-0.8
			c0-0.1,0.1-0.1,0.1-0.2c0.1-0.3,0.3-0.5,0.4-0.7l0,0c0.2-0.2,0.3-0.5,0.5-0.7l0.1-0.1c0.4-0.4,0.8-0.8,1.3-1.1c0,0,0.1,0,0.1-0.1
			c0.3-0.2,0.5-0.3,0.8-0.4c0.8-0.3,1.6-0.5,2.4-0.5c-2.9-4.9-9.1-8.3-16.2-8.3c-10,0-18,6.6-18,14.9c0,0.2,0,0.3,0,0.5l0,0
			c0.1,3,1.3,5.8,3.3,8.1l0,0c0.3,0.4,0.7,0.7,1,1.1c0,0,0,0,0.1,0.1c0.3,0.3,0.7,0.7,1.1,1l0.1,0.1c0.4,0.3,0.7,0.6,1.1,0.8
			c0.1,0.1,0.2,0.1,0.3,0.2c0.4,0.2,0.7,0.5,1.1,0.7c0.1,0.1,0.3,0.1,0.4,0.2c0.3,0.2,0.7,0.4,1.1,0.5c0.2,0.1,0.4,0.1,0.5,0.2
			c0.3,0.1,0.7,0.3,1,0.4c0.2,0.1,0.5,0.1,0.7,0.2c0.3,0.1,0.6,0.2,0.9,0.3s0.6,0.1,0.9,0.2c0.3,0.1,0.6,0.1,0.8,0.2
			c0.4,0.1,0.7,0.1,1.1,0.1c0.2,0,0.4,0.1,0.7,0.1c0.6,0,1.2,0.1,1.8,0.1c3.5,0,6.8-0.8,9.6-2.3c0.7-0.4,1.4-0.8,2-1.2
			s1.2-0.9,1.8-1.4c0.8-0.8,1.6-1.6,2.2-2.5c0.2-0.3,0.4-0.6,0.6-0.9C131.9,127.3,129,124.4,129,120.8z"/>
	</g>
</g>
</svg>
