<?xml version="1.0" encoding="UTF-8"?><svg id="Aquatics" xmlns="http://www.w3.org/2000/svg" viewBox="0 0 160.34 69.45"><g id="color"><path d="M4.81,55.91l-.02-2.21,2.08-.45,7.77-21.96h5.17l7.75,21.96,2.24.45v2.21h-10.46v-2.21l2.63-.45-1.21-3.93h-8.75l-1.14,3.95,2.66.44v2.21H4.81ZM15.73,36.41l-3,10.39h7.25l-3.17-10.39-.56-2.35-.52,2.35Z" fill="#d8c467"/><path d="M36.27,56.26c-.99,0-1.92-.18-2.78-.54-.86-.36-1.62-.91-2.26-1.65s-1.15-1.69-1.52-2.84c-.37-1.15-.56-2.51-.56-4.09,0-1.47.22-2.82.65-4.05.43-1.23,1.06-2.29,1.88-3.18.82-.89,1.82-1.58,3.01-2.08s2.52-.74,4.01-.74c.71,0,1.41.06,2.11.19s1.32.28,1.87.47l2.63-.61h.05l.82.69v23.61l2.22.42v2.05h-10.55v-2.05l3.38-.4v-4.77l.11-2.53c-.28.29-.6.56-.95.81s-.74.48-1.17.67-.88.35-1.38.46c-.49.11-1.02.17-1.58.17ZM38.32,53.35c.66,0,1.24-.12,1.75-.37s.9-.53,1.17-.84v-12.13c-.16-.19-.46-.37-.89-.52-.43-.16-.93-.23-1.51-.23s-1.13.12-1.64.36c-.52.24-.97.65-1.36,1.22-.39.57-.71,1.32-.94,2.26s-.37,2.09-.39,3.48c-.02,1.19.05,2.22.23,3.07.17.85.43,1.56.77,2.11.34.55.75.96,1.22,1.22s1.01.39,1.6.39Z" fill="#d8c467"/><path d="M64.32,56.28c-.78,0-1.36-.17-1.72-.52s-.55-.85-.55-1.53v-.58c-.27.32-.61.64-1.02.95s-.85.59-1.34.85-1,.45-1.55.6-1.1.23-1.64.23c-1.05,0-1.96-.13-2.71-.38-.76-.25-1.38-.66-1.86-1.22s-.84-1.28-1.07-2.18c-.23-.89-.35-1.97-.35-3.24v-9.18l-1.61-.6v-1.89l5.8-.47h.02l.74.45v11.79c0,.71.05,1.31.14,1.8.09.49.24.89.46,1.2s.5.54.85.68.79.21,1.32.21c.41,0,.78-.04,1.13-.13s.65-.19.93-.31c.27-.12.51-.24.72-.38s.37-.26.5-.36v-12l-2.22-.63v-1.9l6.25-.42h.03l.89.45v16.13h1.79v2c-.41.1-.95.21-1.63.35s-1.44.21-2.29.21Z" fill="#d8c467"/><path d="M69.48,51.01c0-.79.14-1.5.43-2.11s.68-1.15,1.18-1.61c.5-.46,1.09-.85,1.76-1.18s1.41-.59,2.19-.8c.78-.21,1.6-.36,2.45-.46s1.7-.16,2.55-.18v-.77c0-1.22-.25-2.1-.75-2.62-.5-.52-1.32-.78-2.46-.78-.58,0-1.16.05-1.75.14-.59.09-1.15.2-1.68.34s-1.03.28-1.49.45-.85.32-1.17.48h-.02l-.95-2.16c.23-.18.61-.42,1.14-.72.54-.29,1.18-.58,1.93-.86s1.58-.52,2.5-.73,1.85-.31,2.82-.31c1.19,0,2.2.13,3.04.39.83.26,1.51.66,2.03,1.19.52.54.9,1.22,1.14,2.04.24.82.36,1.79.36,2.91v10.05h2v1.98c-.2.04-.46.1-.76.17-.3.07-.63.13-1,.19-.37.06-.76.11-1.18.15s-.85.06-1.29.06c-.39,0-.72-.02-.99-.05-.27-.03-.49-.11-.66-.23s-.29-.29-.36-.51c-.08-.22-.11-.52-.11-.89v-.93c-.18.25-.44.52-.76.82s-.71.59-1.17.85c-.46.27-.98.49-1.56.67-.58.18-1.22.27-1.92.27-.76,0-1.48-.1-2.14-.31s-1.25-.52-1.75-.95c-.5-.43-.89-.98-1.18-1.64s-.44-1.46-.44-2.37ZM77.13,53.17c.19,0,.41-.03.66-.08s.5-.13.77-.23.53-.21.79-.35.48-.29.68-.46v-5.33c-1.04,0-1.92.1-2.62.29s-1.26.45-1.68.77-.72.69-.89,1.11c-.18.42-.27.86-.27,1.34,0,.96.22,1.68.65,2.18.44.5,1.07.75,1.91.75Z" fill="#d8c467"/><path d="M89.63,52.04v-11.86h-2.27v-1.84c.09-.02.22-.07.41-.14.19-.07.38-.14.58-.22.2-.08.38-.15.54-.22.16-.07.26-.12.31-.15.37-.29.75-.81,1.14-1.55.11-.21.23-.46.35-.75.13-.28.25-.58.38-.89s.24-.62.35-.93c.11-.31.2-.58.27-.83h2.87l.05,4.77h4.74v2.74h-4.74v8.93c0,.86.01,1.54.04,2.05s.09.89.19,1.14.26.42.48.5.51.11.89.11h.02c.26,0,.53-.02.81-.06s.56-.09.84-.15c.27-.06.53-.12.76-.19.23-.07.42-.13.57-.19h.02l.76,1.89c-.32.25-.72.49-1.18.74-.47.25-.98.47-1.55.67-.56.2-1.16.36-1.79.48-.63.12-1.26.19-1.89.19h-.03c-.71,0-1.31-.09-1.81-.27-.5-.18-.9-.45-1.21-.81-.31-.36-.53-.8-.67-1.33s-.21-1.13-.21-1.82Z" fill="#d8c467"/><path d="M100.67,55.91v-2.16l2.35-.31v-12.41l-2.18-.69v-2.42l5.91-.79h.08l1.18.69v15.6l2.34.32v2.16h-9.68ZM104.95,34.41c-.38,0-.71-.07-1.01-.21-.3-.14-.54-.32-.74-.56-.2-.23-.35-.5-.45-.82-.1-.32-.15-.65-.15-1.01,0-.42.06-.81.17-1.18.11-.37.29-.7.52-.98s.53-.5.88-.66c.35-.16.75-.24,1.22-.24h.02c.44,0,.82.07,1.14.22.32.15.58.34.8.58.21.24.37.52.48.83.1.31.15.64.15.98,0,.43-.06.83-.18,1.2-.12.37-.3.69-.54.97-.24.27-.55.49-.93.64s-.83.23-1.35.23h-.02Z" fill="#d8c467"/><path d="M111.52,46.9c0-1.45.22-2.78.65-3.98.44-1.2,1.06-2.24,1.86-3.1s1.78-1.54,2.93-2.01c1.14-.48,2.42-.72,3.84-.72.72,0,1.38.04,1.98.12.6.08,1.14.17,1.61.28s.88.22,1.22.33c.34.11.62.2.84.27l-.16,5.49h-2.84l-.93-2.84c-.24-.45-.53-.81-.87-1.06s-.76-.39-1.26-.39-.94.12-1.38.36c-.44.24-.82.62-1.16,1.14-.34.52-.61,1.2-.81,2.02s-.31,1.83-.31,3c0,1.33.1,2.46.31,3.38.21.92.52,1.67.92,2.24.4.57.89.98,1.47,1.23.58.25,1.23.38,1.95.38,1,0,1.86-.13,2.59-.4.72-.27,1.33-.56,1.83-.87l.85,1.95c-.23.25-.55.52-.97.81-.42.3-.92.57-1.48.83-.56.26-1.19.47-1.87.64-.68.17-1.39.26-2.14.26-1.51,0-2.82-.24-3.92-.71-1.1-.47-2-1.13-2.7-1.97s-1.22-1.83-1.56-2.97c-.34-1.14-.51-2.39-.51-3.73Z" fill="#d8c467"/><path d="M128.54,54.88v-4.53h2.96l.84,2.51c.1.14.24.28.44.42.2.14.43.26.71.37.27.11.58.2.93.27.34.07.7.1,1.08.1.54,0,.97-.06,1.31-.19.34-.13.61-.29.81-.49.2-.2.34-.42.42-.68.08-.25.11-.5.11-.73,0-.45-.12-.84-.35-1.17-.23-.33-.56-.63-.98-.9-.42-.27-.94-.54-1.54-.8s-1.27-.54-2-.84c-.74-.3-1.41-.64-2-1.01-.59-.37-1.09-.79-1.51-1.25-.41-.46-.73-.98-.96-1.55s-.34-1.21-.34-1.92c0-.76.16-1.47.48-2.12.32-.65.79-1.21,1.41-1.69s1.4-.85,2.32-1.13c.92-.27,1.99-.41,3.21-.41.71,0,1.34.04,1.89.13.55.09,1.06.19,1.51.3.45.11.86.23,1.24.35.38.12.74.22,1.1.28v4.45l-2.8-.05-.76-2.14c-.15-.25-.44-.49-.85-.72s-.95-.35-1.59-.36c-.48,0-.89.05-1.22.16-.33.11-.59.25-.79.44-.2.18-.34.38-.43.6s-.13.44-.13.67c0,.56.15,1.02.44,1.38.29.36.66.66,1.1.91s.92.46,1.45.65,1.03.39,1.5.6c.71.31,1.39.64,2.03.99.64.35,1.22.75,1.72,1.22.5.46.9,1,1.19,1.6.29.61.44,1.33.44,2.17,0,.78-.15,1.51-.46,2.18-.31.67-.77,1.25-1.39,1.74-.62.49-1.39.88-2.32,1.16-.93.28-2.02.42-3.26.42-.85,0-1.62-.06-2.33-.18-.7-.12-1.34-.25-1.92-.41-.58-.16-1.09-.31-1.54-.47s-.84-.27-1.18-.35Z" fill="#d8c467"/><path d="M9.71,16.42l-3.01-8.52h1.6l2.12,6.29,2.22-6.29h1.15l2.18,6.37,2.18-6.37h1.51l-3.03,8.52h-1.28l-2.16-6.15-2.18,6.15h-1.28Z" fill="#fff"/><path d="M23.24,16.42V7.9h1.55v7.21h4.09v1.32h-5.63Z" fill="#fff"/><path d="M32.45,16.42V7.9h5.57v1.23h-4.03v2.41h3.77v1.23h-3.77v3.65h-1.55Z" fill="#fff"/><path d="M44.09,16.42l-3.01-8.52h1.6l2.12,6.29,2.22-6.29h1.15l2.18,6.37,2.18-6.37h1.51l-3.03,8.52h-1.28l-2.16-6.15-2.18,6.15h-1.28Z" fill="#fff"/><path d="M63.3,16.42V7.9h1.55v7.21h4.09v1.32h-5.63Z" fill="#fff"/><path d="M71.41,16.42l3.86-8.52h1.27l3.86,8.52h-1.57l-.85-1.97h-4.16l-.83,1.97h-1.57ZM75.88,9.58l-1.54,3.64h3.09l-1.54-3.64h-.02Z" fill="#fff"/><path d="M83.74,16.42V7.9h1.16l4.58,5.95v-5.95h1.44v8.52h-1.15l-4.59-5.97v5.97h-1.44Z" fill="#fff"/><path d="M95.2,16.42V7.9h3.17c1.43,0,2.53.37,3.31,1.1.78.73,1.17,1.78,1.17,3.15s-.39,2.41-1.17,3.16c-.78.74-1.88,1.11-3.31,1.11h-3.17ZM96.75,15.14h1.52c1.97,0,2.95-.99,2.95-2.99s-.98-2.97-2.95-2.97h-1.52v5.96Z" fill="#fff"/><path d="M109.77,16.54c-.67,0-1.29-.09-1.86-.26s-1.06-.41-1.45-.71l.47-1.22c.39.28.83.5,1.3.65.47.15.99.23,1.54.23.64,0,1.1-.11,1.39-.32s.44-.49.44-.83c0-.28-.1-.5-.31-.66s-.56-.29-1.06-.4l-1.33-.28c-1.52-.32-2.27-1.1-2.27-2.33,0-.53.14-1,.42-1.39s.67-.7,1.17-.92c.5-.22,1.08-.33,1.73-.33.58,0,1.12.09,1.63.26.51.17.93.42,1.27.73l-.47,1.16c-.67-.56-1.48-.85-2.44-.85-.56,0-.99.12-1.31.35-.31.23-.47.54-.47.92,0,.29.1.52.29.7s.52.31.99.4l1.32.28c.8.17,1.39.43,1.78.8.39.36.59.85.59,1.45,0,.51-.14.96-.41,1.34-.27.39-.66.69-1.17.9-.5.21-1.1.32-1.78.32Z" fill="#fff"/><path d="M120.84,16.54c-.89,0-1.65-.18-2.28-.54-.63-.36-1.12-.87-1.46-1.52-.34-.66-.51-1.43-.51-2.33s.17-1.67.51-2.32c.34-.65.82-1.16,1.46-1.52.63-.36,1.39-.54,2.28-.54.57,0,1.11.09,1.63.27.51.18.93.43,1.26.76l-.51,1.23c-.36-.31-.73-.53-1.11-.67-.38-.14-.79-.21-1.22-.21-.86,0-1.52.26-1.97.78-.45.52-.68,1.26-.68,2.22s.23,1.7.68,2.22c.45.52,1.11.79,1.97.79.44,0,.84-.07,1.22-.21.38-.14.75-.36,1.11-.67l.51,1.23c-.33.32-.75.57-1.26.76-.51.18-1.05.27-1.63.27Z" fill="#fff"/><path d="M126.4,16.42l3.86-8.52h1.27l3.86,8.52h-1.57l-.85-1.97h-4.16l-.83,1.97h-1.57ZM130.87,9.58l-1.54,3.64h3.09l-1.54-3.64h-.02Z" fill="#fff"/><path d="M138.73,16.42V7.9h3.7c.93,0,1.66.23,2.16.7.51.47.76,1.12.76,1.96s-.25,1.49-.76,1.96c-.51.47-1.23.71-2.16.71h-2.15v3.19h-1.55ZM140.28,12.01h1.91c1.11,0,1.67-.48,1.67-1.45s-.56-1.44-1.67-1.44h-1.91v2.89Z" fill="#fff"/><path d="M149.03,16.42V7.9h5.67v1.23h-4.18v2.35h3.92v1.23h-3.92v2.48h4.18v1.23h-5.67Z" fill="#fff"/></g></svg>