<svg xmlns="http://www.w3.org/2000/svg" viewBox="0 0 905.72 248.01"><polygon points="113.57 0.14 98.56 34.79 115.48 34.79 113.57 0.14" fill="#fff"/><polygon points="0 113.36 36.53 128.78 34.65 111.45 0 113.36" fill="#fff"/><polygon points="113.22 230.15 128.23 195.51 111.31 195.51 113.22 230.15" fill="#fff"/><polygon points="226.25 113.17 188.79 97.76 191.61 115.08 226.25 113.17" fill="#fff"/><circle cx="113.6" cy="112.8" r="93.99" fill="#fff"/><path d="M89.32,117.8c-14.54,26.44,18.3,47,18.3,47-6-26.12,30.13-30.25,32.84-47.66S124,92.71,120.77,81.41c-3.06-10.57,15.1-15.8,15.1-15.8-37.82,5.3-24.36,22.28-20.08,38.63s-11,20.22-11,20.22c11.8-28.66-15-36-15-36S101.56,95.56,89.32,117.8Z" transform="translate(-9.63 -8.99)" fill="#e86129"/><path d="M121.4,147.37c-21,15.52-.59,35-.59,35-7.53-25.36,30.32-32.45,36.88-50.75,7.67-21.42-19.52-35.42-19.52-35.42C159.14,122.64,142.39,131.85,121.4,147.37Z" transform="translate(-9.63 -8.99)" fill="#5a5a5d"/><path d="M236.3,122.92c-5.44,2.1-10.86,4.28-16.34,6.28a3.63,3.63,0,0,0-2.68,3.47c-2.5,22.69-12.16,41.87-28.29,57.93q-31.65,31.53-63.18,63.21a20.9,20.9,0,0,0-2.19,3.19c-1.48-1.36-2.25-2-3-2.74q-32.2-32.2-64.39-64.41C40.48,174,31.18,155,28.67,132.78c-.08-.72,0-1.45,0-2.48,8.4,3.26,16.59,6.39,24.73,9.65A3.43,3.43,0,0,1,55,142a75.43,75.43,0,0,0,12.56,24.31,3.91,3.91,0,0,1,.23,3.24c-1.75,4.37-3.73,8.65-6,13.8,2.32-.93,3.91-1.54,5.47-2.21,3.21-1.39,6.48-4,9.59-3.87s5.85,3.25,8.77,5.05a69.68,69.68,0,0,0,32.87,10.51c1.13.06,2.26.17,3.39.28a5.61,5.61,0,0,1,1.06.4v42l.55.11c.39-.9.81-1.8,1.17-2.72,5.16-13.3,10.35-26.6,15.44-39.93a4.49,4.49,0,0,1,3.3-3A64.72,64.72,0,0,0,166,178.37a4.33,4.33,0,0,1,5.31-.55c3.94,1.92,8,3.58,12,5.34l.53-.52c-1.6-3.68-3-7.43-4.86-11-1.38-2.73-1.28-4.65.71-7.28a67.27,67.27,0,0,0,13.84-37.48c.08-1.4.22-2.81.35-4.39h42.33Z" transform="translate(-9.63 -8.99)" fill="#7f7f87"/><path d="M52.07,122.15H9.79l-.16-.44c3.72-1.46,7.33-3.36,11.17-4.26,5.89-1.39,7.83-4.66,8.7-10.66,6-41.44,41.8-75.07,83.33-78.84.55-.05,1.1-.06,1.94-.1a22,22,0,0,1-.62,2.26c-2.78,7.23-5.52,14.48-8.46,21.65a5.15,5.15,0,0,1-2.82,2.65A71.63,71.63,0,0,0,79.38,66.68a3.16,3.16,0,0,1-3.82.46A92,92,0,0,0,62.13,62c1.56,3.57,2.92,7.25,4.74,10.69,1.56,2.93,1.38,5-.73,7.79a67.5,67.5,0,0,0-13.75,38.09C52.33,119.65,52.19,120.76,52.07,122.15Z" transform="translate(-9.63 -8.99)"/><path d="M217.56,114.4c-8.69-3.37-16.8-6.48-24.86-9.7a3.45,3.45,0,0,1-1.7-2,75.73,75.73,0,0,0-12.5-24.34,4.26,4.26,0,0,1-.26-3.49c1.72-4.35,3.69-8.59,5.08-13.4-4.11,1.78-8.29,3.42-12.29,5.4-2,1-3.31.7-5-.63a68.86,68.86,0,0,0-38.41-14.48c-1.13-.07-2.26-.17-3.39-.29a6.58,6.58,0,0,1-1-.3v-42l.4-.14c1.66,4.26,3.59,8.44,4.9,12.8s3.42,6,8.13,6.71c42.44,6.46,73.79,38,80.35,80.36C217.24,110.52,217.34,112.2,217.56,114.4Z" transform="translate(-9.63 -8.99)"/><path d="M298.5,148.45l6.25-14a42.34,42.34,0,0,0,22.18,6.63c7.88,0,10.95-2.21,10.95-5.48,0-10.66-38.22-2.88-38.22-27.85,0-12,9.79-21.8,29.77-21.8,8.74,0,17.77,2,24.4,5.86L348,105.9a39.74,39.74,0,0,0-18.64-5.19c-8,0-10.85,2.69-10.85,6.05,0,10.28,38.13,2.59,38.13,27.37,0,11.72-9.79,21.71-29.77,21.71C315.79,155.84,304.84,152.86,298.5,148.45Z" transform="translate(-9.63 -8.99)" fill="#e86129"/><path d="M419.32,139.8v14.7h-54V87.26h52.72V102h-33.9v11.33H414v14.22H384.17V139.8Z" transform="translate(-9.63 -8.99)" fill="#e86129"/><path d="M476.85,102v14.79h29.67v14.7H476.85V154.5h-19V87.26h52.73V102Z" transform="translate(-9.63 -8.99)"/><path d="M519.48,87.26h19V154.5h-19Z" transform="translate(-9.63 -8.99)"/><path d="M581.43,136.63H571.06V154.5H552V87.26h30.73c18.35,0,29.88,9.51,29.88,24.88,0,9.89-4.81,17.19-13.16,21.23L614,154.5H593.63Zm.19-34.38H571.06v19.69h10.56c7.88,0,11.82-3.65,11.82-9.8S589.5,102.25,581.62,102.25Z" transform="translate(-9.63 -8.99)"/><path d="M677.08,139.8v14.7h-54V87.26h52.73V102H641.93v11.33H671.8v14.22H641.93V139.8Z" transform="translate(-9.63 -8.99)"/><path d="M748.34,154.5l-.19-35.64-17.29,29h-8.45l-17.19-28.05V154.5H687.64V87.26H703.3l23.63,38.81L750,87.26h15.65l.2,67.24Z" transform="translate(-9.63 -8.99)"/><path d="M824.31,141.43H795.88L790.6,154.5H771.2l29.67-67.24H819.6l29.78,67.24H829.59Zm-5.57-14-8.65-21.51-8.64,21.51Z" transform="translate(-9.63 -8.99)"/><path d="M915.35,112.14c0,15.27-11.52,24.78-29.87,24.78H873.77V154.5h-19V87.26h30.73C903.83,87.26,915.35,96.77,915.35,112.14Zm-19.21,0c0-6.24-3.93-9.89-11.81-9.89H873.77v19.69h10.56C892.21,121.94,896.14,118.29,896.14,112.14Z" transform="translate(-9.63 -8.99)"/></svg>