<?xml version="1.0" encoding="UTF-8"?><svg id="Grasslands" xmlns="http://www.w3.org/2000/svg" viewBox="0 0 427.91 64.75"><g id="Color"><path d="M10.33,14.1l-3.01-8.52h1.6l2.12,6.29,2.22-6.29h1.15l2.18,6.37,2.18-6.37h1.51l-3.03,8.52h-1.28l-2.16-6.15-2.18,6.15h-1.28Z" fill="#fff"/><path d="M23.86,14.1V5.57h1.55v7.21h4.09v1.32h-5.63Z" fill="#fff"/><path d="M33.07,14.1V5.57h5.57v1.23h-4.03v2.41h3.77v1.23h-3.77v3.65h-1.55Z" fill="#fff"/><path d="M44.71,14.1l-3.01-8.52h1.6l2.12,6.29,2.22-6.29h1.15l2.18,6.37,2.18-6.37h1.51l-3.03,8.52h-1.28l-2.16-6.15-2.18,6.15h-1.28Z" fill="#fff"/><path d="M63.92,14.1V5.57h1.55v7.21h4.09v1.32h-5.63Z" fill="#fff"/><path d="M72.03,14.1l3.86-8.52h1.27l3.86,8.52h-1.57l-.85-1.97h-4.16l-.83,1.97h-1.57ZM76.5,7.25l-1.54,3.64h3.09l-1.54-3.64h-.02Z" fill="#fff"/><path d="M84.36,14.1V5.57h1.16l4.58,5.95v-5.95h1.44v8.52h-1.15l-4.59-5.97v5.97h-1.44Z" fill="#fff"/><path d="M95.82,14.1V5.57h3.17c1.43,0,2.53.37,3.31,1.1.78.73,1.17,1.78,1.17,3.15s-.39,2.41-1.17,3.16c-.78.74-1.88,1.11-3.31,1.11h-3.17ZM97.37,12.81h1.52c1.97,0,2.95-.99,2.95-2.99s-.98-2.97-2.95-2.97h-1.52v5.96Z" fill="#fff"/><path d="M110.39,14.22c-.67,0-1.29-.09-1.86-.26s-1.06-.41-1.45-.71l.47-1.22c.39.28.83.5,1.3.65.47.15.99.23,1.54.23.64,0,1.1-.11,1.39-.32s.44-.49.44-.83c0-.28-.1-.5-.31-.66s-.56-.29-1.06-.4l-1.33-.28c-1.52-.32-2.27-1.1-2.27-2.33,0-.53.14-1,.42-1.39s.67-.7,1.17-.92c.5-.22,1.08-.33,1.73-.33.58,0,1.12.09,1.63.26.51.17.93.42,1.27.73l-.47,1.16c-.67-.56-1.48-.85-2.44-.85-.56,0-.99.12-1.31.35-.31.23-.47.54-.47.92,0,.29.1.52.29.7s.52.31.99.4l1.32.28c.8.17,1.39.43,1.78.8.39.36.59.85.59,1.45,0,.51-.14.96-.41,1.34-.27.39-.66.69-1.17.9-.5.21-1.1.32-1.78.32Z" fill="#fff"/><path d="M121.46,14.22c-.89,0-1.65-.18-2.28-.54-.63-.36-1.12-.87-1.46-1.52-.34-.66-.51-1.43-.51-2.33s.17-1.67.51-2.32c.34-.65.82-1.16,1.46-1.52.63-.36,1.39-.54,2.28-.54.57,0,1.11.09,1.63.27.51.18.93.43,1.26.76l-.51,1.23c-.36-.31-.73-.53-1.11-.67-.38-.14-.79-.21-1.22-.21-.86,0-1.52.26-1.97.78-.45.52-.68,1.26-.68,2.22s.23,1.7.68,2.22c.45.52,1.11.79,1.97.79.44,0,.84-.07,1.22-.21.38-.14.75-.36,1.11-.67l.51,1.23c-.33.32-.75.57-1.26.76-.51.18-1.05.27-1.63.27Z" fill="#fff"/><path d="M127.02,14.1l3.86-8.52h1.27l3.86,8.52h-1.57l-.85-1.97h-4.16l-.83,1.97h-1.57ZM131.5,7.25l-1.54,3.64h3.09l-1.54-3.64h-.02Z" fill="#fff"/><path d="M139.35,14.1V5.57h3.7c.93,0,1.66.23,2.16.7.51.47.76,1.12.76,1.96s-.25,1.49-.76,1.96c-.51.47-1.23.71-2.16.71h-2.15v3.19h-1.55ZM140.9,9.68h1.91c1.11,0,1.67-.48,1.67-1.45s-.56-1.44-1.67-1.44h-1.91v2.89Z" fill="#fff"/><path d="M149.65,14.1V5.57h5.67v1.23h-4.18v2.35h3.92v1.23h-3.92v2.48h4.18v1.23h-5.67Z" fill="#fff"/><path d="M19.42,53.95c-1.9,0-3.59-.3-5.08-.91-1.48-.61-2.73-1.46-3.75-2.55-1.01-1.09-1.79-2.39-2.32-3.89-.53-1.5-.8-3.15-.8-4.93,0-2.02.33-3.83.99-5.42.66-1.59,1.57-2.95,2.74-4.06,1.17-1.11,2.54-1.96,4.13-2.55s3.31-.89,5.17-.89c.88,0,1.75.04,2.61.12.86.08,1.66.18,2.39.29.74.11,1.39.23,1.96.35s1,.21,1.29.27l-.37,6.22h-3.48l-.97-4.04c-.11-.11-.25-.22-.42-.33-.17-.11-.4-.22-.68-.31s-.63-.18-1.05-.24-.93-.1-1.55-.1c-1.04,0-1.99.2-2.85.6s-1.6,1-2.21,1.82-1.09,1.84-1.43,3.08c-.34,1.24-.51,2.69-.51,4.37,0,1.42.13,2.78.39,4.08.26,1.31.66,2.46,1.2,3.46s1.22,1.8,2.06,2.4,1.83.9,2.96.9c.91,0,1.72-.1,2.43-.31.7-.2,1.23-.48,1.57-.84v-6.67l-3.16-.37v-2.66h9.99v2.66l-1.69.31v8.46c-.44.02-.98.12-1.61.3-.63.18-1.36.37-2.17.58-.81.21-1.7.4-2.67.56-.97.17-2.02.25-3.15.25Z" fill="#d8c467"/><path d="M31.82,53.58v-2.16l2.32-.31v-12.41l-2.19-.68v-2.43l5.51-.79h.1l.85.69v1.34l-.02,2.51h.06c.13-.34.36-.78.7-1.3.34-.52.76-1.03,1.26-1.51.5-.49,1.07-.91,1.72-1.26.65-.35,1.36-.52,2.12-.52.33,0,.59.01.77.04.18.03.32.06.44.1v5.58c-.12-.09-.43-.18-.93-.28-.5-.1-1.09-.15-1.78-.15-.38,0-.75.02-1.13.06s-.73.1-1.06.17c-.33.07-.62.15-.88.25s-.46.19-.6.29v10.28l4.01.39v2.09h-11.3Z" fill="#d8c467"/><path d="M46.35,48.68c0-.79.14-1.5.43-2.11s.68-1.15,1.18-1.61c.5-.46,1.09-.85,1.76-1.18s1.41-.59,2.19-.8c.78-.21,1.6-.36,2.45-.46s1.7-.16,2.55-.18v-.77c0-1.22-.25-2.1-.75-2.62-.5-.52-1.32-.78-2.46-.78-.58,0-1.16.05-1.75.14-.59.09-1.15.2-1.68.34s-1.03.28-1.49.45-.85.32-1.17.48h-.02l-.95-2.16c.23-.18.61-.42,1.14-.72.54-.29,1.18-.58,1.93-.86s1.58-.52,2.5-.73,1.85-.31,2.82-.31c1.19,0,2.2.13,3.04.39.83.26,1.51.66,2.03,1.19.52.54.9,1.22,1.14,2.04.24.82.36,1.79.36,2.91v10.05h2v1.98c-.2.04-.46.1-.76.17-.3.07-.63.13-1,.19-.37.06-.76.11-1.18.15s-.85.06-1.29.06c-.39,0-.72-.02-.99-.05-.27-.03-.49-.11-.66-.23s-.29-.29-.36-.51c-.08-.22-.11-.52-.11-.89v-.93c-.18.25-.44.52-.76.82s-.71.59-1.17.85c-.46.27-.98.49-1.56.67-.58.18-1.22.27-1.92.27-.76,0-1.48-.1-2.14-.31s-1.25-.52-1.75-.95c-.5-.43-.89-.98-1.18-1.64s-.44-1.46-.44-2.37ZM54,50.84c.19,0,.41-.03.66-.08s.5-.13.77-.23.53-.21.79-.35.48-.29.68-.46v-5.33c-1.04,0-1.92.1-2.62.29s-1.26.45-1.68.77-.72.69-.89,1.11c-.18.42-.27.86-.27,1.34,0,.96.22,1.68.65,2.18.44.5,1.07.75,1.91.75Z" fill="#d8c467"/><path d="M65.14,52.55v-4.53h2.96l.84,2.51c.1.14.24.28.44.42.2.14.43.26.71.37.27.11.58.2.93.27.34.07.7.1,1.08.1.54,0,.97-.06,1.31-.19.34-.13.61-.29.81-.49.2-.2.34-.42.42-.68.08-.25.11-.5.11-.73,0-.45-.12-.84-.35-1.17-.23-.33-.56-.63-.98-.9-.42-.27-.94-.54-1.54-.8s-1.27-.54-2-.84c-.74-.3-1.41-.64-2-1.01-.59-.37-1.09-.79-1.51-1.25-.41-.46-.73-.98-.96-1.55s-.34-1.21-.34-1.92c0-.76.16-1.47.48-2.12.32-.65.79-1.21,1.41-1.69s1.4-.85,2.32-1.13c.92-.27,1.99-.41,3.21-.41.71,0,1.34.04,1.89.13s1.06.19,1.51.3c.45.11.86.23,1.24.35.38.12.74.22,1.1.28v4.45l-2.8-.05-.76-2.14c-.15-.25-.44-.49-.85-.72s-.95-.35-1.6-.36c-.48,0-.89.05-1.22.16s-.59.25-.79.44c-.2.18-.34.38-.43.6s-.13.44-.13.67c0,.56.15,1.02.44,1.38.29.36.66.66,1.1.91s.92.46,1.45.65,1.03.39,1.5.6c.71.31,1.39.64,2.03.99.64.35,1.22.75,1.72,1.22.5.46.9,1,1.19,1.6.29.61.44,1.33.44,2.17,0,.78-.15,1.51-.46,2.18-.31.67-.77,1.25-1.39,1.74s-1.39.88-2.32,1.16-2.02.42-3.26.42c-.85,0-1.62-.06-2.33-.18-.7-.12-1.34-.25-1.92-.41-.57-.16-1.09-.31-1.54-.47s-.84-.27-1.18-.35Z" fill="#d8c467"/><path d="M81.63,52.55v-4.53h2.96l.84,2.51c.1.14.24.28.44.42.2.14.43.26.71.37.27.11.58.2.93.27.34.07.7.1,1.08.1.54,0,.97-.06,1.31-.19.34-.13.61-.29.81-.49.2-.2.34-.42.42-.68.08-.25.11-.5.11-.73,0-.45-.12-.84-.35-1.17-.23-.33-.56-.63-.98-.9-.42-.27-.94-.54-1.54-.8s-1.27-.54-2-.84c-.74-.3-1.41-.64-2-1.01-.59-.37-1.09-.79-1.51-1.25-.41-.46-.73-.98-.96-1.55s-.34-1.21-.34-1.92c0-.76.16-1.47.48-2.12.32-.65.79-1.21,1.41-1.69s1.4-.85,2.32-1.13c.92-.27,1.99-.41,3.21-.41.71,0,1.34.04,1.89.13s1.06.19,1.51.3c.45.11.86.23,1.24.35.38.12.74.22,1.1.28v4.45l-2.8-.05-.76-2.14c-.15-.25-.44-.49-.85-.72s-.95-.35-1.6-.36c-.48,0-.89.05-1.22.16s-.59.25-.79.44c-.2.18-.34.38-.43.6s-.13.44-.13.67c0,.56.15,1.02.44,1.38.29.36.66.66,1.1.91s.92.46,1.45.65,1.03.39,1.5.6c.71.31,1.39.64,2.03.99.64.35,1.22.75,1.72,1.22.5.46.9,1,1.19,1.6.29.61.44,1.33.44,2.17,0,.78-.15,1.51-.46,2.18-.31.67-.77,1.25-1.39,1.74s-1.39.88-2.32,1.16-2.02.42-3.26.42c-.85,0-1.62-.06-2.33-.18-.7-.12-1.34-.25-1.92-.41-.57-.16-1.09-.31-1.54-.47s-.84-.27-1.18-.35Z" fill="#d8c467"/><path d="M97.24,53.58v-2.16l2.34-.32v-21.51l-2.4-.4v-1.89l6.3-.79h.05l1.02.76v23.83l2.43.32v2.16h-9.73Z" fill="#d8c467"/><path d="M107.91,48.68c0-.79.14-1.5.43-2.11s.68-1.15,1.18-1.61c.5-.46,1.09-.85,1.76-1.18s1.41-.59,2.19-.8c.78-.21,1.6-.36,2.45-.46s1.7-.16,2.55-.18v-.77c0-1.22-.25-2.1-.75-2.62-.5-.52-1.32-.78-2.46-.78-.58,0-1.16.05-1.75.14-.59.09-1.15.2-1.68.34s-1.03.28-1.49.45-.85.32-1.17.48h-.02l-.95-2.16c.23-.18.61-.42,1.14-.72.54-.29,1.18-.58,1.93-.86s1.58-.52,2.5-.73,1.85-.31,2.82-.31c1.19,0,2.2.13,3.04.39.83.26,1.51.66,2.03,1.19.52.54.9,1.22,1.14,2.04.24.82.36,1.79.36,2.91v10.05h2v1.98c-.2.04-.46.1-.76.17-.3.07-.63.13-1,.19-.37.06-.76.11-1.18.15s-.85.06-1.29.06c-.39,0-.72-.02-.99-.05-.27-.03-.49-.11-.66-.23s-.29-.29-.36-.51c-.08-.22-.11-.52-.11-.89v-.93c-.18.25-.44.52-.76.82s-.71.59-1.17.85c-.46.27-.98.49-1.56.67-.58.18-1.22.27-1.92.27-.76,0-1.48-.1-2.14-.31s-1.25-.52-1.75-.95c-.5-.43-.89-.98-1.18-1.64s-.44-1.46-.44-2.37ZM115.56,50.84c.19,0,.41-.03.66-.08s.5-.13.77-.23.53-.21.79-.35.48-.29.68-.46v-5.33c-1.04,0-1.92.1-2.62.29s-1.26.45-1.68.77-.72.69-.89,1.11c-.18.42-.27.86-.27,1.34,0,.96.22,1.68.65,2.18.44.5,1.07.75,1.91.75Z" fill="#d8c467"/><path d="M126.42,53.58v-2.16l2.08-.32v-12.39l-2.19-.68v-2.43l5.77-.79h.08l.85.69v1.92c.35-.32.77-.64,1.26-.95s1.01-.59,1.57-.82c.56-.24,1.16-.43,1.78-.57.62-.15,1.25-.22,1.88-.22,1.03,0,1.89.13,2.59.4.69.27,1.24.7,1.65,1.29s.7,1.35.87,2.28c.17.93.26,2.05.26,3.36v8.93l2.29.31v2.16h-9.07v-2.16l1.76-.31v-8.99c0-.74-.04-1.38-.11-1.93s-.21-.99-.41-1.33c-.2-.34-.47-.6-.82-.77-.35-.17-.8-.25-1.35-.25-.37,0-.72.04-1.08.12-.35.08-.69.19-1.01.31-.32.13-.61.27-.87.43-.26.16-.49.31-.69.46v11.92l2.16.32v2.16h-9.25Z" fill="#d8c467"/><path d="M155.16,53.94c-1,0-1.93-.18-2.8-.54-.87-.36-1.62-.92-2.26-1.67s-1.15-1.7-1.51-2.84c-.37-1.14-.55-2.49-.55-4.05,0-1.47.22-2.82.65-4.05.43-1.23,1.06-2.29,1.88-3.18.82-.89,1.82-1.59,3.01-2.09,1.18-.5,2.52-.75,4.01-.75.45,0,.89.02,1.31.06.42.04.83.11,1.22.19v-5.48l-2.95-.5v-1.84l6.82-.69h.08l1,.76v24.07h1.79v2.03c-.54.12-1.15.24-1.84.38s-1.44.2-2.26.2c-.66,0-1.17-.15-1.53-.44s-.55-.82-.55-1.58v-.63c-.27.34-.59.67-.96.99-.37.32-.79.6-1.26.84-.47.24-.98.44-1.53.58-.55.15-1.15.22-1.78.22ZM157.21,51.02c.66,0,1.24-.12,1.75-.37.51-.25.9-.53,1.17-.84v-12.15c-.18-.19-.48-.37-.9-.52s-.92-.23-1.5-.23-1.13.12-1.64.37-.97.66-1.35,1.22-.7,1.32-.93,2.26c-.23.94-.36,2.1-.38,3.47-.02,1.2.05,2.23.23,3.09.17.85.42,1.56.75,2.1.33.55.73.95,1.21,1.2.48.25,1.01.38,1.6.38Z" fill="#d8c467"/><path d="M168.85,52.55v-4.53h2.96l.84,2.51c.1.14.24.28.44.42.2.14.43.26.71.37.27.11.58.2.93.27.34.07.7.1,1.08.1.54,0,.97-.06,1.31-.19.34-.13.61-.29.81-.49.2-.2.34-.42.42-.68.08-.25.11-.5.11-.73,0-.45-.12-.84-.35-1.17-.23-.33-.56-.63-.98-.9-.42-.27-.94-.54-1.54-.8s-1.27-.54-2-.84c-.74-.3-1.41-.64-2-1.01-.59-.37-1.09-.79-1.51-1.25-.41-.46-.73-.98-.96-1.55s-.34-1.21-.34-1.92c0-.76.16-1.47.48-2.12.32-.65.79-1.21,1.41-1.69s1.4-.85,2.32-1.13c.92-.27,1.99-.41,3.21-.41.71,0,1.34.04,1.89.13.55.09,1.06.19,1.51.3.45.11.86.23,1.24.35.38.12.74.22,1.1.28v4.45l-2.8-.05-.76-2.14c-.15-.25-.44-.49-.85-.72s-.95-.35-1.59-.36c-.48,0-.89.05-1.22.16-.33.11-.59.25-.79.44-.2.18-.34.38-.43.6s-.13.44-.13.67c0,.56.15,1.02.44,1.38.29.36.66.66,1.1.91s.92.46,1.45.65,1.03.39,1.5.6c.71.31,1.39.64,2.03.99.64.35,1.22.75,1.72,1.22.5.46.9,1,1.19,1.6.29.61.44,1.33.44,2.17,0,.78-.15,1.51-.46,2.18-.31.67-.77,1.25-1.39,1.74-.62.49-1.39.88-2.32,1.16-.93.28-2.02.42-3.26.42-.85,0-1.62-.06-2.33-.18-.7-.12-1.34-.25-1.92-.41-.58-.16-1.09-.31-1.54-.47s-.84-.27-1.18-.35Z" fill="#d8c467"/><path d="M194.08,48.68c0-.79.14-1.5.43-2.11.28-.61.68-1.15,1.18-1.61.5-.46,1.09-.85,1.76-1.18s1.41-.59,2.19-.8c.78-.21,1.6-.36,2.45-.46s1.7-.16,2.55-.18v-.77c0-1.22-.25-2.1-.75-2.62-.5-.52-1.32-.78-2.46-.78-.58,0-1.16.05-1.75.14-.59.09-1.15.2-1.68.34s-1.03.28-1.49.45c-.46.17-.85.32-1.17.48h-.02l-.95-2.16c.23-.18.61-.42,1.14-.72.54-.29,1.18-.58,1.93-.86s1.58-.52,2.5-.73,1.85-.31,2.82-.31c1.19,0,2.21.13,3.04.39.83.26,1.51.66,2.03,1.19.52.54.9,1.22,1.14,2.04.24.82.36,1.79.36,2.91v10.05h2v1.98c-.2.04-.46.1-.76.17-.3.07-.63.13-1,.19-.37.06-.76.11-1.18.15s-.85.06-1.29.06c-.39,0-.72-.02-.99-.05-.27-.03-.5-.11-.66-.23-.17-.12-.29-.29-.36-.51-.08-.22-.11-.52-.11-.89v-.93c-.18.25-.43.52-.76.82s-.71.59-1.17.85c-.46.27-.98.49-1.56.67-.58.18-1.22.27-1.92.27-.76,0-1.48-.1-2.14-.31s-1.25-.52-1.75-.95c-.5-.43-.89-.98-1.18-1.64s-.43-1.46-.43-2.37ZM201.73,50.84c.19,0,.41-.03.66-.08s.5-.13.77-.23.53-.21.79-.35.48-.29.68-.46v-5.33c-1.04,0-1.92.1-2.62.29-.7.19-1.26.45-1.68.77s-.72.69-.89,1.11c-.18.42-.27.86-.27,1.34,0,.96.22,1.68.65,2.18.44.5,1.07.75,1.91.75Z" fill="#d8c467"/><path d="M212.59,53.58v-2.16l2.08-.32v-12.39l-2.19-.68v-2.43l5.77-.79h.08l.85.69v1.92c.35-.32.77-.64,1.26-.95s1.01-.59,1.57-.82c.56-.24,1.16-.43,1.78-.57.62-.15,1.25-.22,1.88-.22,1.03,0,1.89.13,2.59.4.69.27,1.24.7,1.65,1.29s.7,1.35.87,2.28c.17.93.26,2.05.26,3.36v8.93l2.29.31v2.16h-9.07v-2.16l1.76-.31v-8.99c0-.74-.04-1.38-.11-1.93s-.21-.99-.41-1.33c-.2-.34-.47-.6-.82-.77-.35-.17-.8-.25-1.35-.25-.37,0-.72.04-1.08.12-.35.08-.69.19-1.01.31-.32.13-.61.27-.87.43-.26.16-.49.31-.69.46v11.92l2.16.32v2.16h-9.25Z" fill="#d8c467"/><path d="M241.33,53.94c-1,0-1.93-.18-2.8-.54-.87-.36-1.62-.92-2.26-1.67s-1.15-1.7-1.51-2.84c-.37-1.14-.55-2.49-.55-4.05,0-1.47.22-2.82.65-4.05.43-1.23,1.06-2.29,1.88-3.18.82-.89,1.82-1.59,3.01-2.09,1.18-.5,2.52-.75,4.01-.75.45,0,.89.02,1.31.06.42.04.83.11,1.22.19v-5.48l-2.95-.5v-1.84l6.82-.69h.08l1,.76v24.07h1.79v2.03c-.54.12-1.15.24-1.84.38s-1.44.2-2.26.2c-.66,0-1.17-.15-1.53-.44s-.55-.82-.55-1.58v-.63c-.27.34-.59.67-.96.99-.37.32-.79.6-1.26.84-.47.24-.98.44-1.53.58-.55.15-1.15.22-1.78.22ZM243.38,51.02c.66,0,1.24-.12,1.75-.37.51-.25.9-.53,1.17-.84v-12.15c-.18-.19-.48-.37-.9-.52s-.92-.23-1.5-.23-1.13.12-1.64.37-.97.66-1.35,1.22-.7,1.32-.93,2.26c-.23.94-.36,2.1-.38,3.47-.02,1.2.05,2.23.23,3.09.17.85.42,1.56.75,2.1.33.55.73.95,1.21,1.2.48.25,1.01.38,1.6.38Z" fill="#d8c467"/><path d="M272.54,53.95c-1,0-1.92-.07-2.76-.22-.84-.15-1.6-.31-2.28-.48-.68-.18-1.26-.34-1.74-.5-.48-.16-.86-.24-1.13-.27l.27-6.11h2.9l.71,4c.28.31.75.6,1.4.87s1.46.4,2.4.4c.75,0,1.39-.09,1.92-.27.53-.18.95-.42,1.28-.74.33-.32.56-.69.71-1.11.14-.42.22-.88.22-1.38,0-.57-.12-1.08-.37-1.54s-.6-.89-1.06-1.29c-.46-.4-1.03-.79-1.69-1.16-.67-.37-1.42-.76-2.26-1.17-.64-.3-1.33-.67-2.05-1.1-.73-.43-1.39-.96-2.01-1.58s-1.12-1.35-1.53-2.19-.61-1.81-.61-2.92c0-.88.18-1.71.54-2.5.36-.78.89-1.47,1.6-2.05s1.59-1.05,2.64-1.39,2.27-.52,3.66-.52c.74,0,1.47.05,2.18.16s1.37.23,1.98.36,1.15.27,1.62.39c.47.13.83.21,1.07.26l-.21,5.56h-2.84l-.66-3.66c-.09-.1-.23-.2-.43-.3-.2-.1-.43-.2-.69-.28-.26-.09-.55-.16-.86-.21s-.63-.08-.95-.08c-.67,0-1.24.07-1.71.22-.47.14-.86.35-1.15.62-.3.27-.51.59-.65.95s-.21.77-.21,1.21c0,.62.14,1.17.42,1.65.28.48.67.92,1.17,1.32.5.4,1.09.79,1.78,1.16.69.37,1.44.76,2.26,1.17.71.35,1.43.75,2.17,1.2s1.42.96,2.03,1.54,1.11,1.24,1.5,1.98.58,1.59.58,2.55c0,.85-.17,1.71-.5,2.59s-.86,1.68-1.59,2.4-1.68,1.31-2.84,1.76-2.57.68-4.22.68Z" fill="#d8c467"/><path d="M282.88,48.68c0-.79.14-1.5.43-2.11.29-.61.68-1.15,1.18-1.61.5-.46,1.09-.85,1.76-1.18s1.41-.59,2.19-.8c.78-.21,1.6-.36,2.45-.46s1.7-.16,2.55-.18v-.77c0-1.22-.25-2.1-.75-2.62-.5-.52-1.32-.78-2.46-.78-.58,0-1.16.05-1.75.14-.59.09-1.15.2-1.68.34s-1.03.28-1.49.45c-.46.17-.85.32-1.17.48h-.02l-.95-2.16c.23-.18.61-.42,1.14-.72.54-.29,1.18-.58,1.93-.86s1.58-.52,2.5-.73,1.85-.31,2.82-.31c1.19,0,2.2.13,3.04.39.83.26,1.51.66,2.03,1.19.52.54.9,1.22,1.14,2.04.24.82.36,1.79.36,2.91v10.05h2v1.98c-.2.04-.46.1-.76.17-.3.07-.63.13-1,.19-.37.06-.76.11-1.18.15s-.85.06-1.29.06c-.39,0-.72-.02-.99-.05-.27-.03-.49-.11-.66-.23-.17-.12-.29-.29-.36-.51-.08-.22-.11-.52-.11-.89v-.93c-.18.25-.44.52-.76.82s-.71.59-1.17.85c-.46.27-.97.49-1.55.67-.58.18-1.22.27-1.92.27-.76,0-1.48-.1-2.14-.31s-1.25-.52-1.75-.95c-.5-.43-.89-.98-1.18-1.64s-.44-1.46-.44-2.37ZM290.53,50.84c.19,0,.41-.03.66-.08s.5-.13.77-.23.53-.21.79-.35.48-.29.68-.46v-5.33c-1.04,0-1.92.1-2.62.29-.7.19-1.26.45-1.68.77s-.72.69-.89,1.11c-.18.42-.27.86-.27,1.34,0,.96.22,1.68.65,2.18.44.5,1.07.75,1.91.75Z" fill="#d8c467"/><path d="M307.66,53.84l-6.46-16.21-1.53-.45v-2.06h9.43v2.05l-2.4.45,3.01,9.27,1.06,3.67.9-3.58,2.88-9.36-2.35-.45v-2.05h7.32v2.06l-1.64.45-6.01,16.21h-4.21Z" fill="#d8c467"/><path d="M319.48,48.68c0-.79.14-1.5.43-2.11.28-.61.68-1.15,1.18-1.61.5-.46,1.09-.85,1.76-1.18s1.41-.59,2.19-.8c.78-.21,1.6-.36,2.45-.46s1.7-.16,2.55-.18v-.77c0-1.22-.25-2.1-.75-2.62-.5-.52-1.32-.78-2.46-.78-.58,0-1.16.05-1.75.14-.59.09-1.15.2-1.68.34s-1.03.28-1.49.45c-.46.17-.85.32-1.17.48h-.02l-.95-2.16c.23-.18.61-.42,1.14-.72.54-.29,1.18-.58,1.93-.86s1.58-.52,2.5-.73,1.85-.31,2.82-.31c1.19,0,2.21.13,3.04.39.83.26,1.51.66,2.03,1.19.52.54.9,1.22,1.14,2.04.24.82.36,1.79.36,2.91v10.05h2v1.98c-.2.04-.46.1-.76.17-.3.07-.63.13-1,.19-.37.06-.76.11-1.18.15s-.85.06-1.29.06c-.39,0-.72-.02-.99-.05-.27-.03-.5-.11-.66-.23-.17-.12-.29-.29-.36-.51-.08-.22-.11-.52-.11-.89v-.93c-.18.25-.43.52-.76.82s-.71.59-1.17.85c-.46.27-.98.49-1.56.67-.58.18-1.22.27-1.92.27-.76,0-1.48-.1-2.14-.31s-1.25-.52-1.75-.95c-.5-.43-.89-.98-1.18-1.64s-.43-1.46-.43-2.37ZM327.14,50.84c.19,0,.41-.03.66-.08s.5-.13.77-.23.53-.21.79-.35.48-.29.68-.46v-5.33c-1.04,0-1.92.1-2.62.29-.7.19-1.26.45-1.68.77s-.72.69-.89,1.11c-.18.42-.27.86-.27,1.34,0,.96.22,1.68.65,2.18.44.5,1.07.75,1.91.75Z" fill="#d8c467"/><path d="M337.99,53.58v-2.16l2.08-.32v-12.39l-2.19-.68v-2.43l5.77-.79h.08l.85.69v1.92c.35-.32.77-.64,1.26-.95s1.01-.59,1.57-.82c.56-.24,1.16-.43,1.78-.57.62-.15,1.25-.22,1.88-.22,1.03,0,1.89.13,2.59.4.69.27,1.24.7,1.65,1.29s.7,1.35.87,2.28c.17.93.26,2.05.26,3.36v8.93l2.29.31v2.16h-9.07v-2.16l1.76-.31v-8.99c0-.74-.04-1.38-.11-1.93s-.21-.99-.41-1.33c-.2-.34-.47-.6-.82-.77-.35-.17-.8-.25-1.35-.25-.37,0-.72.04-1.08.12-.35.08-.69.19-1.01.31-.32.13-.61.27-.87.43-.26.16-.49.31-.69.46v11.92l2.16.32v2.16h-9.25Z" fill="#d8c467"/><path d="M360,53.58v-2.16l2.08-.32v-12.39l-2.19-.68v-2.43l5.77-.79h.08l.85.69v1.92c.35-.32.77-.64,1.26-.95s1.01-.59,1.57-.82c.56-.24,1.16-.43,1.78-.57.62-.15,1.25-.22,1.89-.22,1.03,0,1.89.13,2.59.4.69.27,1.24.7,1.65,1.29s.7,1.35.87,2.28c.17.93.26,2.05.26,3.36v8.93l2.29.31v2.16h-9.07v-2.16l1.76-.31v-8.99c0-.74-.04-1.38-.11-1.93s-.21-.99-.41-1.33c-.2-.34-.47-.6-.82-.77-.35-.17-.8-.25-1.34-.25-.37,0-.73.04-1.08.12-.35.08-.69.19-1.01.31-.32.13-.61.27-.87.43-.26.16-.49.31-.68.46v11.92l2.16.32v2.16h-9.25Z" fill="#d8c467"/><path d="M381.48,48.68c0-.79.14-1.5.43-2.11.28-.61.68-1.15,1.18-1.61.5-.46,1.09-.85,1.76-1.18s1.41-.59,2.19-.8c.78-.21,1.6-.36,2.45-.46s1.7-.16,2.55-.18v-.77c0-1.22-.25-2.1-.75-2.62-.5-.52-1.32-.78-2.46-.78-.58,0-1.16.05-1.75.14-.59.09-1.15.2-1.68.34s-1.03.28-1.49.45c-.46.17-.85.32-1.17.48h-.02l-.95-2.16c.23-.18.61-.42,1.14-.72.54-.29,1.18-.58,1.93-.86s1.58-.52,2.5-.73,1.85-.31,2.82-.31c1.19,0,2.21.13,3.04.39.83.26,1.51.66,2.03,1.19.52.54.9,1.22,1.14,2.04.24.82.36,1.79.36,2.91v10.05h2v1.98c-.2.04-.46.1-.76.17-.3.07-.63.13-1,.19-.37.06-.76.11-1.18.15s-.85.06-1.29.06c-.39,0-.72-.02-.99-.05-.27-.03-.5-.11-.66-.23-.17-.12-.29-.29-.36-.51-.08-.22-.11-.52-.11-.89v-.93c-.18.25-.43.52-.76.82s-.71.59-1.17.85c-.46.27-.98.49-1.56.67-.58.18-1.22.27-1.92.27-.76,0-1.48-.1-2.14-.31s-1.25-.52-1.75-.95c-.5-.43-.89-.98-1.18-1.64s-.43-1.46-.43-2.37ZM389.13,50.84c.19,0,.41-.03.66-.08s.5-.13.77-.23.53-.21.79-.35.48-.29.68-.46v-5.33c-1.04,0-1.92.1-2.62.29-.7.19-1.26.45-1.68.77s-.72.69-.89,1.11c-.18.42-.27.86-.27,1.34,0,.96.22,1.68.65,2.18.44.5,1.07.75,1.91.75Z" fill="#d8c467"/><path d="M400.26,52.55v-4.53h2.96l.84,2.51c.1.14.24.28.44.42.2.14.43.26.71.37.27.11.58.2.93.27.34.07.7.1,1.08.1.54,0,.97-.06,1.31-.19.34-.13.61-.29.81-.49.2-.2.34-.42.42-.68.08-.25.11-.5.11-.73,0-.45-.12-.84-.35-1.17-.23-.33-.56-.63-.98-.9-.42-.27-.94-.54-1.54-.8s-1.27-.54-2-.84c-.74-.3-1.41-.64-2-1.01-.59-.37-1.09-.79-1.51-1.25-.41-.46-.73-.98-.96-1.55s-.34-1.21-.34-1.92c0-.76.16-1.47.48-2.12.32-.65.79-1.21,1.41-1.69s1.4-.85,2.32-1.13c.92-.27,1.99-.41,3.21-.41.71,0,1.34.04,1.89.13.55.09,1.06.19,1.51.3.45.11.86.23,1.24.35.38.12.74.22,1.1.28v4.45l-2.8-.05-.76-2.14c-.15-.25-.44-.49-.85-.72s-.95-.35-1.59-.36c-.48,0-.89.05-1.22.16-.33.11-.59.25-.79.44-.2.18-.34.38-.43.6s-.13.44-.13.67c0,.56.15,1.02.44,1.38.29.36.66.66,1.1.91s.92.46,1.45.65,1.03.39,1.5.6c.71.31,1.39.64,2.03.99.64.35,1.22.75,1.72,1.22.5.46.9,1,1.19,1.6.29.61.44,1.33.44,2.17,0,.78-.15,1.51-.46,2.18-.31.67-.77,1.25-1.39,1.74-.62.49-1.39.88-2.32,1.16-.93.28-2.02.42-3.26.42-.85,0-1.62-.06-2.33-.18-.7-.12-1.34-.25-1.92-.41-.58-.16-1.09-.31-1.54-.47s-.84-.27-1.18-.35Z" fill="#d8c467"/></g></svg>